<mxfile host="app.diagrams.net" modified="2022-03-14T03:16:12.150Z" agent="5.0 (Macintosh; Intel Mac OS X 10_15_7) AppleWebKit/537.36 (KHTML, like Gecko) Chrome/98.0.4758.80 Safari/537.36" etag="2e8bhPWy6mxQqKpTbOrh" version="17.1.1" type="github">
  <diagram id="Nlb2zSe0XLJt_Z2686hY" name="Page-1">
    <mxGraphModel dx="2088" dy="954" grid="1" gridSize="10" guides="1" tooltips="1" connect="1" arrows="1" fold="1" page="1" pageScale="1" pageWidth="850" pageHeight="1100" background="none" math="0" shadow="0">
      <root>
        <mxCell id="0" />
        <mxCell id="1" parent="0" />
        <mxCell id="Ewb6es_rom8pKHP2NBDd-18" value="VPC ( Amazon EKS)" style="sketch=0;outlineConnect=0;gradientColor=none;html=1;whiteSpace=wrap;fontSize=12;fontStyle=0;shape=mxgraph.aws4.group;grIcon=mxgraph.aws4.group_vpc;strokeColor=#272829;fillColor=none;verticalAlign=top;align=left;spacingLeft=30;fontColor=#B6BABF;dashed=0;rounded=1;labelBorderColor=none;" vertex="1" parent="1">
          <mxGeometry x="370" y="79" width="270" height="96" as="geometry" />
        </mxCell>
        <mxCell id="Ewb6es_rom8pKHP2NBDd-15" value="" style="sketch=0;points=[[0,0,0],[0.25,0,0],[0.5,0,0],[0.75,0,0],[1,0,0],[0,1,0],[0.25,1,0],[0.5,1,0],[0.75,1,0],[1,1,0],[0,0.25,0],[0,0.5,0],[0,0.75,0],[1,0.25,0],[1,0.5,0],[1,0.75,0]];outlineConnect=0;fontColor=#232F3E;gradientColor=#F78E04;gradientDirection=north;fillColor=#D05C17;strokeColor=#ffffff;dashed=0;verticalLabelPosition=bottom;verticalAlign=top;align=center;html=1;fontSize=12;fontStyle=0;aspect=fixed;shape=mxgraph.aws4.resourceIcon;resIcon=mxgraph.aws4.eks;rounded=1;" vertex="1" parent="1">
          <mxGeometry x="480" y="105" width="50" height="50" as="geometry" />
        </mxCell>
        <mxCell id="Ewb6es_rom8pKHP2NBDd-16" value="EKS control plane" style="text;html=1;resizable=0;autosize=1;align=center;verticalAlign=middle;points=[];fillColor=none;strokeColor=none;rounded=0;dashed=1;fontSize=9;strokeWidth=5;" vertex="1" parent="1">
          <mxGeometry x="460" y="155" width="90" height="20" as="geometry" />
        </mxCell>
        <mxCell id="Ewb6es_rom8pKHP2NBDd-19" value="VPC" style="sketch=0;outlineConnect=0;gradientColor=none;html=1;whiteSpace=wrap;fontSize=12;fontStyle=0;shape=mxgraph.aws4.group;grIcon=mxgraph.aws4.group_vpc;strokeColor=#272829;fillColor=none;verticalAlign=top;align=left;spacingLeft=30;fontColor=#B6BABF;dashed=0;rounded=1;labelBorderColor=none;" vertex="1" parent="1">
          <mxGeometry x="370" y="205" width="270" height="254" as="geometry" />
        </mxCell>
        <mxCell id="Ewb6es_rom8pKHP2NBDd-20" value="Availability &lt;br&gt;zone B" style="sketch=0;outlineConnect=0;gradientColor=none;html=1;whiteSpace=wrap;fontSize=12;fontStyle=0;shape=mxgraph.aws4.group;grIcon=mxgraph.aws4.group_availability_zone;strokeColor=#545B64;fillColor=none;verticalAlign=top;align=left;spacingLeft=30;fontColor=#545B64;dashed=1;rounded=1;labelBorderColor=none;" vertex="1" parent="1">
          <mxGeometry x="515" y="241.59" width="110" height="194" as="geometry" />
        </mxCell>
        <mxCell id="Ewb6es_rom8pKHP2NBDd-21" value="&lt;span style=&quot;font-size: x-small&quot;&gt;Public Subnet&lt;/span&gt;" style="sketch=0;outlineConnect=0;gradientColor=none;html=1;whiteSpace=wrap;fontSize=12;fontStyle=0;shape=mxgraph.aws4.group;grIcon=mxgraph.aws4.group_subnet;strokeColor=#879196;fillColor=none;verticalAlign=top;align=left;spacingLeft=30;fontColor=#879196;dashed=0;rounded=1;labelBorderColor=none;" vertex="1" parent="1">
          <mxGeometry x="525" y="281.59" width="90" height="134" as="geometry" />
        </mxCell>
        <mxCell id="Ewb6es_rom8pKHP2NBDd-22" value="" style="sketch=0;points=[[0,0,0],[0.25,0,0],[0.5,0,0],[0.75,0,0],[1,0,0],[0,1,0],[0.25,1,0],[0.5,1,0],[0.75,1,0],[1,1,0],[0,0.25,0],[0,0.5,0],[0,0.75,0],[1,0.25,0],[1,0.5,0],[1,0.75,0]];outlineConnect=0;fontColor=#232F3E;gradientColor=#F78E04;gradientDirection=north;fillColor=#D05C17;strokeColor=#ffffff;dashed=0;verticalLabelPosition=bottom;verticalAlign=top;align=center;html=1;fontSize=12;fontStyle=0;aspect=fixed;shape=mxgraph.aws4.resourceIcon;resIcon=mxgraph.aws4.ec2;rounded=1;labelBorderColor=none;" vertex="1" parent="1">
          <mxGeometry x="545" y="321.59" width="50" height="50" as="geometry" />
        </mxCell>
        <mxCell id="Ewb6es_rom8pKHP2NBDd-23" value="EC2 instances &lt;br&gt;( Managed)" style="text;html=1;resizable=0;autosize=1;align=center;verticalAlign=middle;points=[];fillColor=none;strokeColor=none;rounded=0;dashed=1;labelBorderColor=none;fontSize=8;" vertex="1" parent="1">
          <mxGeometry x="535" y="371.59" width="70" height="30" as="geometry" />
        </mxCell>
        <mxCell id="Ewb6es_rom8pKHP2NBDd-25" value="Availability &lt;br&gt;zone A" style="sketch=0;outlineConnect=0;gradientColor=none;html=1;whiteSpace=wrap;fontSize=12;fontStyle=0;shape=mxgraph.aws4.group;grIcon=mxgraph.aws4.group_availability_zone;strokeColor=#545B64;fillColor=none;verticalAlign=top;align=left;spacingLeft=30;fontColor=#545B64;dashed=1;rounded=1;labelBorderColor=none;" vertex="1" parent="1">
          <mxGeometry x="390" y="241.59" width="110" height="194" as="geometry" />
        </mxCell>
        <mxCell id="Ewb6es_rom8pKHP2NBDd-26" value="&lt;font size=&quot;1&quot;&gt;Public Subnet&lt;/font&gt;" style="sketch=0;outlineConnect=0;gradientColor=none;html=1;whiteSpace=wrap;fontSize=12;fontStyle=0;shape=mxgraph.aws4.group;grIcon=mxgraph.aws4.group_subnet;strokeColor=#879196;fillColor=none;verticalAlign=top;align=left;spacingLeft=30;fontColor=#879196;dashed=0;rounded=1;labelBorderColor=none;" vertex="1" parent="1">
          <mxGeometry x="400" y="281.59" width="90" height="134" as="geometry" />
        </mxCell>
        <mxCell id="Ewb6es_rom8pKHP2NBDd-27" value="" style="sketch=0;points=[[0,0,0],[0.25,0,0],[0.5,0,0],[0.75,0,0],[1,0,0],[0,1,0],[0.25,1,0],[0.5,1,0],[0.75,1,0],[1,1,0],[0,0.25,0],[0,0.5,0],[0,0.75,0],[1,0.25,0],[1,0.5,0],[1,0.75,0]];outlineConnect=0;fontColor=#232F3E;gradientColor=#F78E04;gradientDirection=north;fillColor=#D05C17;strokeColor=#ffffff;dashed=0;verticalLabelPosition=bottom;verticalAlign=top;align=center;html=1;fontSize=12;fontStyle=0;aspect=fixed;shape=mxgraph.aws4.resourceIcon;resIcon=mxgraph.aws4.ec2;rounded=1;labelBorderColor=none;" vertex="1" parent="1">
          <mxGeometry x="420" y="321.59" width="50" height="50" as="geometry" />
        </mxCell>
        <mxCell id="Ewb6es_rom8pKHP2NBDd-28" value="EC2 instances &lt;br&gt;( Managed)" style="text;html=1;resizable=0;autosize=1;align=center;verticalAlign=middle;points=[];fillColor=none;strokeColor=none;rounded=0;dashed=1;labelBorderColor=none;fontSize=8;" vertex="1" parent="1">
          <mxGeometry x="410" y="371.59" width="70" height="30" as="geometry" />
        </mxCell>
        <mxCell id="Ewb6es_rom8pKHP2NBDd-40" style="edgeStyle=orthogonalEdgeStyle;rounded=1;orthogonalLoop=1;jettySize=auto;html=1;fontSize=9;" edge="1" parent="1" source="Ewb6es_rom8pKHP2NBDd-41" target="Ewb6es_rom8pKHP2NBDd-42">
          <mxGeometry relative="1" as="geometry" />
        </mxCell>
        <mxCell id="Ewb6es_rom8pKHP2NBDd-41" value="" style="sketch=0;points=[[0,0,0],[0.25,0,0],[0.5,0,0],[0.75,0,0],[1,0,0],[0,1,0],[0.25,1,0],[0.5,1,0],[0.75,1,0],[1,1,0],[0,0.25,0],[0,0.5,0],[0,0.75,0],[1,0.25,0],[1,0.5,0],[1,0.75,0]];outlineConnect=0;fontColor=#232F3E;gradientColor=#4D72F3;gradientDirection=north;fillColor=#3334B9;strokeColor=#ffffff;dashed=0;verticalLabelPosition=bottom;verticalAlign=top;align=center;html=1;fontSize=12;fontStyle=0;aspect=fixed;shape=mxgraph.aws4.resourceIcon;resIcon=mxgraph.aws4.codecommit;rounded=1;labelBorderColor=none;" vertex="1" parent="1">
          <mxGeometry x="106" y="239" width="38" height="38" as="geometry" />
        </mxCell>
        <mxCell id="Ewb6es_rom8pKHP2NBDd-49" style="edgeStyle=orthogonalEdgeStyle;rounded=1;orthogonalLoop=1;jettySize=auto;html=1;exitX=1;exitY=0.5;exitDx=0;exitDy=0;exitPerimeter=0;fontSize=9;" edge="1" parent="1" source="Ewb6es_rom8pKHP2NBDd-42">
          <mxGeometry relative="1" as="geometry">
            <mxPoint x="330" y="258" as="targetPoint" />
          </mxGeometry>
        </mxCell>
        <mxCell id="Ewb6es_rom8pKHP2NBDd-42" value="" style="sketch=0;points=[[0,0,0],[0.25,0,0],[0.5,0,0],[0.75,0,0],[1,0,0],[0,1,0],[0.25,1,0],[0.5,1,0],[0.75,1,0],[1,1,0],[0,0.25,0],[0,0.5,0],[0,0.75,0],[1,0.25,0],[1,0.5,0],[1,0.75,0]];outlineConnect=0;fontColor=#232F3E;gradientColor=#4D72F3;gradientDirection=north;fillColor=#3334B9;strokeColor=#ffffff;dashed=0;verticalLabelPosition=bottom;verticalAlign=top;align=center;html=1;fontSize=12;fontStyle=0;aspect=fixed;shape=mxgraph.aws4.resourceIcon;resIcon=mxgraph.aws4.codebuild;rounded=1;labelBorderColor=none;" vertex="1" parent="1">
          <mxGeometry x="189.5" y="237.5" width="41" height="41" as="geometry" />
        </mxCell>
        <mxCell id="Ewb6es_rom8pKHP2NBDd-43" style="edgeStyle=orthogonalEdgeStyle;rounded=1;orthogonalLoop=1;jettySize=auto;html=1;fontSize=9;" edge="1" parent="1" source="Ewb6es_rom8pKHP2NBDd-44" target="Ewb6es_rom8pKHP2NBDd-41">
          <mxGeometry relative="1" as="geometry" />
        </mxCell>
        <mxCell id="Ewb6es_rom8pKHP2NBDd-44" value="" style="sketch=0;outlineConnect=0;fontColor=#232F3E;gradientColor=none;fillColor=#232F3D;strokeColor=none;dashed=0;verticalLabelPosition=bottom;verticalAlign=top;align=center;html=1;fontSize=12;fontStyle=0;aspect=fixed;pointerEvents=1;shape=mxgraph.aws4.user;rounded=1;labelBorderColor=none;" vertex="1" parent="1">
          <mxGeometry x="50" y="247.5" width="21" height="21" as="geometry" />
        </mxCell>
        <mxCell id="Ewb6es_rom8pKHP2NBDd-45" value="AWS CodeCommit" style="text;html=1;resizable=0;autosize=1;align=center;verticalAlign=middle;points=[];fillColor=none;strokeColor=none;rounded=0;dashed=1;labelBorderColor=none;fontSize=6;" vertex="1" parent="1">
          <mxGeometry x="90" y="279" width="70" height="10" as="geometry" />
        </mxCell>
        <mxCell id="Ewb6es_rom8pKHP2NBDd-46" value="AWS CodeBuild" style="text;html=1;resizable=0;autosize=1;align=center;verticalAlign=middle;points=[];fillColor=none;strokeColor=none;rounded=0;dashed=1;labelBorderColor=none;fontSize=6;" vertex="1" parent="1">
          <mxGeometry x="180" y="279" width="60" height="10" as="geometry" />
        </mxCell>
        <mxCell id="Ewb6es_rom8pKHP2NBDd-50" value="AWS CDK&amp;nbsp;" style="text;html=1;resizable=0;autosize=1;align=center;verticalAlign=middle;points=[];fillColor=none;strokeColor=none;rounded=0;dashed=1;labelBorderColor=none;fontSize=7;" vertex="1" parent="1">
          <mxGeometry x="245" y="241.59" width="50" height="10" as="geometry" />
        </mxCell>
        <mxCell id="Ewb6es_rom8pKHP2NBDd-51" value="" style="sketch=0;points=[[0,0,0],[0.25,0,0],[0.5,0,0],[0.75,0,0],[1,0,0],[0,1,0],[0.25,1,0],[0.5,1,0],[0.75,1,0],[1,1,0],[0,0.25,0],[0,0.5,0],[0,0.75,0],[1,0.25,0],[1,0.5,0],[1,0.75,0]];outlineConnect=0;fontColor=#232F3E;gradientColor=#4D72F3;gradientDirection=north;fillColor=#3334B9;strokeColor=#ffffff;dashed=0;verticalLabelPosition=bottom;verticalAlign=top;align=center;html=1;fontSize=12;fontStyle=0;aspect=fixed;shape=mxgraph.aws4.resourceIcon;resIcon=mxgraph.aws4.cloud_development_kit;rounded=1;labelBorderColor=none;" vertex="1" parent="1">
          <mxGeometry x="256.5" y="210.5" width="27" height="27" as="geometry" />
        </mxCell>
        <mxCell id="Ewb6es_rom8pKHP2NBDd-52" value="provisions" style="text;html=1;resizable=0;autosize=1;align=center;verticalAlign=middle;points=[];fillColor=none;strokeColor=none;rounded=0;dashed=1;labelBorderColor=none;fontSize=8;" vertex="1" parent="1">
          <mxGeometry x="245.5" y="258.5" width="50" height="20" as="geometry" />
        </mxCell>
        <mxCell id="Ewb6es_rom8pKHP2NBDd-53" value="triggers" style="text;html=1;resizable=0;autosize=1;align=center;verticalAlign=middle;points=[];fillColor=none;strokeColor=none;rounded=0;dashed=1;labelBorderColor=none;fontSize=9;" vertex="1" parent="1">
          <mxGeometry x="144" y="259" width="50" height="20" as="geometry" />
        </mxCell>
        <mxCell id="Ewb6es_rom8pKHP2NBDd-54" value="" style="sketch=0;points=[[0,0,0],[0.25,0,0],[0.5,0,0],[0.75,0,0],[1,0,0],[0,1,0],[0.25,1,0],[0.5,1,0],[0.75,1,0],[1,1,0],[0,0.25,0],[0,0.5,0],[0,0.75,0],[1,0.25,0],[1,0.5,0],[1,0.75,0]];outlineConnect=0;fontColor=#232F3E;gradientColor=#F78E04;gradientDirection=north;fillColor=#D05C17;strokeColor=#ffffff;dashed=0;verticalLabelPosition=bottom;verticalAlign=top;align=center;html=1;fontSize=12;fontStyle=0;aspect=fixed;shape=mxgraph.aws4.resourceIcon;resIcon=mxgraph.aws4.ecr;rounded=1;labelBorderColor=none;" vertex="1" parent="1">
          <mxGeometry x="666" y="79" width="38" height="38" as="geometry" />
        </mxCell>
        <mxCell id="Ewb6es_rom8pKHP2NBDd-55" value="ECR" style="text;html=1;resizable=0;autosize=1;align=center;verticalAlign=middle;points=[];fillColor=none;strokeColor=none;rounded=0;dashed=1;labelBorderColor=none;fontSize=9;" vertex="1" parent="1">
          <mxGeometry x="670" y="120" width="30" height="20" as="geometry" />
        </mxCell>
        <mxCell id="Ewb6es_rom8pKHP2NBDd-56" value="" style="sketch=0;outlineConnect=0;fontColor=#232F3E;gradientColor=none;fillColor=#B0084D;strokeColor=none;dashed=0;verticalLabelPosition=bottom;verticalAlign=top;align=center;html=1;fontSize=12;fontStyle=0;aspect=fixed;pointerEvents=1;shape=mxgraph.aws4.cloudwatch_metrics_insights;rounded=1;labelBorderColor=none;" vertex="1" parent="1">
          <mxGeometry x="666" y="146" width="38" height="38.5" as="geometry" />
        </mxCell>
        <mxCell id="Ewb6es_rom8pKHP2NBDd-57" value="Cloudwatch agent" style="text;html=1;resizable=0;autosize=1;align=center;verticalAlign=middle;points=[];fillColor=none;strokeColor=none;rounded=0;dashed=1;labelBorderColor=none;fontSize=9;" vertex="1" parent="1">
          <mxGeometry x="645" y="183.5" width="90" height="20" as="geometry" />
        </mxCell>
        <mxCell id="Ewb6es_rom8pKHP2NBDd-58" value="" style="aspect=fixed;html=1;points=[];align=center;image;fontSize=12;image=img/lib/azure2/management_governance/Metrics.svg;rounded=1;dashed=1;labelBorderColor=none;strokeColor=#272829;strokeWidth=6;" vertex="1" parent="1">
          <mxGeometry x="666" y="225" width="38" height="41.17" as="geometry" />
        </mxCell>
        <mxCell id="Ewb6es_rom8pKHP2NBDd-59" value="Metrics Server" style="text;html=1;resizable=0;autosize=1;align=center;verticalAlign=middle;points=[];fillColor=none;strokeColor=none;rounded=0;dashed=1;labelBorderColor=none;fontSize=9;" vertex="1" parent="1">
          <mxGeometry x="650" y="266.17" width="70" height="20" as="geometry" />
        </mxCell>
        <mxCell id="Ewb6es_rom8pKHP2NBDd-60" value="" style="sketch=0;points=[[0,0,0],[0.25,0,0],[0.5,0,0],[0.75,0,0],[1,0,0],[0,1,0],[0.25,1,0],[0.5,1,0],[0.75,1,0],[1,1,0],[0,0.25,0],[0,0.5,0],[0,0.75,0],[1,0.25,0],[1,0.5,0],[1,0.75,0]];outlineConnect=0;fontColor=#232F3E;gradientColor=#F54749;gradientDirection=north;fillColor=#C7131F;strokeColor=#ffffff;dashed=0;verticalLabelPosition=bottom;verticalAlign=top;align=center;html=1;fontSize=12;fontStyle=0;aspect=fixed;shape=mxgraph.aws4.resourceIcon;resIcon=mxgraph.aws4.secrets_manager;rounded=1;labelBorderColor=none;" vertex="1" parent="1">
          <mxGeometry x="670" y="299" width="40" height="40" as="geometry" />
        </mxCell>
        <mxCell id="Ewb6es_rom8pKHP2NBDd-61" value="CSI driver &lt;br&gt;for Secrets Manager" style="text;html=1;resizable=0;autosize=1;align=center;verticalAlign=middle;points=[];fillColor=none;strokeColor=none;rounded=0;dashed=1;labelBorderColor=none;fontSize=9;" vertex="1" parent="1">
          <mxGeometry x="645" y="339" width="100" height="30" as="geometry" />
        </mxCell>
        <mxCell id="Ewb6es_rom8pKHP2NBDd-64" value="" style="shape=image;verticalLabelPosition=bottom;labelBackgroundColor=default;verticalAlign=top;aspect=fixed;imageAspect=0;image=data:image/png,iVBORw0KGgoAAAANSUhEUgAAAdAAAAFWCAYAAADZtMzFAAABQmlDQ1BJQ0MgUHJvZmlsZQAAKJFjYGASSCwoyGFhYGDIzSspCnJ3UoiIjFJgf8bAzMDLIMqgxqCfmFxc4BgQ4ANUwgCjUcG3awyMIPqyLsgsw2qPGu63zmIf5fW2v/23ShRTPQrgSkktTgbSf4A4KbmgqISBgTEByFYuLykAsVuAbJEioKOA7BkgdjqEvQbEToKwD4DVhAQ5A9lXgGyB5IzEFCD7CZCtk4Qkno7EhtoLAhweAQpG5pUZBJxKOihJrSgB0c75BZVFmekZJQqOwBBKVfDMS9bTUTAyMDJiYACFN0T15yBwODKK7UOI5S9hYLD4xsDAPBEhljSFgWF7GwODxC2EmMo8BgZ+YFhtO1SQWJQIdwDjN5biNGMjCJvHnoGB9e7//581GBjYJzIw/J34///vxf///10MNP82A8OBSgBPJF9a/3PS7QAAAFZlWElmTU0AKgAAAAgAAYdpAAQAAAABAAAAGgAAAAAAA5KGAAcAAAASAAAARKACAAQAAAABAAAB0KADAAQAAAABAAABVgAAAABBU0NJSQAAAFNjcmVlbnNob3Q9hbXvAAAB1mlUWHRYTUw6Y29tLmFkb2JlLnhtcAAAAAAAPHg6eG1wbWV0YSB4bWxuczp4PSJhZG9iZTpuczptZXRhLyIgeDp4bXB0az0iWE1QIENvcmUgNi4wLjAiPgogICA8cmRmOlJERiB4bWxuczpyZGY9Imh0dHA6Ly93d3cudzMub3JnLzE5OTkvMDIvMjItcmRmLXN5bnRheC1ucyMiPgogICAgICA8cmRmOkRlc2NyaXB0aW9uIHJkZjphYm91dD0iIgogICAgICAgICAgICB4bWxuczpleGlmPSJodHRwOi8vbnMuYWRvYmUuY29tL2V4aWYvMS4wLyI+CiAgICAgICAgIDxleGlmOlBpeGVsWURpbWVuc2lvbj4zNDI8L2V4aWY6UGl4ZWxZRGltZW5zaW9uPgogICAgICAgICA8ZXhpZjpQaXhlbFhEaW1lbnNpb24+NDY0PC9leGlmOlBpeGVsWERpbWVuc2lvbj4KICAgICAgICAgPGV4aWY6VXNlckNvbW1lbnQ+U2NyZWVuc2hvdDwvZXhpZjpVc2VyQ29tbWVudD4KICAgICAgPC9yZGY6RGVzY3JpcHRpb24+CiAgIDwvcmRmOlJERj4KPC94OnhtcG1ldGE+CvV9QvAAAEAASURBVHgB7L1pkF3Hded53v5e7SjsBEAABLgA3HdJJEUttiy5Jdnqtj3tZeyJ6WnPfJg1Yj7MTEzMdMTMh+loRzumIzo8jl48aiksWV5lNUe7TZGURHETxQ0kwAUkAWKvBVXvVb19fv+T9756VQApsAgUCkAmcN+9N2+u5946/zwnT57MdAkWQ6RApECkQKRApECkwPuiQPZ9pY6JIwUiBSIFIgUiBSIFnAIRQOOHECkQKRApECkQKbAMCkQAXQbRYpZIgUiBSIFIgUiBCKDxG4gUiBSIFIgUiBRYBgUigC6DaDFLpECkQKRApECkQATQ+A1ECkQKRApECkQKLIMCEUCXQbSYJVIgUiBSIFIgUiACaPwGIgUiBSIFIgUiBZZBgQigyyBazBIpECkQKRApECkQATR+A5ECkQKRApECkQLLoEAE0GUQLWaJFIgUiBSIFIgUiAAav4FIgUiBSIFIgUiBZVAgAugyiBazRApECkQKRApECkQAjd9ApECkQKRApECkwDIoEAF0GUSLWSIFIgUiBSIFIgUigMZvIFIgUiBSIFIgUmAZFIgAugyixSyRApECkQKRApECEUDjNxApECkQKRApECmwDApEAF0G0WKWSIFIgUiBSIFIgQig8RuIFIgUiBSIFIgUWAYFIoAug2gxS6RApECkQKRApEAE0PgNRApECkQKRApECiyDAhFAl0G0mCVSIFIgUiBSIFIgAmj8BiIFIgUiBSIFIgWWQYEIoMsgWswSKRApECkQKRApEAE0fgORApECkQKRApECy6BABNBlEC1miRSIFIgUiBSIFIgAGr+BSIFIgUiBSIFIgWVQIALoMogWs0QKRApECkQKRApEAI3fQKRApECkQKRApMAyKBABdBlEi1kiBSIFIgUiBSIFIoDGbyBSIFIgUiBSIFJgGRSIALoMosUskQKRApECkQKRAhFA4zcQKRApECkQKRApsAwKRABdBtFilkiBSIFIgUiBSIEIoPEbiBSIFIgUiBSIFFgGBSKALoNoMUukQKRApECkQKRAPpJg9VOg3TVrq5mZjmWtYxnrWqab4TrnjW9nujzvWFF3xCudcd/1f9yTLmN58ug5h6J0xBApECkQKRApsGwKRABdNulWMCPomUVX0MlkHf9Uc66riNCGDDiaETp2eZ0CUAFrAqJJCodSEgXcjOAZyBJ/IwUiBSIFPgAFMl3CB8gfs64EBVpUwlvqgIttgR/XWUA1pzeX4KVlGsS7DLq4RTx3THWJlDTIqhkrcJwl7eKc8S5SIFIgUiBS4D0oECXQ9yDO6nl0GqCU2raAFFq0TjZvWcBTqtysNWmmjoZ1EVM7qGr9maRTASwBwRXEzfBMOfTbSZS//jj+RApECkQKRAosgwJRAl0G0VY8S6dKlXk7WevY/kOnbOL0vM9qrh8bsqs3j9v4UAFgBERdNdv1Z1lX8SKyJiAK0vpzSbBKptsYIgUiBSIFIgWWT4EIoMun3YrlbKOuffVQw/7qW4/ai68ftemq1LAdGx8u2/qxQbvh2h120417bMtVeVszbChoOxxNy7QFqkBlFyAlRrDp6lyBqIPtinUhVhQpECkQKXDZUSAC6CXwSo+iwf3K15+z7z7yjE3WCihrS5aTnrZVtVKubYPlgm1Yv97uvHmLXbtzzLZvXWvrxvI2OgBsZluWE1jKwKhTMp/xBlNdrXsJ9D02MVIgUiBSYLVSIM6BrtY309euQxNmzx143Sbn2tbIjFqLudBWp2n5/IDVunWr182mSHTw4Ns2NpC1rdvW2t133cCxy8ZQ71YKbRsoZlDtNlx1m/MZUEmlMUQKRApECkQKLJcCUQJdLuVWMN83nz1mf/Qnf23HJ7rW6K7BWKjEspYWatx5VLEy0c1Yu52zQjvPTKmmPetWADRLxZbdtHeH3XHzNfaRu6+19UNmJaTRXBcjIq2LiSFSIFIgUiBSYNkUiBLoskm3chmnp2os6yyhsm1bEamzBWZmszhVyBUATgAzg5MEK1srV2fmkwirWB0ptYZk+tTzp+2V/U/Zd771uD1w17X24Iduts3rKzaMejeGSIFIgUiBSIHlUyAC6PJpt2I5S2U8CWXKHJgO6cjOIHTy6lgYmpU5UbfF3KZQVbJosBDqCFlZ7lJj6ed8vW2nMTyaeHi/Pb7vpN123Wa7//ZdzJuO2No1WcsjxeZYWCrDJM2VdjE4kvGupk7de1HaUyJkxSuZV0EfTy44PQo3Hht/IgUiBSIFrgwKRAC9BN5zZYDXhNVPJlOyNkDZyc9Zt1NxoyApYqXGzfK86ya2xEhFK/Trtt3qtg3YzgGKczWzI29U7Y13XrYfPvmi3X3njXbXbTts6/qyjY9kbaiMc0CsjNxVoMx00yUwKY0ol+WkAKcKlyvBJOg2hkiBSIFIgSuMAhFAL4EXXszlkBIBw/Y8uCUvQvJtm8KX0Mth9Jx7MtXM2Oxszl777tP27R8/a7ftvcbuv3OP3X7DJhtHtVvKYqDEHKvhtKFOXcJl1VCUFyP0xzk551VMHmMm2ib/RlEjfM7kjwkjBSIFLhMKRAC9BF7kVRs32qYN43bk6FEkSwAtWdOppsthvAAVyyIAT8C2VGw8s4PtLEth5EA3X7IWzhkeeeaYPfPcYbtm65h96oFb7K5btvoymAruAUtWo8Qcc6tFVLcFgJX1pIkPXtCUJ3NIpKozQuiZlI4xkQKRApczBSKAXgJvd92Y2ca1gxgQ1bEj0nwokCXAdOAKECqV6rmAp7qb77Qd9Dod8iBlziNRamnMc2+etjeOP2LfemLM7rzjBrvvti1249omoJ23Yic4stccaAc3ukEGRTJGKi36nUqOIVIgUiBS4MqhQATQS+Bdawr0mu3r7OlnM1Y/zRxotxxazY4r8m0bFKzv3hFBaxo0tZkFMLOoYru5PFJl29qoYYFJLHeLVqs1beLAlL1+/Hl75sU37YFb19lt115r28ayhuMjd8CgWrV9mhTJuW4pbPwSl5WmJI7nSIFIgSuEAnEd6CXwoluIe6+8PWf/8o+/aq+82WDOcT3WuJIB5UReAArCaqLStzBTfF8Qego1deLocp1D8tTRwZsRAq21EGYlWXoRqHYz7keXcjBYqrB29IYdG+3zn7zd9mzD2Kgyb2sqWWZAAWHt/tLEeb3WlMahmNM4/kQKRApcORSIAHoJvGu5tD0137KHHn3O/t2XH7FmZieAR2SWhZ7IgoYUGOZABaY/H0CVvgv4dWUohMGQtkLrukMGLvGbm2WuM8NylnamwgznIAA7aQODs3bL3vX2C/dca5+6dbutqdesjFWum+WKhqVB/cYQKRApEClwxVAgyg2XwKvOIeCNDGZs1zXrbd26UTt2Cs9D3m796gA0zyZ9vkvf2jhhaGPVq3WfWkeaBTRziJ+6D7vDClTb7rGo3EFlXC7ZbKNtT7w4ba+++VN79McH7Qv33Wa37xy19YOocrvzssmNIVIgUiBS4IqiQATQS+F1t1hWUmrbxg2jtmvXNXZiEkcKIF0X0AzODwShssY9x5CRC8AawKl1n6zqBEAzqQ6WQjo4VegAshlUxOV825oIuqO5ojXR9c4ApE/PHrN3Tj5ie3ass/vvvslu2j5su1mWes71n2MzY7JIgUiBSIHVTIHcPyOs5gbGtkEBnCRIZZtFFB2orLOnntxnjQ7mQ3g10Jymgm+i7Zf6kRqXc3jEObnwk+IBRwdfPZIMqjiVFbY7w8ERc6yKohw5redZlvrybv3LtCea26nqnB2ZqDI3e8pOt4bckUORXWGwR8JqV6rkBsCss1qTtRblSVbm5MGB330aUYdbFKcPNBSQn1/JtGnq5Fk8RQpECkQKrCIKRAl0Fb2Md2tKE7dCkhDHix27Z/eo7VzftX1HO9ZkLlPq2BxzoVkQqpNljahwpw8/U4BV2SkcaX5TDhkUIYgTmIJ2ZAuKYaXLy6KIOuVnty0A5r+ey8OR1p128LdbxT3g63PT9s6Jn9jjG0bsHzxwhz2wd9g2V7o2UgB4VTrLY7Q7acvLwhmDV0i0gyyqYkpzsOyBqCpQoqQTXMUQKRApECmwGikQjYhW41tZ0ib5ns1iEStZsTqXsz//zj776jefshO1LAZFeZf4iixNcT+5AjtNZHLmqiehqkg9EmAJG7vyyZeEEC0HfgsRIXe4lw/eNCivpFNQ2+G2jbtALYXpFnG3MJSz267ZYr9+x1777PWjVizNYoAEuGOwlG2w03cqgoLfHfAb0yXAtQm8tmW2RKO0wDSZTVUdOmKIFIgUiBRYpRSIALpKX0x/s3x+U+jGWhOmIO21kx373/7g3+P0QH5x11oH6bOEV/cOKlMHt/MEoA60VJsCaIpnXZatqE0C4ZAG4yOcPNSb+EgaG7MhdvLes2Xc/slHbrFb1jJ/OiCJkolUdpMBKRkNYAWMBCw8zQnrXZWrYUKOLmrDcLkN1F0MkQKRApECq5cCUYW7et9Nr2U+l6iJSUKB0+ZNWbv11m124tFXrdpgvjDDFmedOZBIKJvCnCf/wD8OkBTpRas0Lz7IqmmczpkW60GRhpvTLZueq2NoNGnHpp+1B65Za7+0d5NdvyFn5bLc/gUxNIMImheu6mDXGEm0svxVBCWd515QbAyRApECkQLnmQIRQM8zQS90ccKvUq5tH3vgVnvx5SP22kGsadkjVP7dM6latk/l2mvPMnFVAOpZ+QmwmdyrYCTdLAkyAGAb/34FkLREXGtunm3Umnag2bTjp07Y/iNH7DP37rYbrh6wrUMdG0a+ROO7oNIFO5tuzKRZV+ZZ21qfyqdJXAyRApECkQKrlQIRQFfrm1nUrj4g4VImObu2rrXbb9ptB19/xjqdYbSi7JWCxwVX9y4FUAdBh8FFpZ7LTToXGoA0lNEDUupRjLZRa7Nfab4zj1qXOU+cM4wQ152s2Uy9aI+xDub5kzX78M7d9msf32rXjhi+lFDTdlHWsmSmjkq3gdQpyTOvkUCD+KLMec+lhTFNpECkQKTAxaFABNCLQ/f3WasjYBD9sFDV7ifDxYLdcv0Oe3Lzq+zvOcmcIkY6UoOe56DlMQJPhfSs61R9q+tct2mDzVmbGCxYE/+6+XbBKprvzDVsBBVzayJn8xg//X/1CfvZ4aP22Xuus8/uHbEbh/n8mqetpKUy2TLmRKw1ZR1MoRwXlYquMUQKRAqsbgpEI6LV/X5C63oin+YIOXB80OJ4+6TZF//iu/ath5/DJe2GoPZEjZsa/SizZ3X8TVBQcVyekxWuZ0kMhZbkUdmSP0MSGTNNW741SH1D1pBEmccqFwmz2NZ6UCRUbaGWw3hofNjGyy3buz5vX7j3ertv5xobZu4zD/h3WCNTp0CZEwGhDBRiiBSIFIgUWL0UiAC6et9Nr2WJUS33bKgtSOwAL5xOs4zyuYNV+7/+1ZftyKR827IzCkB03gCU2lSWQFirS7Sm1K18uVfQs1RC1XrUYhsn8yRsY6XblDDs6Arg80zOEWQaNJcbtPxAycqVjI2P5OzDe662T9+43W4Yzdhamd7iMKJNoVLoBmcKqimGSIFIgUiB1UeBOMhffe/kPVokRAKZOMnJDy5qbfOGQbv15mtt+scHrYbRjmnDawc9ufZLZESJnMTJwtXVsLpUIb0QQNJv02eLH/eldOzu3XvRSMP55oi1cpr/rOOEoW4FxMg27v8aSJXa6UXVa7nKEPObc7R9ii3ZJoh5+5k37KW3j9k/vHePfXjLiG0rZqzAvKi66eiMdCqnC3IsKGcSMlpyRNepX4/ca1G44HESFq7SmHiOFIgUiBQ4HxSIEuj5oOIFL0OqW629DA7w5KO2izSKcz+rzlfshQOz9oeSQqeQ/HIVy5TwFMTuKm6WI1+3bo1DfnZfaQucHJ3k/zaoZ/ubL9WuQ44DrkAqPF0Ul2YgTUjWV05AyjRFAtzprcrGMxGA2KAtDcCyPcx+afmsrRvK2707N9lv33uN3crGLgNqZh4ULtDPrPpa4N+QFbT/mpa+cAp9UdmLQVJ36RH6qjQxRApECkQKnF8KRAn0/NLzgpbm85leg29lDaDkbLCctet3Y5Czd5fNPn/EJnCvJ+fwQeQDSMmk1CFIrBP6XLyQw6NSgTYxRWr5+Y7NY7nb0m4vNOknL71qbx3cb5/72Ifsl3cO2RgDgQagWeIYkHcFgSZLeFp4Xyhyk9PaWLomCXWBNhevb7HmSIFIgSuLAuKoMax6CiyGB80NhkUfgBBtH0SV+4kH77Dx8QHLE9Fi2UiHycqO61dls7ugok3ky4vTY1SuLXlMQvrMoYMug+VDeFEqAqSNWRwwNIr2ei1nX/rhC/a/P/JT+7tTTZsHOB08hfsCS3qOW3skUr9RBFeiyOIjHTJ4AiXy4+J0O9YaKRApcHlSIEqgl8R7TQEgwIKm/rodGQvhSJ45wmImZ3t2r7ddOzbacdZetmp1vObJsbzSC3AEMonk6aB6cTqtdjQQP9uIxZojLQDy+bZczWt/0hygiITJ3OjRKbMTrZadmHrZTt6w3T6+qWxbxuTpCEtdh8swcAhO5wWkC3AZekZNrlt2h4MedVEHDqFR8TdSIFLgMqNABNBL4oUKIBaDhM9rIsVlANACYLF2JGsf/chtduDgUZuvzwGg7OnJWsws6zI9pxvcJHuGAjhnYI7o0Kuid9FHnTPjQsyZ8X2ZkkvSeLIuc59yei95EYlRJr30QWrdouyGQNAW/nSzlQrtH7OXqjU7duIpO3DNsP3ju2+2zaMVG8BSV8a6vanc/sqE0AoCTx81hIhedHgafyMFIgUiBc4LBaIK97yQ8UIX4uizuBI31tH4R6pL5hWZLdx77ajdffv1WLHW2Qgbx+zNBkCEwRGSqqQ17X2iJTE6zghUIVDzJTBLqnv3uHOU67w8lZ0FKJEkmbvssNylSR9aIGE3hzkUm3wX2nM4YMCKd6Zq+dkZK9QLdmpuzP70YN3+2+8+aV9/8R2rMVlaoDtzOGnAATBTukG2XtSntH/Jzi66TaPO6HeMiBSIFIgUWCYFIoAuk3Arms2BIMxjCggkuIF1yY9eoYCsa2sGzO66aZttWTeMVFfHwIh1oR2cHODpR2sxBSMCQwdEZV/hICF4iE1ZBvGWUGxh2oSxk/Ya7UiczOBwAeDXkc0AovOToOQk+5yyvrQ5agdPle3/fuqg/U+PvmwPsxdqCReBBvC2EFu1WXeLsiNIrvALjdVFClzhFIgAekl8AI6WtFRSJBIb5x6AyuIWoxr8/lgF69Trto3a/ffeZiVAyfcQlcq0LaMiAVQyJ5gWt+J9l3citUvN59PTxt5suC1PRRoASJbMgLIaL+CLAZXuvGVr02YcOdwDzswP2hOHG/YHjzxn/2bfYXsLg6M5ypDnIhnkar2phgmBNiveuVhhpECkwBVGgQigl8ILl2jloCN4aHHpkLEAFJrTBETzqHHXDWfsY/fdaVdtXA8wYe3qaNWxVquBgY4WV15cOa2Za7FWlfZg4NRh+7OMNtv2rc1oPyiYZUAgC2M5ScjgYzcP+GeqAGh11vJshlqrdexVtkz7D0+/Zv/mmaP23MmGVZva1BsAVe/OMjg4SxQpY4gUiBSIFPhgFIgA+sHot6K5BQTJjB8w6Ii6AKJqCQY5JTbZXD9mGBTdYcNDqDmZ+8wyH9rF8rXNFmOgEjldTlucV9mXgTQOx+eYT+XXmcBscDSRljvS6dKjbCePhMmhM4dAtAv4M2VqXXSzxRZGR9XTqHKnrdyuWm6+bZPzI/blfdP2/zz6nD395hGbAj1lxaue9c+HSrZVbKCbHvYdfsN9DFBgEWEW3fk79hT+1Z3xbHHOlJj9sWkJ6TOdw3P96p1Jt9L/L30ezkr/7uHMmkKJi8tIUqVGAP0fybsXfda+vnvyhd6o7vDvLD3wpugnhKRlvbrS+MURaare08Xd64uOlytHgeiJaOVofZ5q0h/S2RGrwaMMUmYhM2UnZ8r2P/6Lh+zFd+as0S3h1AcdJwDaLdawwsHdXxaPRV4Oy1y8OP2oAJ3DIQYgwA1xC83XHKr84vY3o985fS+9F6MfBZ0pSxJxLyNxvtRGcSF4ubp0cOUEiuppm3Qt6XUrZcsMDVqbQUGTNBkWvm4sZezTO8fsn354q40jh+aVh/TaVlRdbWdOI9Mi2XZwcaTCGGiEtnBSOmRetc6bxrnXPF1fEQF6oOL3EYveLbRi2OXApu6n6nXRTLQS9aAW/wKp0lG4yCo66tPI4gkr6AT6UjloKQXB3wGDHujP5AL/VCoaE689+M7y71NTFPpA/T2F8j1/qMkvlVNH+mXljW+coGmC9Bt3wwF/90rIBUV28wXP44n7fpSsP2hgphAoo5XIBMqAeSbfZ+hTBkM49Tldq+w0ZD4iw6GJlpBPeTmkM1Eb2H1IlFL71ValYWwZPn9FKvjfIOXyUO9G6WQXuKTTnjT+rCwFIoCuLL0vaG1SYYa/tSqMacD++kdv23/4qx/ZkZN4J8Kfj2FY1OzUAJ0CLnMrzDMCNHJVJGBycU9/uWIG4Th/ABoYjHMO5yJ9ZIAxpsH5Sg+YkxWfahdBS19aPGsVYLEyjqrQH7Z0E/yxiZoNFTt2/doB+937brOb2W90LRwrm5sHPDXvKrasQQMMSpUEbuXdlEGWblWL16TnC03i5goJSb+DdmJB1Z+wdF5dQpQu4KR35PcJ1fwbIk4fX0AH6F7s8fclJHeCKqdKzKdqAy8qpHQfx/o2eS4QSoPS6/AYB2C9OaVS6H/KNf/1JD2Usj8oNcqaEHTjgdQsCwtfhB4m5be0eQO1+nQIabiUd2ZJzSGEAuSrWVlwlhWyJk8d7aisgyFfkwQ+SQH9OtBRTjnTZqhfAukCz/TPi++wRppi0cfwDyDmWxbAKnQxoMPViLejbHz0Maw4BbQOIobLhALYtDIw5k8ww7ZiMLM7926xp5/ZaDPTR22GfTm78qHXYksx/fGyTjS1yA1/jykzSImx9D6NX6mzmBJMg2bQXD+LwWRxvNCuN1gGw6wvzzL4y23lM3ayO2DTJzJWfXiffWbPBvvEzmG7Goe6mldttwDaQpBxHJ9VEEHgmUKFGFfgWHqSJNDlFRDUc1kyi+KSKx26JKU5TRZOXEE0TL2XBu2201sqFYzcNI+dA3TSUvQOvUjy+ntUZQJBRfpDIni3GuRI66DWKK+Czi7BpUjjkMONi2E8dOBWgcqDhKZ0ZFKM/3ChEkN5GhYmBeG8oxd6iUPdvYxpQV68CgrfkZfFj2TcVHPhXVE9FOtFhwq9cvl/9n9oiGabBZvH0YlbjlOkui86SLbPc1NmRyW8WFqZ+DySvLx2dR3YlYbIZFApuwdjYLxAqV5v4sUKUSAC6AoRekWqQcKUpCmVkMBx65qcfezOa+3VV49ZFcCsAxe5XBm+xZ8yy1tktpqTowX9ETt70V+yQvKXn96GyBX9lWWuB51ojk5ix3lQL8PSlrasiuGDnSEYEX3odEpI3UV7dnLKpp59xY5Oj9qv3bjTtg2UDaHV+6gyklK96PRnIT7leOmTK+OsXgtSUuhwk2ZF6kiJI5DiWnoBRWu/dBxesZlB2/B9gctFZCHWHTdYMtVBIi22saDmHSqtGL5U6rKwBhushOagggYhzyYCZQCijHKglMeYTKij+siktgiYdPbgBaU3xHq79BOaGWa5e/JymtCxtQcwDrThkYpL5+DTxKEKhyiiaAtBcfK9LNiU5Ji2q8O8vAZf2llojr8lFoshDRZtngyz/K1VuZ8jt1TeXQYSbijHKKVRnbej+Kc8xnxLHYcnAlXV0nXr9C7rt/M2OjhsYyMVGymbDQOSw9DymjFkTGiV6UD0gqR7tY/lYBjheQikCNfxd8UoEAF0xUi9UhVh4cofl15sGZC554ZN9vp9e+1L336SP+gSDAw2wB+b/OS2YHgKOaxhnSE5uwiMwx+c7edC/6H2lZ9ehjOjb4Gq1IX8F3PtzqOSZvcZY9u0AgyoW2zYPJOer2KVO/nyhB063rLfe+BW27XGXMHlQwvyOUDQYddcq0iivA6Vr8Nvztb5yzMugEMDVq+1uXwLTuekryIJqCFVIzu12ixEayA9zeC7eP/+d+zl/YdtYrptJ07O2eTUnNXmsIhmYNZkja6kLv/Y9MExSssDnOVy0UZGR2z9hvU2xFz2+OCs7d4+ZNft2mKDVF2hLkleFeqrSOrCmMwlVebs53kxejUOYvzqrPvQfklnuiZ9ptpL5UAokVD+q+iXwxWZ1EV6Qbw+CD3XAZJzVowfJJaUeBoA1eCtxLdXYg2zli1r4/d38OG8b/KYHZidsFOAXL293k7PF+w43j6O1eftNPnrLNNqd4rQtQzYlbFFQPqszNkchwdXiahfALeuoXL25ITuGN8yuGWwu7dZtf/1k7vsnpKkegDU2632alqGfqlT+oOPYcUpEOdAV5zkF7BCNwSBeWWY46QazcV0saR54vVT9gdf/oG9dox5RBzNCzjE0CSJtnmeKwCsMqhAjRT+iJWAvPw9617MROn15+1Bf+h+k575G9Z9fxpulV9xSWLF9IkU3CqIuaYhKdfr4ydkX3guOUDlydAobVuTubZ2CcaHK8PuIFJBBpjMlJn/ZPuz9qztqdTtN++8wT569bCtL86zLEblivmoLLWHvqaqPK+YR6H7aasu/7P6zbfg70eaCX8Pml3GUAuRUcOsKo8PHanZK/tr9sQTP7VDh96xOvOXDXwyyw9WG5TVTHtb0iYE1DxdNimnqzhoLc2jDpFckqjOLS4yqODLbG03yDz2Tddtsxt2rLNt68t23fZxG0RvIi9bMp3JceWaEtrial7/CPJet3eBV6q1wPQgfP/pme/a5w3bpFIDFDjNg4Saxwxyq77v5Fvnscqbrc7ZkSNHbV97m00CZodOz9nL77xjR2Zr5EUK1CGf1Fp+xR9Ah+mEtv6hcm1LZUsd7DGPShflLN+5asvQ6QLtyQPGqrmbRXvC32vXD1CQe6mhBeSZIhI60xC3s8n8f3fniN3J42IL4C2wrtvTlKg3AijEumghAuhFI/0FqFjSGaN2gZkkCZ82wTLw2FzTvvHjI/b/fu1Jq8MomxxdjW5J12HeScwiizVgDjWaAyZ/4JRAJEfKVEisOw/OGHVFTBJ5/gBUTEz1h6L7ag2xKVPWc64liXb4qVeQHEaGrF0ZtjoSqRh5iUnS4fqk7RjI2gM7xu0zN22yrajGBmHAeQGGwIINvwOAJoxVFfdd6vayD5ACnApSTLYBw28gB7HcyMq4Uszaqwdn7OEf/MzefnvCZidnbX6+aQ1XowOM2RK0hvZ8Tx20GwIo/3r8exFtARbiHUD1rfCu9IalztW5mZdeAGmSe833aXs+7S40hGJhbLhgW7est717rrPt64q2ZahtA6gvXUbk3eX9/VOogNQ/QH0LGkCGT1evNihaNZLUN6/ZT5dRGSxK/VmymXrHTlTrNsFgYBpp8fm3jthbk1Wb4r6G5Dpdw4odtalUsRoszKOGbTJIawKaXb4z9Vvfj3qTx8AqC3AKJB0wve+6Vv/5qDRiIE573Q5DCg0aBsg+yKhuDWL3uqGCreU7Hh8o2EilyPebd4l8HdmuZup5jD9o74/KT0ROff8e6GsMK0+BCKArT/MLV6P/MWl4LnDgL1MBF3k15qWOnK7Yv/ijb9uLbxy3KkxAAMNDT9IRc+Eqh9SmOVEPepSk8WL5w+/9jXIdbtJzwr/605BdfE0MI62HGHG0xeEMCXQBQJUwSMSeM+TzKlVmeOaLAAD8BoysMThkTdSDbdSEYpasbkEKByQxctlUbNqHNlfsgdtutL1rzdaTf5B+M6HKFY2S6lKhv7kh5vL/FYBKzAT/WpChDk2mGnU7+M6kPfPsIXv6yYN2AnV4rQroSI7SB8G3kQEYwAJX8epdS9UrqV6076IFcEkKZt8FYHxQp2+BNFKk+mdBCqYSASIGcx5LEygzfGnIsTwrFJkTXLPG1o8XbPeOERsfGUQ6HbP1Q1kbRfGwBrAFZ5HqQDzU+CAjFRCRvMcuhUhZOoUR3TSTtbM08tQsg8qJWWvURmx6ds4Onzxlp2pSuWZsgnSnKWaev4Wm5tZpe6UzTbPVae0bpLIlfQKK6pvar77zN6d5TsnJWVAtyzdXKmStgnQ9yDGMFDpWKjGvWeZM23UAlHK/Oc5gYRS6D1PWMHkHkIzLiMwuNfNuunI8AqUzSKfyI+1zxbRGNMUtCS2jLqlzY1hxCkQAXXGSX7gKna/pRwfBVUhySMAfN4ar9vCzJ+2Pv/KYHZ7CybwYDOlc4uRahh9a0pJjDtFBNHA4EgTWIY6nLB70zG/S8/kHUO+CFx/qSLulatVmndUIrTd05suAwZneMNxoEPUtat2MrDpLg1ZDPZ1p1QDNeduKmvf3PnWb7cXqfxOFDDPACASDg/lcmRerwq+cAOh0GGi0oBP7sdtJHPa/eOCoff1vv2+H3p62VgMVP8pUa6OhYMAjVb+MXzKIeNIWuIWoJgaTQ2DSzgwQL7AJABrWDQO6/uKCBKqX2GWeoQvYSBVqqEQzSLRacqR9Aoz2eAaASirRDBqFIu978/oRgIdBEQh62w3b7JqrRh1Ac92GQ5xkVKmTm9RdBwgFms8eOGz73zllJ+e6Nl3v2sRMA0AdAugASf4J9F2dQf/ksQvc5J4G8r8E8Gqw0NJBB7oYP2U5JMvm6XOR9hcAvlwWH9QM5KT5WIMTk23jg7aDPXq3ApKb+Lw20MVxcI7xHX9jFE8VIofONCH8PeraP37OahMAqSXcgknNURcY6KVSZxdtAbP+aj1zxqPKGcMKUyAC6AoT/EJWpwUEGr/zd+1/lU0xJv7s8khaOf7Qplnq8c//7XP2yDMHMKXXom/+Vn3ELkbI33Cizi0yJ5rRX7jKEsNQwh5ohWv/y/fnengmgLr0qQfOMcUmFCjJuUW48993kUBDnWoB9ZO9Vx6ZHEBdetTTwKC1lEVzTDkNAkow4mFUuYNlq8EJszDmVpZ5JupagzejHd1J+9ztO+yXbt5qm5m3klTl5aAWkypuaRP7WntZXkpZ27DjMOlxe/2o2Te/s88efvglq9YYiOQG0XRj3Y0as4BINIcrRjmvyAhhBJAwdO2s4y8WwIJ8BN5Zvga9AVWPkwSqb0nPdRaAciKl4iWhZpD29I61PMmlWL5d9Oy8UeoDMTIshizw/WruU2Bq2m2I4lqU1ZaoWsSqt8JzrROmjC4Gcl3m++VNAybn+Vj8TB1IkQyUOoB/qzzrA0f1RZKjwE/nLqJd1q8pl6+hLUmU9G2+MQRA+iV725aNQo+rsPLejtbjqtFhjNUmbdtY1zYOj9k41u4M5RhTIBnTC4p1EJS1rm60zEdBNQuKQ1j49vT9q5t8mn7RZeAgiVMq4xw08Gd67gk5h+K4iGElKRABdCWpfYHrSv+W0j8q3euAS3CBcQN/fK+iwv3Drz5hj7+GQ4WsrBCBXawDGds7wHQzczAr5qNwxJDLDfBHy/iWQuR0QUxPEof+3lWuy4HJ377+uD04Z+QmvVek4vxMPh9VK6ovAdfezr6oXp6Q08tLvRR5siS/l+fXSAVinFyLoXbxWNQdHrQmYNpCldaGAWl+qoDRRRGQXVvs2m2bh+z37r3abof5ZOWjN193S0/JWzmsG9W/YJQi05A551HOFhtwQzE2lhks6mfa1tVy1ovjYBqT5jInTLu0kTmcXNpIVJTcsPONJJgJG7L9Byftb//yMdv3whGrz2u5k2hAgG4anuidyYexVJfh/em9kUL01jvwQyeBouY++e7E6YVDihOK0KSsypCUB8DKEMetTQGFdKDkXq1I0/FywzuVBbbWlQqE20iCeqZ5xgAqoQ2SGPWO897B0Da1T/OPng7g9zw0wrUzAKM2aZetQJ6/DUl4CnrWFWB6+R0bQEvh6lbMhDcO523nmopdv2nMtg0XbR1rqwfR8pT5rrOoaXM6KDMAo0rzL1sXXPlfD1f+l+Nxi6+TqP5Tmj35u1F//J0oTfpM171I3cSwUhSI45aVovQK1NP7G0ou/CQmmjCvLFLb1ZuG7MN3XWsHTr5o0zMYcQgh+KN3tRUshB07+btkxoWRc6c7h6oKJkr+8OfPycvq/8vlSVLf4i4uiUzKWJwm3HlpS5KfkU7dUORZ0zmbDBovEojXtNBZd5FSckgkUk+LqWVhwJJg5mCyR5FMnjg+YfXH5uwf33yt3bIuD4Tk6L3W0mKZDEOVuKGyZBSC/MNTb2kY7YvXnrUtZ7T84kWofRxi5r3gYMYdXZFXmzoGMdM46X/6wAl76K//zt56Y8rmagIBSZfKH8BT5zCAQUpLX7gXK1CQKJRUpqL1jUBnIacUj6EcnhMnIEulTi9ez5XHf71AL19rJ1WPA4Z/cxoEkZZDccohyRKc8wGejITUDM1Z1jND+kxJJdAn0sFHuhiQkm9Bz2Snnm/ynVOeVLMaYLVRJ0sbsQZQXMcc5RYMzrauW2Pb146iMi7a2ECG+UsMviENy499njLv9NF3pQ6c7aPwB0nv+sDPY87hp5c9XPRulXXRzTmUFZOcdwpEAD3vJF29BQoISxgy3H3LNfbT147Yk89MwDgGWAgP+0JaELvK4pBAKrmOzw2i5oXjaYmL/7HqD1aHcztJBurravgrTtrASVfil5onasyzmB/ps4A0LZYpy+Su1rFwNOjvCZjuTyZmbOZn++1X9+6yD23E6rPEEhj3pSrpjP+AaN4njOGc8EepD9tSTfJQTDipmfvVFwRrelXFBPAEXm36nS0CLBo4QY/pWt5efOu0fePPf2QHX52wZkOGMBUGUEhzsmKReCYQ8pIWeqtyPSxEpTF+dkMiUYc6HPT4xjquhkQtK/VvFgkXK9gcSzS0EEb0DMBIFkejULD/UpnitKxGjwSKfKFE6oG+Q9Uj0FZqlRNCkDyVQTH0hzTIrK6p0PrKbJYFOCBwBXAcqhRsbDBnG4fKtnPtsO0eH7atzKevZWEqYyskVJWpckSL0F79bUAkTt4a2qRaYriSKBAB9Ap42208o+SY09TckM7b1uXs13/pDhjmYXtnVssItEVaEz4Jg0B9KylNBiIdmGe7RTyqLM2Jiv0EBpGyKO4uOsegAYE/9hinWil1rrCyjbscMdIc/nPbMhiBacpKsgvjk+eiE/TtJ9MNm31mn9X2XGu/vL1iG6S6xmpXjFIqQXTAoQ74vti91nxg5kItAuaLToB3/YIDu+edC++5ofsY1mCOwhxeHhX1HFOEr741Z3/2Vz+y1148CWgyeMB61mVWFwzD/J1kzCBiLYBTWqnq8CAypIciHLQ4S5LEwCuDYwUBloyG2nxXHTkY4FlXhluAuoOfXmUCgipCjU6LkdQqaTHH+xAI8mYDiJJGeXw5CU/yGBJVcGqgOe+mLGk5tzkU8hQmCRPhEjfKlDLYsKtGBuy2rRvsjqvW2HWIlpsxMpOtrURbGQyJAu6cPrXwVYd1iJik5CJgqvruNOMcwxVDgQigV8CrluTZ8RF3+Asfzjfsuo15+5XPfMT+5G8eZ10fHAEmo/1Dpb7sAjA+98ldDoBpYkTiW44hiQqAFSTUBHYqbtLPOf3xRf6R4lCuvWkhajpj4XsLqac1KsmaOTImuUpYoGg/0kY5b1Wk1Jfrs/anP33Jpqa32+/ctg51boE5Q9inJHG2X5PXFwltYpkohvmVFLK6Q+DpfVxdAyj6L0OWBvN/h9mr/Fvf/6m9zJxnoc2cN98ASRKspM+p9Mn3IyDEeug9O6wvQUH1imIKOQ1kALUczu2Ghrs2shYfQwxejh2f4bvDa5GMesihPLTO84SfEKOSdOVBgxkvOZzlik+DPc16CiQl2Wo5S6mDGTEDAa0vDW8MEOSbrrRruLes2A1bNth1AOat24ts/ZcHVAWSYUqbIRaDL8qn3ZorL2JYN10c8HcvdbHSSWLWjKm0HKpB7fMj/VPgPoYrgwLRiOjKeM8ufYa5TDqsheEwhzfrZfs//vU37JW3ajZTkwJNai1WzWGiD29DOyVPJ5I/AFSkWPfugwo4BCBKjFUHOcV4/drjlELxSfAk+pG0QEIunWV63r40fXkSrWNagte1KC7J63FpeZ7aK/O2SGpxgxDOzQrXLCmw8pCsZ3ATRz86+HEttqxaRjqCaQ4DqhthyLdvGbLfveNqux7OWs7WXGpro9Ysy+uLpDmq6GAhqhnjVR2kUeDFSCXPNC7XAANSYJ13cHQ+b1/800fsx4+9YXOn5SKOZ/RdwwOJfRmkQi1LCTQXsAlmAFgMj3rvQe9AhjY8EU0WpEiuMdjRfGOFissMQu6/d6997MEbbZjlQ0o/wQau3/3Wj+ynB6dtEglfX5+A1eGSMnvv1SVO8lBOm7l6nqSfnNen9ZgaCHUEoEiFWoolkPNxHm7viki+40iVOzYM20f27rAbNw3bBroywtrKCoZkeeoKQR+wDoJ/W/7X4DEihT5bD2ly72/IkeYUldLHSep4uswpoG8thiuAAj3wVF/hTjk4wgZc8vyjX77X/uQrj1oTv7LaT1SWk228vOS0fEFgwTBb/ER7Gso1dpOlAVonKmtDPRDzSJmGzoHPpDFEvJ+wzGyLGpG0QNWqdZIS5HWmgN+59rSW7rDOMF/2ed8cc3xZpMwCjibEducB1SP0c+rolM0/2cYZ/dV2Cx69x+grQmroqLgkZWaEzIpb1QGC4sy1zVhBUmeBObsMgwDc1dr3HnvOnnr2gM1VMaZh4NDNYX2tuUkH0PRFCOocsvyMYpyu61lQm/a/+B6o8tTzoJrNIcEOVrp290277Vc/daNdhQMLHOzgK5c2Deds3advsbnvvmxPHpigdXj6kTMEAWFSRiC4iKxaWaLEYED1SFLVm9Pylzb1BIMlHvggD2mUdzmAufGW0YrdsmOT3Xb1KHOaRds0XLJhBj6Ca395eofJgMg1Dai3Q59UfmiHUoK1/s7DM718xaZSM5dcKybE6j6GK4UCEUCvlDfd308xStCxwuq/O69dZwfuuMb+498/Z6fqwImeuQUqjMNH4gk7k1QAh5AkKoahI4tKVyo0X0vqcf2VrMx1wssWVebMPBEZdFJrcwBJbpb5NyTszugATgMk0SBVk0BzpWKoYsoNpJg6y3p+cPQUC+6r9lu37rEPD5exzERw5a9FbuL0R4PgegkAKG10qRIpVIMf1KV1zXseqtu3vvWUzUwh77FKX5DTkroWSul9BlpwcsqJegoCL74FbgUUvZA+1gNd883os+nKghlpdxDJ/4H79tiWdViuSpRrNZx+TIrari0lu3nvdnvp8KxV53AVz2OBot6DF5KUp7oCjGvBTXguqVPXGhhKiZttUy7ZSgx2xjD+2bN9vT1w4xa7CZdTW8rAYfM0H4E+BpY1QQf1VjK1qvBAPAk49L0LsFW66iMFa1pDvFIH+iitt5P7NLZXFqliuDIoEAH0ynjPi3qpEXuXkX4OSXNjqWu/+JHr7M3jJ/BU9BaS2SDAKaaqeSvtv4G0wPypM1byiWFpKzTNqea5z2liKOhvF9WxUjdiWilD97Oak1SeMjSdsxitZPGk08UheKcAM0U6adJ2OSgvokJ0Z+AwWFmKYnlipysj9sTpmlWffNnqN+21T14lRq0gBstVuPGYVfsjWmg8xJKdPGKU5O+3Tnftaw/90CaO8WyOXWxQeWZRsap3mjVm01gHMdFMS0kCaIqi9Fu0ea8g5FRGfuT0r9uZZ8eVvF29jZ1ItACVdvhcKlSX4VC21Lat29bbKMtFZqtTqJkBNxnroK5N32VSYFIm2QVcDp6a4abVzNsXUNWW6d0wprLXbRmzz35oq+3duY7tv5B4+U69XqnsAU4NEOX2N4yZmpSm2UzKUYSIpcMxEujMsFaactFR0HuP5FfGdJ7Dz7o644OjqBiuDApEAL0y3vOiXsoYRpJJlo19szC17RtK9uCDN9lzhyesemo0SJkYfvgie5iVGFXgEmKisAwOqUWb+EvtIMXlcfCtFBcrJMImjDXhZd4/WuNcmB8StFDddjAsyXVQVc5OWaaEmjqPS+9uhWlB9RH1HY4UxEnzeL2pNMrMFRbtefr4L1/4mR2a32y/s22jrZEUVWjgkYcdRACJQJuL1fP3rlfvmZ3HXFpuN5u4ruvYEy+/ZU++8Jp1awMY22gAMYfbPPU7LPUJchmZCF1fyoTk6eCJNbZLqTKjWvK2AU4NrJzcnlMpwnfTBkQzOKfHWzFPYDfQVOnqzF3OE9dEbdttY6QGcPqyGQGoAFJg7KCl98elVylgdWUuZ0EX1uXsQFRszyDNrrGP3nur3b93yHblT9B4DIlwPyjg61AnuOlFFJjrLbDBAtZljAkEqpRPW5pMmjqokktMURtbWwv3hZ1B30821M+DpUHt8o77D+V5Q5emiveXKQUigF6mL/a9uiUrQrFF7aMpVRSbldhdbB316/dfb1/+y2dsFr+addbpyZdozi1zVZpyiEnCkGTCT3YxMPZBwdUbRjg5jHPESL1iqftIIslUEenBvUbvIcITvvePF8YP/wN7CteeyZ8pvi8uKdnThgweo2bIXys+eSgLloov1NxplnJoSQUGRM2CVLlKios1EEfLXeQpR/PEMsA50Szb116Rw3Esl/FEfwNzwJUuUuw8DNhVu9q7RIvwYeotaEoX5SRdjuiKYtRIPgEMOJ2PAIY7QQAFuS/UjQya3MFB2m/6IxjMaufrbB1/wBV7jnWe3/7eS9aaqdgQKm1Zx7aQTNuFsucNXqLUXmjl9FBhkrhUEhG6FUD4kVxz8mc81z9/H8S0s7KExYK1mrdXDrRt9NohfMQKRE+TCsMi3PK124N26I3DGEnj75UBDv58sHZVXaozKY9vUOss2aoaabmKEwx87OY5AMISXpTGi7N2396t9ot37bGr15ZszEmNpZJeAkHdCO82XIdf3pHeiVtWeUcDrTxHkk7RTsCkkOTZWU9KqxDBM9DhCvqNAHoFvey0q+nfu2wofADOg/VYd3zqnpts/77j9pMDp6zO3Jhv1yQVGGDi8gUZJY2kc2GKl2wXNueuI4kGR/QujbhVZ6jJwRrmuyz+kjZWje+7TnHC4/riPZkzel31B9l3Cmxg34BiZx51YlWOFnD8xuSZrxXlmfygBukHCZX0ytVArXmUyc/vv3ECaa1hn9+zwW4aqODiTT1TZXKpgMQlEUZ8m/Zohk5B6kZBwXkPCQGSk9fmtSgirc4HLKhuWQ95+HTLfvj4Pjt5+DTu/NRebXgN/AJOASmSvvg8J4VQRgDDpENEqOi0PvVH1YR7XYVDvx5Ya6pnaMHt7x/dx1Zdd9iuTUX2/AzlVBlhvPLGnP3spbccQNsAmq/lBLnlYSgocdUmvRsK4ntyIyfUvGpXGWOgq4Yz9ou3XGe/eNMW28QaTm0LG9rDwCYJKdan96GdCdvrNTaF24VUfhW6tCTy3W77Cnu3JDH+sqNA7p8RLrtexQ79HAqIpUsFxj/+7p1PcCFnCeObdtizL77Ifo9460GylO9QR1lnTbAnIS6Hg1HKbHnm3otgcukyFe1WgZhAWq+F9NSHqswrS1unytMQGpHehfPSuKXplUpxfcX0Mi6Jc/+qxCW9dunYTUQAfYGoAyFgEiQvpUvdwMlYRKsDOVgTeHpq0o6cmrA1Wzbj7g1n5EijeQDZvRUBvqwOCXOKPvfGfBtSTqgztOy8/AaUcK6vS1HY60jj1XepmnlPHfS4UwDow08ctMf+7hmrnZxjfaMGCcxtyzCMPsvCmlEFpCSjA6oXynRleHeBxnqmeJ0XrgO9yE9cuoyFVL20bbZVOTUxYSenTlt+eNyqqNGP1HL23FtN+zPmYl87NuNuKTRE87rReLh5DuCe5Uj3DdWzhhzX46S9yG4nW8ay9g8f2MumAFfZtkGcu9OEsFtKUEJ7G+JPpMAFpkBcB3qBCby6i0+MQsSY4LfypzAHAHzlWy/aN773BHuI4kKdJR8Cy4wkAM4OnmKW/BOXFAN1SYUygtAJM/dlLkijrAV0n7IklTrX504FwGkQI06DLvvuPdWSuEXP06zKk16nZSliSZwGAgKELCCovTC0rlCSZ2uAXTzwddrCb67SyOuSuiYJTUV0Uee2MUDRPFoWIpWaM+zCUbddG8r2O/cP2535jbZ+XoMF1JZoBrX1FKYq5CewP6QXsqQtvWYu9yIlIeVK6FXxWq7jr0QvQRYxDG5kcFPHC9BzTAn+wR9+xU6+OWmlOgpZQFXbfAlwJI1LU9lGlSsYFo39nSbnAKjUkNDZaZRcCzC9KVK7im6KVzN0SYOkmZDHngCCczbAkpZShe+EuOlZzYoyR8l1R5oMjrzWeUrb4cSjZJXvBkV6V1hOs7SqwHznNXjS+s1P3W4PXldm/5gqjWdOM4tNudS75F2QP7058SdS4IJRINFlXLDyY8GrkQIps2WZgQfATwxYG1CLBX76ozfaO4cO2w+eft1BVRwtMEux2BRMYZDOQKVs03OYNoY1fo0U0UHycNBkAaXkGAVntn618ONxSb3vlmYh9Qe5EuTTds17yfIUnMmzHrHD+tc2nopyo0PeR/UJbkxjBbTMl0qKTgYOck7fKAzbBG7wZierNvXYQfsv9q6xj7HMZYxsOcrT0h+5kRNl87I0ZYNmQ8pNweWD9KCXV5I/QbT21qqJTkh+ZCkryZOIBs+PYx/0t19/wmZO8qfeBGBkRMV6R81rZuiHypB3Jg8qbPHFwm3vWZLkXU7CTA8MVOR4Q/5r2U6T6fYxjJgwKBK2E9/QMpfiIGtC5S4RWvHtZFiPK/KrK75MBYBP13hqvae8CV2DN6P/5nO32S2bc5qppzCc8xUG/T0VZfimZVY5bSQWQ6TAhaeAj/UufDWxhlVFAWe2alHK7ULrJInI7+f6ga59+gHmrFj5XsYIJidmKKMLLXGQpOnm/onqT9IruYTAUgtqfjScmR1lzV+jMe+OGYRJLt2l1TpQ6cblVx4m0oyiFGhaokD0Z1IvLm5teB4Sp79K4Rk9YqGbIa8GCSHoXiAK4AF63Sqg0pQSkQTU4x5tkIxkDaqUshDNQYcMh4yFGjD7GqrENyfH7EvPvmFfRw15JC1a0lTSJ0msosv5DypT9SwJ7vnChwmAZ8FO1jv28JMH7IWnDhjboAJQ8gcsi1P6zQBBS1jUP6lyFTRWCGWGXz3TP6cp5zA3HNL01917lUqp98SRpZ6kVAAThTjIKk+0+oZYBeVSrzXnOIvuGpShsuUs+ms+tAV96zIsQvrXdmcVNo/eUpy238aH883sTD0qi2nSa20rpmGkU20aCACgMUQKrBAFIoCuEKFXVTWBs8HQJD0CmymPhAHlkR7LsN/rt661z37yw+x/WOAeKQEQzcjQw0GUPNKV6XBWqHJgqVLP+iFGKCBlgT5GNw186TZZ6N6mbEkoYr7pIYapQ/fvGZxBLkmR9CON9W4siVt4loIBdTvQCzzovTAO8GzX2LoNqVkO9V3aRi2ZLuoXg8/SjxwSTlDtqm95pKc1tn++aH9+4G37xtFpOyLVqFTESFJZlmZIemrgDjEFnrQtH/zco56Te4GYgYp1BjWz6JJfPTRjDz/2vFUnMZbCzZSsdH2eUPOyJBWIylm+jMkU+t+NRzhBufJ35DF9Pwmh9e78OfeL3lGSOfkeZLEtaV6Dljxgqe9M0AeFEgCF9pSutyLps83TDlbivpUckvzW4bb9J/dfYx+5btBGSvpmOZD01eMeE1MceWOIFFgpCvS+vZWqMNazSigAtwruymBUCa9jHI+KjSUDAOMaPMjcdf0Wu//mnYz2WfIhpSTcKsP+oAIGMToPmttcxMYEpeGfuHQKonWkjSZzVVp+0B+k5g1svz/2/F+7ZadELIJjf9J8MXT5iu+gxs0YrcIAAABAAElEQVTM482Ge0mcns4HGPoTEfgGKVTOJ3JIlg68DB5qrCN9BRD96v4j9rVDU3aMec+WkAgpdR5AkeeiC9O/0IGkG+oVzUT6BFQE88emzH7wgxft1X1HEcpQ2KLaVR8EPFpwE1TVkv4CsKnJXpZ+HBRDu89ou4Olk8QBN2RanDYAsYBV6VRH2KRAEqZAWy75tJQqHYz0cmtgI5oDgvKLCwnRDDDnzPKXj+7dZJ+7ZYOxHwCDANx8MOcJDEv3wZ44rgMhH4DK8qsYIgVWigIRQFeK0qupHp+ICipAwZmOruZDfc0iu2WwxEBbP21dm7H//Av3sUh9yAbYQ9K0blBeiGBskuKcOaaMeWn/JNmoZLlPA23k4acBgNbrbDXFov5gVCQOKS6bBC9XZacR5/csEFXwPid1uRQKi89hddytzWNNK+kICILRqx1tpDXt5OJ7WJJOe0rmENnkuchwC5hDem3hhODVdsG+uP8t+9rLx+3VesGmACnBxgCVnf8/MhGor1TdMq+JHO2wpO1Lf/iT/fbk4/stOz/s76qbR9pjaUmWtkuV20Rt28wHYCugxg6qWorhn4Jb5PoV74NzoFwS4WkWJPo0Vuf03bV5r+A29xDA51xVlwZUoqW2GJMqOZyDxK86AuhKCZ3VQAXwHMvM4Bxhk3367utshEFdUcoPyvV3KAma4YK+S2kJFMdXHEOkwIpRoO+vcMXqjBVddApIwkqlLDEuMSQARGCGcUcWJuf7aeIibV25bb/165+1NWOV4HcBdZqDp+cXU5RBClIGXM2XQ7haNzBhL9eBSCjCsgnYWxujkRbLY3S0fc5uZYihFvl0pKuWYdFEiBH7fB3Nc88zOJzvzM0hhUpdG1ixVNxi+H6gVtQ8ntTYGeaBNW+XxwlDHjrlkZpO50fsa29P2hefP2VvTCIZUUSmM0HN55utqzc6+gK3gpAGEvTzL03ao489afOzbNuG4VCbwVEjW6Xt7GOKhiGHlKx53KbEaPIUNVfrRfLj575yl17yjShJGvqBNo3zM+lS4BWd/VtAc6H5zGa2RHsGWOKDZa2kRmgcjsCOgsoc13zspHLdVcP26bt22TpEzzprQLU7XUnTDO05XPjJMYMkVtTknJWbmfoYIgVWjAIRQFeM1KupIobxMC0xwnAlvsk9DMoj9FXAAKWorWTm7Obto/b5T3zIF6vncc2W5Znvtag5KKQ63aVhgbnCaJ2JipEqNtx38NzeQhJqdOfYMq2Kw4ZamBuFkXtZKs/LVCNogetbYcDEiRHzEGkZdqyzqwe5FndOQnoZ0kqiIRP/ddbSFTKTVWAfsglIBTyqMyeLWRkUIcIFaVWDhXDQacoJoKDMakOT5TpkA5RQA+PZp4V0d7xQsR9MTNuXXj5kP8Z5/bTcBQJqWickuJI/Wp2NeVJffgE9GVZ4fDqkUR90BHgL17rvBUAQBPIHdWigzdA7NERO8N882bK/eehHduId3OdpeQ0l5wH7HLuwaIDjgx3qy2ugJCtcAK2VGBGl5dP78M9px7V3XWcuCL22cOvXita13weaB/orWvSWohVakb8D3fTepM7FFwKAhxs/2uhznhmWtdCeLNqKfG7eKuwW9Jv3fchu2JCzITQg2CLhe1ktIMjIq+/rVZSaEUOkwEpSQH9hMVxxFAiwqZevK53lSccNMMIN12JHPOV+lIXrH799h913005bW4aRSmLBNVwdjp8BRHwBKKkXQsJNxYaROsREA3uDbbJGUQDaQq0nA6MmxjbN1hzSqKQJhxbKE1umDOXlUCMoibOYNM/Sw9l3j53784Uf5eeOQykE4kENG9qzUF4o0wFUhlJ14KwhQFVGzq7upl1eFj8OqIAW/ZD/VIGC8FyWyjnQuIWEegzAemJyFgvdl+0JpMBZ9h9tA15AZhJUHsTTek0yCwpUvEJoazj33y96KKQloSQ1AWQTWiJb2onpjH3z+z+zAy8ftUaVHqoPuLvLArhypC9H6fI+JBDN09Yca0RFk5bWX6oFeuf+3ik2bZBX3Pfj76bvnnQ+SEmjkvugpVAxlE29eofqm96x6tc8c15zyUwbyJApy3vuuCSpOdomm2/n7IE7b7Q7rxmyUXZTYbM5p5NjvcCTwZsflKamvltzvcr4EylwgSgg7hRDpMBZKeDSCZ5jfD4UQeozH77Jdl81hjNuZtvE+4sy33i/n5CgLIGJhPNp/9GGlrxgrdtCPScpRWsTNRcWAJPmJRzSpSiXIhcYc/osMOizduWcI7sw9RZqXFUnYAxAdSZ79kfQQfunqq3qU55JvyLq0UynjBVs0V44NWdf/MmL9tyM2TEwRAsvyvIbzFxwA6CagbZzbCoHEqNqBYQpNEjrobveBvLovKgFwiPFMegotpssPDI7jkT69LOH7O+/+RNrTKompFKMv85Gk9B2ldAXFlXQF3+Ol2k96fmcslFnu4v6FUk4Sz8QmQOGl7K2brxsv3Hr1ZbFxbLmoKHcORUZE0UKrCQF3i/3W8m2xbouMgUEC01UanKqPsTOHLduqdjv/srHbdNo0Ur4TtM2Z1rfF9RpP7+x4tE98HTWLoCUP1akUlSadSTReVS6DdSakkIUn0qbKP4SMJBkpfnHcKTQclZQ+PlNOjMFUqecK4DmDqAC0SDjOJYm6VWbpMgA8AHwZb2LYA4OZFGXzmeGbXJwk/0Ug6J//sJL9vghDF2Ea+QBLeidPABpMy2AVRN30oJLoCQEOqVnl52pXA/DoWUnYA7o08ajEN6GAOuf/Oxt+/I3HrH8FNvRocpVHZrz9MJU6M8J6pGCzi58p+e0Mcl92rg0DdEhkE5x5xrS/LKa1S45kk/zSKOSpkdGy/bJu/babnzCZ1Dlaqa941LsuZYe00UKrAwFIoCuDJ0vyVpSpupzeKzjrCAhXL9x0H7jM/fZ2sI8notAC1RvTbzBvJ8Q+KzmwpxdA5aAloyTEMHagGYdtW69hZTGuYWhiJ65oNvPoJFCNZ+ZyrNp/c6Y+9OlD87xrCZJHdtmg2cHT+6DqjS0NS1GoFqQ3z7aIEcEmpZsA1o52urrHQslq8L0Z8qj9lqrbF/aj8OFozWbauIYoD1gg+z6og3E9AfItpg4cFXFaenpmTgBp4On6g8hAwg3oVOzCPg0hu1nBybtoW/+2GZxOzSD1yNJ6dIO56RiJks/TbyUhD79gLdQelrLwjktI405W9o0Lj17WupZdJ8UsCiO7nVQJ/sOOGgispW63X3DFvvkdezAXZAmQFuhhWFXWn88RwqsFgpEAF0tb2IVtkP8XHzd9WoYGGUxwtk4mLPP3LXdfunu3bYeC13NZYVVeEoGx+QQf17EJM/WN2fiAtGUwUttK6VtUIn6/CggKqm0wVmq3aDSheF6nv68oYxQjQr2wv1WrfEWLUT1PV3SMNJoNhA7J6xxUSeypCXM3Kk3SY8S0NepwHIf39lFgwiI1SJjBzEzh/UoCIzrOdWctWqrxDIX1oq+wVrRwzW2RSMxm3YjdiMtMvebQ/yUKnihlnCVAmc675jMDfuAg5JnMQR69o2afeMvH7djb5w2VgdRPwZaIH+WOdEMfm8VFr0LovrvdS3ZXin1LkKO8Jve9c7p+9U7Tq5TcHMaU4aiF0JSoOKS9L1zmoiBgHzlyvtTi4/tqk0l++j1G2wHQnQbKyPNzbOBiw9m0izxHCmwWiggDVIMkQJnpYAkL0xMYH5Y2zIPJT5YhKlvLXXt1x+82Y4cO261N6ZxGYeSTWAhQxCWpshZghzKizEvDQmrDtEwVU/T47oBFPVQ1q9tymlryQuSiXymFnDiIEtMWQEH6VXnAAjB4jdh4P3VqtEJLOgqDalFaXqfnpVcPnLbDeYPm6hdi7jzU3l6wEVor1JjtevSkyBWxlFKJIZPHq1hJENWDgwUi3FMFbXu66i8//T1I5arI2GBEFvIkmfut8luMEXXySbtV/GU6gd5JOULO7X1WGKCYzXKPnjc7Et//ai9ve8UnpSgP8Ze2vuzKScEbJZeYKTRFDgnIZU41ZXwHsID1ZQGT0OC9Bw6nj7l3APC9Frn9AgXvbx+2yc9+ntL0nIKZQGgsgzSs1HDWG233bmBJVMouecxyMozEJBZEYQliJoxRAqsHgpECXT1vIvV1xJJQC75hYUqkpDcMrVTs11rCvaFT95juzcPsyE3m2oLOGH2sqb0XVfE+JeEwKgFevrs+o5+Ds4T8V1ftgJcCCg7tKGJgdE83ozmJZF2cADP2sYOCOZLWmDAYtp+gDQOcn11CwBV5rkEpc3JGxHSZxvPRG5xrPzJoTK8BiLcSYCAUo7ROVSL5nS7+G2V6rGAkU8ZsVADEaVpzbGvKOrbPzx50L56+JS9Dg3qhSEMgWQdCz2EI16KakkC8aJXm0MlyVa5ziTooRNN+7dffcj2//SwzdVLzFOXWXfK3p+F4ARCalxZ2DqYkYfm+xEqCfQKtfG7BNh6eVKaJk3xxiXXC+WFCL9P0qfJ3+vcq0OSd2aeNcasOd45aJ+89irbLHshBlCSosNXJB33wkDgvcqNzyIFVpICEUBXktqXWl3O1MP8Zgp33gXiCyzEvx1m94WP38l+jMxdod4VIxaQunTH9dlDymUXzkqZAlQ67yhpTuCZHvJk1AI4tW601jxttUbV5tlZRN53qNCPs9Wrct9PUFvkVIHViDi4QQpt0TcvZElBxDUL8neLs324fJH50CJSn4yb5BRAHox0OIjR7hzp2MyFZwBhc9C+zG43//7tCXuNhaFdNriWtlVg0avKqyM/0jC46IY08uyjLeeePTBlf/zvHrKXHz+A1Fn2OVstw2lS3wgbkspbUhtg0nyyQgpWfq17jkCr5KwH7xWot7+MpUmXUKb3WPHv9ixNJM1GG8urwvCsff6BPXYV2g2vjHl1TR8sMCi9mRgiBVYXBaIKd3W9j1XVGjF7ST9iXVpiEVg8J5hbE/Ugqw3s3us228Qn7rY/+t6rNj8vd3HkUVLpHM8CokF1iATEP8c9T0wNadqQWbY5HpRObHjhHjSRalfSLipWAWgBFakMZnT4XJzK8nJCGe/rl3wCI9nIdgDPbgOvRBUNIhYXqHY1CwLPgm+mnWVNpUDGLUYhFtOjtExzpFJtyzSXtiKRSqmbBWgtN24/emPK5k/P2X960xa7tcG6SCGsiN0XtMm59tXUvO8sRrXPv3TA/uKhp+2VAzNItRVc9WFohcTcIZ3aUEA6zTIKaaC61fpMdzbUV57KF3iG3gRJ9L3AsT/rYgr0P1n+tQYbhdEBu/rmkj2INmNYkClpPqlMEwHh21hCmOVXGXNGCpw3CkQAPW+kvHwLCqwr4WiSSuHCWSRQadrWV3L26Q/ttVfY8ePhp/bB5AEHresD4FydSRoxaEmSslKValEhxTgZkCxmzAFYPVLMPsnv6QG2NJ/gqUMdzW4NcMFZAN5ucjowRnFXhEg22lJLc4bOg1WpwEzn5Le/ZpWbNiRIgtSFGlfLWbRDSyffp/YkcShHWTTI4JmLzsTTPwGwVNBqLKUAESpbql3SAv4qXztvT0LLpyeqlnv5mM3u2Gi3k3BUdELaBoKRhAUmWO2ivTyGa8DHnn3Vvvu9H9iRI6jM5yo4IgDmqSfgjbcaWpCHOtQGtc6dKai+vuCAqQ54J9K+6Ca8W0nBnkb0Ijq8H0/sffXIJK8Xq0Thv4+bdO3SN8VpOFWEfvLPq8GEFLPyCFXgui6r68F5W4fh0KfvvtV2MQCQFXOD96aWyFORa27ZmF00pogYIgVWFQUigK6q17G6GiOG1WNaYpILd75+Ua0tFljLCOP/Lz+zxw6/c9D2HerYHGpEcd0sPmIFUj6PKWBAHMqBSUGmVe7AnJ1ZK0MS0isxcq+Sc3opDu3qR8WRoItXoyZrVIVKUp/mMHjK4aQ8x1ZYeQE5Hms0JyvmLQfwqkusOPRLACeIIzjg+EUAIZi+vPV0cRavbc7adNJ3MCFxzssSi9cCTqrmUhKilpcoCEvBASKCClV1+y4otKMjUAc4BHw5dLIz9bw9hiR6NL/efn9b1u6oUC+0JqUXWp1r2zsTWfv2j/bZQ9/5ESpddlLBYKjoVYW5abXfewI9BFQKLvmKaITkpEQcIUHSa48K13orgT6eKUmn9Km6V+WEtKFGZQ70XIj30skjkGzTTwG5drjRPw9Iyk1GBGXeURUr7vzaqt20Z6N9bM2wlaXOpmM15tQ17MjLBaAIS18ZD8UQKbDqKMD33eMcq65xsUGXBgUEE6c5Xnlzzv71X37XnnjrpM2yyrEM48NMBmFLyzsAnjb7PApZZHXZF8SEzwyw3L74/msxdWfHPHcQTZmzEnE4YEoClRMIgDSXR80KkBbcd2/AkZShOzhQucBD1elXQOsWwGz90URPnV+3xjqD7IoKUCq9oEYAFTaiJpf+E692ObdXZ3Tp9zqptVLDCoSZI6UcrRXV1mjaFzPLGts84HvHxoL9yu4d9sAwG0bPGp6KzP7mp/vtG48+YW++dsJKVQyFmqiTVbfK/zkhTZJAV9ImdSJIzWkbXYKW5Op9CIV2ZZilS72rJF73GgCEe8V7U/xeZXh8kkcqcL0OEJQi8BXMQtnpsuY7kT5l5Ywv5EN7Bu22q8v2X997p31suGzDchRcYK6bKly1m4CnRmsaL9DCGCIFVhUFogS6ql7HpdkYMTb8ftvt6yr2GxiCnPzOD+2FSXkUQs0odSLqVjkvzyE9tZEuziU4812S0Bm6M+XwQPc+/IN5p1KSuL7AUXOj2u2lyTpLbeHlal2pdwGAvEuoLE9BSpLQKEjUr4OjgE0Ao3aTLwOzz3KoIpckPaVSv3fwtiZJevunCmQIQY1NGyWl0VEBfAMgffZkFV/2b9qRrTut+OZJ+8H3v2cnT562mam6DTaZ70TirSHe0vIz5zaTuvpPakN/O71NCf0CuC1JwG0vja5Jm+ZXvD/j/F5hIY9Ak9wAcJVBiNzxufU176TO/p6TV+O+cKxtD+7aYXcOlQ13txpVoPuVARcIGl6JSQjVuwztiGLoe9E+Plt5CkQAXXmaX3Y1SsAqan1FrmF3X7/Zfq15t019+0k7XGO5CQBVYJmGL+MQU1xGOBvjTuOcsaY3lK3LIJU6MoIAUksmFqmAqUAxi6o3qzbB1KXu9TPSqiTXnMCYQkiCtBhUsM06+34OI/l5WZrVS+VMlR2Umt6EBG1cuuU6wUuAUtK0yg05VQ8zxMQFlwh1FqfIwngShxEnTlVt35FjVnrjqHUPT9sgon25NUiNSMPQL+fzyNyeY/B2kbYHmLpekre/7UsenZF26fN3u5dTDO3y0uHQEpxWQRI787XsXt5cgzQ6OmOfGN9hv7Buo22CzAJKaSq0cwx46Y30OK9AACriRgB9N3rH+ItDgQigF4ful1etCTBoXeb48IB9/Mbr7MjxGfuLJ1+w08zxdbR/JmDVkn85Acv77T0Z+pn8YgAIpTloUa6AIgUwgVsAPaVRbMjpkiUijkue6GVleJRDvSvpVNJnXjIe0iEQjISIn95GF4X0EIAKYKKClqFOYOihIwGciFE1ql/1EkJbAjB4hAoUrfjfQcJ1BxGAujYa1640kkJbSGgnUO0ODrZt3cigleY6VmlSL6TLyTMP84leh37ONZBUqQPUp9d9mdVmbtP2K4Xf66yMfoQeL9ynGZJzmo7bNDRlJCTQp99zrElpskSlMQKwrm3bmsGM/c6Nt9jNGAjJm5Uc9smoaFg0cjqFkwYassSN0JlSNZ5XEwUigK6mt3GptkWAwQL+To6dRQhbmMP7z9g/dGqmat9/7pBNSXrCM1EnU3vfjFCMfFFwLp/EiGn3QsLsxfqJdynUAVQJFLcAoP48lQaZkNTa1SbzkAEigFXaKocQoCpAx8E8arbNvqUYwAiEBLwaEMiNn+5CG5PcSFwOnJSvf8i+Do5d6uji/L3DIYcTbc5yT4ifJdaAghhSX0r0QkKrATatYtFdBeYwxMocb9tgDYeJsgqW1Eq7Wv106NHg3S4giP47XcKF1NUOhmQhJumD8ut5EklfwrMQ4VWGn1CYokmR9l/ntNyQzG2UXaJvMZ88N4bR1Fo28B7v2K9u2Gl3lctWkVZClreUojfggKs4CgvlRrkTasSwSikQAXSVvphLqVlixLK4FN/zwMUmtI7//S9+nPm779ojbx63acAhr02ksZI9l+DM0xl0X2ruU6aaMv++p8llXyYS6c4NXDSnmUiGoZBQUvAmFDi2YlRuQ6pe5UXd22FODhfx1prC4hWLY6kkBaw+l+rDAXKpEgFSQgAtVAnwyS9Aqm3FJE95W5IOOLQCnE0hjfIBoAW8LeVo5zy0bOAA9vjOsjUHh6zx+pyNH5y1MUDUl/2k/SDbzwvqj9ebJEyq72XTc0/AyZ9xvyiNnisoPr0OMWf9TdNImhzEJFhLWE6MtGx2LU4ORxkYDNRtDNT8vRtutw0VFcjgQQMVp4+ogqW2DJVohNoR3iAECjdnrTNGRgpcLApEAL1YlL+s6tX6PtSf9Em8XUwUnmhbR7L2+7/6oFW//h174rXDSFwlpKfAC99P98U7329YWP8YlrA4Y08LEhg4agREENsWiPljPaMTmq9UvIOvnvh8qNg7zymsK3BVBoEfZ1mtKiJYo+qe+FC8g2MKqIJWNmrjoZ6TwAnGNcJlk51UmkimQ+xUngFIZ4otO7GWraRLA1YbK9jMG5M2PMWuOOBxToT8ACEFurQIdUXN1VkhPftN2g+/4VlyvyQ6eRpOslDGcyEGRGYnrsraadS2RSyyNyPZ/4Od7Cs7jJq8iUFZjv1AyVKi9hLSeHDeR8mo0BVCHR+sr15Q/IkUuAAUiAB6AYh6pRUpJsdCEX4lIaHWhCM64yu17Nr1zHV94g7Whjbs2UPV80OawFV7ZaUMPY2QlauYsqsREzWr2hQaJShTSFWYobEeR7kOnp5YKfRPYEo8Tt+ZhES1q+UoigVetSTH84SyvR0Ah6++gP+jrPWa5BJdQWs09cwz6azHHHIdqDqabMQtJwgt/Pxqb0yEOCR7lrMMU2aubO3CqDWOZmzN0ZaNsEn3eQ3erqTE/mui1MwlUT+36gJ0nxrL2uQGljitYY6z2LQ1zO3eOL7FfnP9bhuBdEWccahg9b0klbkqov+Bpk75pF6BqR7GECmwuigQAXR1vY9LtDUAAKrOLtYiAbqCxNDgfgiQuWfnBst87pP2L/7sW3ZwBjWeq3KBF5gnil36rPlEAZXm+JDynFv7zwI9ltwuPAgMeAFElyYMgOlgCjt2Ht3LzF0Clgmn5olk07Bkxa1mKU5Soxza+2p+CkpLkaWp5yONJE4vm+sW8V5rqNTz65nLnbpI4j2HGs4hiNBaSW20PS/yASRORRGD/1UcLGSvQqXL/HK3OGfddxpWnEeqw8BJRjqq3IsmsaZT1UoHch4t1EdBSVBar1oVEzyPqtIDQpC8Q5l+n5S+QOdQmzKEcqAR/RIdMqgf5ofMJjdm7eQmCmVAkGMAMlbO2wM7WLaiV65XLe9OXHqr1Aekem+A00dTAv5E1RPfdx1i4m+kwEWnQATQi/4KLpMGwO0DDNAf58LyJYNKEvdsg6WM3bWlYP/zp6+3/+U/HraT1QnAZJ65QdwssFYhi7u6IoY1OTbsBn58PpWHcG8xVP/vjFZXYqNgbYjkFC6IVaTXqzP/FSXm7mkS8FLmJHh8330aL9WvVLSpXY+aoALlWUf8HRHUk6oqXelQWZ6PGzUDm2PipAAOoaNBgS690r6z5w6AG/YaSdbIejrfxCvkkVRGmGElzQwq3frgiM1ubNnwoRkbO1KzAcgm8PVkSduhKgY5bGcWSOiSc9paAZ6DK88cs+hMHvHY/3ndAdhUnvdZTVbf1AipVtVJfwkMNkRo8sv5QYNX1irhj3ggZ0e2dWxiGF0zFRVbXdkw28e2buNY7yTsyMEGlNKAK5ShshfYEaUmcrsqjSFSYHVSYOGLXZ3ti626hCkgJujO5bkYGBiwO2692X5vfp392cOP28Ep7E+ZEy0imRQ6s/BgZr9wUq8lItluFXYLk1YBqynQHoHIxW5WmzWVtQ1lm1lXtOktg7bx1Rnb9E7d1oC/ckVcZcBSRZovAYrj82Gzb4Fbg/1CW1KbErR1aBl8KwJwAtNpGVBz1tOesMeNS6LCTAdKbTYu1TX3gDMnpF+MnzjLenZuLG8Tm8p2alyycxNPVJrvbVkDl31bs8P22atvtGtwGiEHF1omlKNiB09SxxApcClSIALopfjWVnWbnQV7CyWkyI2bHPnkYZiVQtY+f+sWm6neYH/95D57e3qeeFZdSj2KiCMmLQDtsruKZCCVpCDQSkP/dRq3kmdJYh6ShlyM9tQK1ApADjIt2xgv25GbCzaxrWFDx+ZsjENrR3Nad4sl77T0uw5+AseMVskQ6ARxbugDoMpDkK+iId4X5ninlIakAGVXCEv6ILlKtuYfUSzxtQZtmRvKWW0c37YA6MwgmXHHJ0RttNkOjrW/w6xx/czum+3uUsVGabP2DpdNcvAR7NSMP5EClyQFIoBekq9tFTY6RRYx6yToSss45N1HPJlFILaVubHP33OtVZE8H3ryZTvF0oyOVHmoObVdtBS/TQBURjTAaShpociz34fY8/7rOPJupdKmFGdoqION7kUGP3TNoR4sbT5RHyy4/jiRJgG4Oj5mayMVloqU7PT6oo2dbNoA1rqlqjZXU/1Ie+iifZ6Txql9bd6JpFEty9FQxeegPW3y43VoMBPUuN4nXWuJDQ4d5liCIuCcH85ZA4va5gBrU1m/2mAnGbnjKyGm1klXBsBvLI/Zr227xraoMeiFM5JAAfjzTxjKjyFSYAUpEAF0BYl9eVcl7rgkAJ4ZMWiJojBOASnmrHYt0spv3He9zcyetu8+f8SqDebr2CuTdQ0wVpwMZHEA72gUQCgtVVFiun7mUkxdfP68B9WhspM6Fhi9YvqCDxZCA/TrIKMzh4S2VNg7700UPem4JMAu4n1RBlxI+NNYvU6PD9vcFrZFOzZvw8dqVppkbSkGOxIKC5xzpHea0T61V+1Ui3PMQXuPNdjxeM6An6RUrZjx5Udcz2u3FACz6hJnzmYATr2sIqCoNawDKgfVbVuTx3geGmWe+7d332Y3U39Wm2XnueAkwFaZqt6boGbEEClwiVEgAugl9sJWfXNTtIArav7Tg4Am4ZKSdnLtqu1C3fdPPne/zbYft8deeMuqzMcZfmml8st2aqRKMizKS+EqP2HyofBz/xWQ/7w5NxWfdiEt2e/VDpfWQqyWsyQtTJN5u3QjFefPq2ch0zKuRFYqLzHmECjKGli73BRBviwGO7NIh1O7WRLDkZ/HDeFp1LsnGjYy0bSR020bqMnKWBbTGEYlI5CSAI1ipQfQoTlOcBmQI00JNlHEoR7ehE5txqPQEPOq1DErVTLrY2WtLPCUywnti6rlOk2pblm2cuvwBvvVqzZYSfZRNFY72sgZvozEEsgO1sbLIEPMEilwsSkQAfRiv4HLtX6hDnwyBN04DOE2D64vCRPn7eyjbP/DFz7CxtU1e/y1k3YSZt9FehnozsK8y0hCfJ5JGSF3Wt7KnxcAMXTM20PbJK2lbVypVkmalDoWwd2l0FA/EYCpjIJkfRysZCVFyriniA9aDI62A3SQv9TE8AdaFzRXWgf45FYQAHZnEJI4BZ5aYlLCsIt56zbA2UWS7KDyncMgiCcOmIMyKOJaXofmZJWkQYYawyWmTHZ9cdR+f889huEwcTQa7YIGUA0gk2lQb7ZyxBApcKlSIALopfrmLoV2i5G6hOMc1Vus3U8055mB0Y+iIhzE2cI//ewDlv3OU/bDl/GbW2PNIFzf5+YS7rqQe2U73auXdrgqOq1eGIHUJTDoT6NrqUQluXk8517oJezFLPui5/5PJXilSVHQuiErW+IkmUpNGqRBlrPoLx3rXRz/sLQIa1qBqBzpk06hHqyLQnEAsyxtJX3WAVJeCARQwi6Wu0FSlbtBR3FGENowW1uXqd9azqL1J5u5+MTGq+3eStkkqHZQ/cpASY76JasqBFlX1+HeI+NPpMAlRIEIoJfQy1rVTU15IMxyUdB9+oxLOXRjpaAzd2uyEpAv8PrxAfvtT95l7WbDnnjlHZucH4RVK+PSwohZIX7rzaau0AItt0iX9Ut1q0aEFnLhwVubpD+z1Wmq83R2GvCDDrTEoVuBlwOrbmgA9jseLxWt1lpqbas/ABi15KQFANZJ58IqP77slnsNDKRa9cxIjOFMXvIoIEe6GtbvVSRBWKr6cIfhz5Vnb3mN/cK2nbYJUTOPKreKcVEZZ31auiLDYOltBaCh4KQgFRZDpMAlRIEIoJfQy7okm7qIN2L5iZrPdzWT1yEYLxCA4Unbbt0w6JJoo/6wPXlwzmZQ6yI/8Rx5hTIkvwg9xfCVUWpKGbjIm54vwfB6UlBbVKkyvK+g3Dq8qvSGuvrBO9TgKXplay6wX9UroF2copf0g12oUA60qd53zSs6eKrV0MOFSS6VTHO12hxcsChPQbryTGm/dFbCFupcTi5AehKAjjnsDtJlyE/RpG0ixTp4Uo/sgeRAQstRZNWrYgaoq9TK26/deofdOMZASMCLqpdtzBk8yRpYdXHAeXSp6mOIFLhUKcDfPH/1MUQKrBAFmIILjFqfHczZuShcVjZEePmzY7WGffErf2bfeDtrEzD1fA7/uSBkvVWB/bK8BQjAFpT1h02rMUeXBz3wub4QhLb8Tz9qB73kaf91iApAvJA5vRIwAzmU43OBQzg8XztMnTyn/JxAg8sm6O2Aqfo4vFYBra4c6UMrBByStc5bUF0UrTYohPrCtX5VtTcnebbwJKTtPVzyIM2j6P7rNJniyuiEqxWQG5Vunn1KW1Ih1NEL0+9Spm7Drao9sH6L/Z/33GV7ylrPG0OkwOVLgfRv8PLtYezZqqKAJJzAVPnVhX+ByfwaALV2sGi/+xv/yO7dPmIbS9rMmgX5mVEMdJFesvMAUxNpRyvxB62Clx25iVsazoxJgGNpwne9F7Dy0NvHD/uAejhbwT2opg6l7wtK7vOhS+L7kizvMmmHQFmH3+onOXTqf9b3iCeE/oj0ekl0mr//rL5UWeuJX3ikyLCOdGAOh42ytsZIKMfa3WHmYH/rlg/x7iJ4itQxXN4UiAB6eb/fVdc7fXCuclXLBCwSl8CnLLo9qWOHANGrxgbsv2IbtAf3Xm0bhvC8wJYkaHmRCFsYt3CQL8ukXalZwAgmATeVd74CTXJcUfsAh0yeOrjW7dLQhz+LHqX5BUC6vmwCE5g5tAdlTaTyDvKcs1jxcmH/P3vvHeTZcd33nvmFyZsDgCWw2EVY7AKLSBCBSSAoiuKTSAoKFEUFWy7rSa8sySrZcqiyn/9w2S7ZJctWLD2Xg8olSpZk0aJLViIlkhATCCIRYZF3sci7WGyc8Ivv+zl9z8yd385snJmdme2eub/bt3Ofe29/7zl9+vRof8U+sG2H3SUDC6tnI9aKIULuSKZAokAG0PwkLCoFXLIZNWqQ9blMrBAJVes6ak0W45vt3DhkP/ztd9q7r9lil2jeDbPjHS1rQTvU+hoCYS2n6LAYYv4B1Md+/QDUXXFUfRJTToGgPAGOdGMqnAu5chx89YpzAs9xF1PLNKMs1TOv2idxbr07aVeOjtgntl5nl6njhVLviut+7lCmQJkCGUDL1Mj+haeAI4yqAaB0cg4NoJKPxf39HLrW0kPbtWnIfl6c6Edv3GZrZTO3wobczq6ylnRcSyy0Y0llngFU7QPkaSYAytrHrpZz4FAKUpC3PeL9gjA5wjhwcU5XK+iXrwItbZkUZ16TTBct34lawzZKxP7+jVvsg6sGk8TbCbWC+p27kikwCwUygM5ClBy0WBRglHXz5QmceBodrFAU6tOyh5Ztl8LKz3znHfb9d95sl2mrrLqUe2Q0Ths0a0H+wISku0mDCGWepAEr6DpPvTjAD2Bw7lOKSgAG85u0NikNCTjU1gpLW8SNKXAqXknShwGJcXFOV8v+N3VHFNJ3iyTo6rcmRPUx8661m+1Htu6SBEH9F6BiNCG7TIGVToEMoCv9Di+1/jECTz11iadDp9VXWU6hlESAniyB62ZttfW337fL/tY9t9i21eJwZGihJWPk1T6Z/JPocIY7T9bPmwcgqlAMCXTrmn8tQJBTcKflavB7ek+QWlOOTyEr49eV9n3+E13opozKN217td8+/o6rbSfCAAw1iBoZPlfG/c69ODUF8jrQU9Mnx84zBcBIwCWwJglFuSqcR2CrlXQS0TIHKf+Vazr2sVuvtP6huv3u3zxsL7591JraLksaPp4uss/HObVJRQs8mf9EailMneEA1d6wAM04rzTu02+c7klF7HefRO1VaX21tTH2hzZfY+9bt9EG+TCSohdKunlgmfG45IsVSoEpXmCF9i93a4lRYGreU+1yTAJtfCI0NRSAZVG+FmBqqSEoxXpLgWmlYVdIIffjN15hv3Dfd9i12qB71EY0mMOrzrNDBKw5vkq/jNvDhVK/qgDI3alNpSa7+DaiANuVyn0xWAyI+5Q9IZZ9mpRu7UrZBvyhXbfZlRKvT4tt+ahRguwyBVY4BXgnsssUWDQKsPtngqOiykAeQjXmAkAcjliKY8lESyFjxZ6hW+oT9p1bBu3//dEftOuvvNkGaqsSJ6h0WAJKrjR4e9AMq7VFGqogXRxTwQpXjICzUhc4F3Oc07GpaWA7LjjqqDmFLrPfggQMBhzetSBLceabBm9N4nMsSTXRmNbc8Ce23mxbB7Qe13W5FNHm/ibRvDzZZQqsaApkS0Qr+vYuvc4F0DAYz+am4qc80xxdn5audLXfZJ/Etsdl1Pzlg0fs3335MfvCc/utc+SoEkqk2D8sDdG65khlsF6cElun1WQhp61Rv1nFfpzEsjoQD3elBNQt5LAV5UULGC6qKcOufcPaDkybVLOVF/tWOnqo0Ri5d0PrnAteM6wROfArqTe9t4PRn9k6faHDYK0leh1oi2bdmmgnm7YYrNWaW99FRf1MJhM199xZqwlqWRzqO2o3CTj/+we/166EPFrHC0UwsMDOLbheEnhg/skUWEEUyFMVK+hmLoeunG5QnYqf8iSuiL5hFt3ZTcUNa/usqzYO28/ec7dtW7/Z/uSb37C9x8etKZYQlaSq5kcr0tDt+DxdAku3VVtwqqi5wGmi7wsXCXByzbrUjgCg6tq35COONIAMrSi5nuuljJGlVs/pTRJzp0L6CvAvAj5DEiACrL7AU1vSXTEwaD988zttsz4umK92zWc+RsSV9pBlzvpyRKbAcqdABtDlfgcvovbD6aEFysFm3VWZ2LtpXc3WvXOnDQ9V7Q8fe9peOnTMGo2Cc2q3tMxE+1nW+sWcwmGy+bNwUJymc0uiHYM9Qkc8gGRX6bvYd9UG0s5pevjJ2EmWFeVcs1k9YvkJa3F1QnxOz9sCzoboImI697lxom13r7ncPrjmMteW9h1fCiJO6h4lDeoVRZ3cmUyBWSmQPi1njcqBmQJLiwKAIC72PwBAK5WmXbmqaz9+xw77uQ/ea7tl9H1U24RUtNFln4wssI0XjBQ7t2jWTj5fMAMsCFCbAgkd0hvlGt7LxbXiPn35SohrPYaaV6ZjNxXmNvmI8AlOiW5rsm1b0y4qFWlQOd18c3OGizEtW6nZfdt32Q5dkgbKlp0zpOWA7M8UWKEUyAC6Qm/sSu1WcJ/Rv45Asi0x7dpq0+67ZsR++fs+bD+w4xrbqHUmk1orOtnfDywKKOGk+rWXpeZHpSAUG3Yz+DO/xwbfgGtX5fUNa/cVWdbBzC7AG2mjzpV2Zn/WfrcpLOhzYujjw4XbmOrT5wXcp+gA+75u/Jj94PU32bs3DDsZRKXEtEIncZ8DFKEYqJldpsBKp0AW4a70O7yC+ofYttexHyViV9YjVu2YXbWhZv/Pd95l2zZvtj/46sP2wti4ndDg3nIAUG4BZFMbPDOvV5NIEuWhrsCTMgxzgZrba2MiENhFZEyWqUo1vwcy6CfxwgBFCiPdcnWItSv+AaHOudgWXjzRbByFIDbxbDVsVNEfXr/VPnDJFhvSyMHyIvjTqnOhAlsIoKR9bFMX9F6uRMntzhQ4AwpkAD0DIuUkS5sCAEBNnJJ2D3VLgJvXdO1jd15lWzessT/6xpP2wMuva29RIHbCjex2pfXSkciSFRd9yocmbpcBX9xq36AM1IMjHPw5Yk73X1XNcEq2IhwfIoCfOz5KEGyzjRvElTh3lRYTXSH6/u0dWrai+WbWxjb1B/dahUaiJd8gGCmqNpQHwvTQrig9nzIFVgwFMoCumFt5EXfEB34t3tc8XZ8G9QEdmyVhfP/uy2zjJZts0/2P2FeeftZebzbsRAsY1ehek5hWHGjHOVhxlNIetUHll0EA17gVOR0DKFse/OEIQmNV8LIiHP0BP72Tuqi65QjMJWp40HKWWqNpl0ix6Luu2m7vXbMeJl4cekfKQihjwYaCnMquvE4XPDMotiLIlDuRKXASBfTkZ5cpsIwpUIzVTQEAIsS6LBPVW/3a1aUiEeOY7bikZj/9nbfbT3/kvbZz/aitl9LQkJZh1CTG7UpLF6tHcE1d2aHrDsnPGtCCHJx5QVim4ZhQhDvYyE/VK8HRnxYdpcOiW12aVBWtB3WNKhF1lbj3Xf1D9uPX7bYRpamKGChd1STuRVvXCUFeOX1+6CboyCNLIkj+XdEUyIYUVvTtXfmdS3uxiKF0NBMbhDapq92q7zp3Bps2UT1ub8vw34tjdfv9z3/VvvjkU/bGWEPKREPWFmA497lWW6WtEtclJZqa9hkNgwmIIZFEupUjedDSbUrcC+hieAERJv9UH21xqheAMnUHvH1TV0vMQ2O1+ESKWCxhGRKaVluDdlwibauO2y5NeP7sddfbT224VFy6+ikNZxSzpKtsmmB2zh0dJKZKRVA7qi1ZhiTuZQ/X7DIFVjIFMoCu5Lt7EfQtcCnhla7K7CGRAsSOrOxou27pwfTZwbdb9vDYEfvvf/NFe+SV1+yQLBpNrlptnTXrBIR1B8R2ZUKMmCBChuxZC+oKMSrBOVFd9rEeUvW0q0BIWsaR1I2oMFpEQh1yMs4zE1xT8ML/OvLTVqrqaVupmRWt/ayIRi3CKtpOpctKzpqWqJhd2p6wT227yn5utzbKlgUi084rQWLvMzJbfVAQ5t1VGU2VJ3Ws6D6VZ5cpsCIpkAF0Rd7W3KleCiBp7EjkWJOs94gG+T1Hx+1zTz8jM4DP2VMnjtnx0VU2CThIE7ejPS7RrkWvCAcOAQ9drBXh18G5RVoBk2NsSuEw5XUVeVIGQi6A84bTOlwJMfGXLtE5rmtmeELLfKwqFhPxrcBzzcS4ffv6TfYzd95hd62VEXmBqUw0qSzvnJeafzIFLmYKZCWii/nuX0R9l1E/rQsV2Gkj7tVaf/HONUO24ZabbXjtKjv81S/YG91jdrhWs2Nwl30jbligqqUdGBIAbNg4uynR5STrJJFVcpZeLw5FJJ85LQPWlF9gI7FmWh7iyRftp6IPhmJxyRRegpuA/pRT85jfFQNqdWkgYwrR2m1bO9mwbUr5d2673a4WeGqLbBuAHQePlSS7TIFMAeQ02WUKXAQU6BdIVGXKryGusa+vLeXSio2dOGAvvfSwFGOO2mbNndYka63V6lonKhEm60ONJS3JuAJiWMzUhaUeRx0pIiGolABUFFQcYIsjnft1voCO1iRzfOpO0RQH0J5mIYSu9g3YuCeq2GiraWvGj2vJyk12iywjrFc5XZ9Yzuh5AW9nrnoJUiAD6BK8KblJC0AB6cdUNQda0zzexEC/vdw+bF/Y97A98/oe2dSt2CrN5Q2IqVzXGbRj3aM2IUAd13zgZG3QxrXkBXGtc14gkLg1FszUu8wHgkbpwGyg+zlJGSdi2PprhoKRohfDMT+LnVoc/DLNm26VAmigHHaHJjX/2y/lqWqjbavGm/aeTZfbj+26wUZGG/rYGNMhxSotayk+EVLG/JspcJFTIAPoRf4AXDTdF0gau6zIOMABiV4f2LvHHnnmCYkuZQwAVJCIdkAIU59s26DmQMdk8u94nzRRO5NiOgdtsjvgBtXRumW7aFxb8Qk0/dIBycWmbrQevlRwJSBtA76BVkXSxTih38Mx7bgoAuiCd4NrLfnRLOjQcWnPTk7aDVKo+slb32MjqyEZylMQSOBZyq6A7DIFLnoKZAC96B+Bi4MATN+1pf8iE/L29Juv2teeftwOTRwTOCQlIDGn7u8X+In3lOhzQMtZGlpP2pBoU4dEnE1p3bZlSB0Tfx0ZD0Cki38KlPAqP3BTV7ks9WAHGKz6TKWRb9FcqWlevz4QmLqFKU1askqA2T3N0XYnBKECz239g/a9WrLyrg3sYiOund4wL0ynnI3VmXKzyxTIFNB7lF2mwEVAAeYwjwnKjo4ds889+BXbd/hNiWallSv8cJu3DoQQQstetMMLL8aIbP0NCgAb4s8mtCn3eH3AJjo1iXWr1pA4c0DaqvCZDeZJXfkIoGGbbS2NCZoiN/UjAi7EGaDUPKcAUHYi9HEgTpwvCoFnpykBrsS29bGO9g/v2HfLEP9Ht290W7fSuVVP9NGgs1b0ZJcpkCnQQ4EMoD0EyZcrkwKM/xOtE/YXD91vzx54SWA6YQ02fxYyaPczrXkUwOhgjpBFLAArhuar7UlxoU0brDZkIlAgKgUjQLQhe3aT1UmJSGsS0WqNqY6mjgnM2gHGfojz5AwCXQhXADdcJBrF9LGitlS14LNPe6Z2m4L/ltZsytLQ6NiEve+6q+2+HVfY5VrJMlmbtEHNezaKtTwOoNqgXARTTzKaXojbmetcehTIALr07klu0QJQ4GjjmD2670n72ouP2WRr3PpZ0iIwYGkLaz7hzNhdpKn5SqzwdKWp20b1R6DRFaSiOVQXkFZaNRtqCjTJWx3z9E0pGzW0fnJSayQHKloKojJaAlI40wQ4QuML5LxviG7ZMUWcZh+G3mU8oqJDXdRHQp8Nqd3bt260n7r9Lu2t2pBlpkM+H2z6OKhLmQochq+uiAs32RjKAHqBbmaudslRIAPokrsluUFnR4E0McfMI0tKZOvAlWOwqiOs07CvS23F9eQb++1Pn3zA3mocF/gpHft+ClTq+JXWtVVhHAWbrPnsSvlHFwJPNuzimgvWhXKl2sSdKlT7aDaVt6kyJ2WBR5yojBE0VXZLR1sginh4ot4vv1uJ9euWwmjDNKdKj3VdtJ0rv06ewl8GYRJy4NRvRcEXuqUkktFGPytM3wAjY0otoOzK/mBFhCHthNpcUaK6QH7LQM1+5o5rbacM8K+SeNrt9ZFfdPBy5E3twUKR2pldpkCmgFMgA2h+EJY5BRJSiNebHtoVhMgRvnFSIPey5jv/+vEH7cUjBwRcAhep3QpjlJ55QWAQAIUMAheUfwQu+D1CAEVK0gCiwGdyKAgJXgErhQK4A+JQO32ysSuwZBPqlsAJEK22ZXNXXKkrHwk4UUByP2cdgClwmAw3UK3qAGDl+vyMQpKc/3BWCq9X8SyXUTiH23ZAKcj3OFXb1KmqviKqEtfWBaSqzMtm+rPSr/DuhG3S5uEf2b3LvmvrBqvXaQVUGVJ7+HSAg/Z/D9d+bzpnlymQKRAUyAAalMjnZUoBDfKASRr7BVTqhg6m64YaHTvUPmZ//shX7Kk39klnBu4ygWdXeVw2eV69BuSovwA7XTnECtQqcKvAov5XTUj0qT01WTMKULfhcAFXB87kp4i2wgDWmU7X+ndQVQTNZq7WgV9+FIECQB2FAVDvGwAqkFT9x4YbNizrQmjeNmWucELaxP0S364Ry/qebZfa999ypbZC5SNAZRX1z7Z5+cx25atMgUyBDKD5GVjeFAB5QCVARlgGjoKhWM5pagnK5x78kj325gt2VDuNsJ4RkOj4TtpKpTxKeO7O10cCmdQI56ZflQefV0UELD+i4UFxgH3exsRpdgSUVIsQOAmCU3iTJTICeFyBydhj8LTeTIBRDmCstJM4lSDfKcYz0ILULW+N6iR/valt26QExZwm+8d0ZG2pNj5pH7p6m/3ft91gVw+ofYJXwNM/LFRGGUy90PyTKZApcBIFMoCeRJIcsKwoAGLKsZ8l8MJWlEJIe2v8sH3p+cfsqy/vcY3btrjPqkDGAUJAkcCCnOfqACuAEKjSn5etILHCiD67qg8HuPkG3d4+h1jVnQSk5GPeMnGXzKcqLfuCFQ6OFYD0Q2nxgJP61Z/OznoSTLmEpx8/k0Yqt/iHG1JowkShjEiQc1ibit956aX247feZjuHgP9xlTFK7uwyBTIFzoICGUDPglg56RKkgANKwXmCNJr/OzJ5zB557Tn76+cfsTc6x2RFSDZrwRjnGAVqAFPRFXkdoDz6NN1z8SZASToy+I97uPBLL0ftKPhIP7O3aNRXPjsw0hbnMhH5yhUJ/KS6XCIbwXGtSjrIrHVO4JuyeR6VBzwTSZquJkbZZLyqTcYxjDCgL4xrh4bsJ26/1Xau01rW/pbWuQrKIUTJBSdaCsreTIFMgR4KZADtIUi+XF4UmAzOU0hT1Tzf0eZx+9YbL9jn9zxo+8cOal0mEKPDOdUCnYouwgESe1bcqCMkBSTASdCo38AfVeFhOgOIzisy71pAKoCYYsijg4w6k6crgE8+5VM6j/cySEuYp0pt1i//5PU68KaaizPlAqAyBCHt4FqrbiNa97pZAPojt91k916qHWfEfbLOs2Ijyj3T9QLqzNh8lSmQKQAFMoDm52BZUwB9WdYoDoJMnabtE2j++Z5v2FOHXrZWHYMIChfIMAXpgDNPvQW20IAF5OTRFUhOKJxh8nt9ikYbFphyvONHVy7+ld/hHXRUWNLSTc1M4JnaTdmkowq6CTBXExIrHH7TW6Nzcmyvhmur75ixVyma/uzYpbV+++RNN9qnrt0iTrRp49qeTbrDNgRxKDS7TIFMgbOiQAbQsyJXTrzUKIBhd2BgUgpDrx0/aH/05b+0546/bs2BhAhVDAeAJzo5EzqfHRBwJv6PCgBTAZ28YDZ1JkATV6nAlI440kZc4VHCFAz4kjGlSS3GT8sTSALWxHPySorr4srrZF4V15URhKqWngw0J22tzPR97Lbd9kM3btEilYadkBUl6eLakDR6U6aUJ/9mCmQKnDkFMoCeOa1yyiVIATjPSRkzeHnysH3mwS/Y/qMHraH1mHBUYANrPvtlCBeGTbo08+qSgtDMIgPXAiiJTUYaENGCfQAhHGVwjgBd8oOFoVSEdi4AiVDXRbcscaEwL0NrTAtdI+dMndOk3OQcwD0py11kOWm0ax+7ebd9/Pqttrbellh7XKUqjgxJ16nImU+ZApkCZ0OBDKBnQ62cdtEowLp/IMTt94AIQhd0SgNY6o6QsqhTmbQXJ1+3v3r06/bUmy/amHZOQTsVsWmIbTuOKJSWHL4AGQ8pkMfDywEz/NOxqWWOZZ4i/QBJ3swpIEvhqe1UkfhVQgkjNV78nP1KPwWnybXC4V5TgiRlTcteEqeKTSGWpbg2rrR+K7LNR/qO9imV6pCbHlxvJ+zuG26wj968y7ZpN5p+GYmY0HIW340FUTMoOsXxRhvyOVMgU+BMKJAB9EyolNMsOgWS0BIAlXO0AzQ61sDAu4y2w8NpCs9ebL5pf/rsV+yJvU+Jw5RSTEfQK2DAkEEdYCjwwbm36IXCArM448ArfoCvhCcRE7GRg2ucrkPcGmCYQj2WwrzM4irKTjUrcCoScWzBnapMXyPqDSjqB+S8tfwWIE3ZThOuBaKiSx+7wEhU2y8jCSZlqoq2X1vfX7F7tm+wT915q23Xm44VW+tUbbAyKCtNtA8AJYyI7DIFkIZVBAAAQABJREFUMgXOlgIZQM+WYjn9olAAo3FgDFwbdmuBD7bgGpG4kznPCR1vy8rQFx8R5/niHmtq7ee4NseuDQ1aQ4YSHF+8pY6KKqgMiB6xbH+63WREoSa5dFemA1mdg/nAvoHVNj4+YaP6kBiqnLDbr77SPnXPHXZFf9XW8v3hbH2iKp138a/oyn92mQKZAmdPgQygZ0+znGMxKCBwSAxeH3uiSJtWKOFjv7jM9oS9KYD400e/aI+/9LQUiJqeplLXLijtEP7SSDKsPHTok3KQ6WhJEQj2scq1JkXRSNbCTs35Hrf377jKfvS9t9u1A1VbLfDEqPwUJy+aJPBMzCc8bnaZApkCZ0+BDKBnT7OcYzEoUOAeJ/hPx0KdWprne3PyqP3F4/fboy8/ZSc6MhcPB4YijtY0oizkS0vEgiaBJ5lxKwdMmfPsssYTEayDobhP+QbEhQ9r3ef7r7vKfuCuW+yaoYqtFnC6Vq5E374YVlb2EyWgTkGhlUMabnR2mQKLRoEMoItG6lzR2VAAkHAbr7IOH0A4oaUqL48dsK8895B987lv2bjWMraEDh3UbQtg8DoCPAGGFCDwAGIoCfCRV3HFKSXhl4AZoR5A4Jm5Yl7yzBKfe6q22Ek+Emqo4rKFmoqq6cNi/UCf3X3FO+xvvftO2z4isa1ow24xzmeyQzjdgV4CXvfqUmTOLlMgU+AcKZAB9BwJl7MtLAW0rXNSFGrKCDwbVGtbkZfH37TPP/E1e+SlJ2y81rRGa8IBxNhrU0Axg+csFHsSPiReC9DgGtCYmhLtAZCATE8bFz1pFrbnpy+9U5GwVh8MFe0A3scHhowkrBZA3nX1ZfbTd99p1/T3SwdXsAlXLrr5R4Ou6QZca6KTb1YWgaevNKfIFMgUOIkCGUBPIkkOWAoUYJB3kOvvE1CO26tjb9mfPfQle1xm+g53TwgE2J4riSNjKaNzU85xgQuBepxJF2i4FHp3fm3A6Hxba1+b/bJxOzlpl2kO9N5rrrFPvu9mbY6tBSyy/WuycciWZM1+RL04+s+60vTr855BopVDGjqaXabAolEgA+iikTpXdDYUqGuwR9/2RGXCXtVSlf/91b+wfUffsDH99Ymrqml5B4DZFso6jOpcEccVZuymIRQgFpwuknj1bPp4rmnZzkxToJrzbdgmWVy678Zb7HtuvMEulxKVLN/auLjvIe28IuIIMBPHmT4jEoD6nGhUnnA1rvI5UyBT4CwokAH0LIiVky4eBdgQe1Lats8ffdk+98Tf2HM6j7N4ResdK9IUqmgpB0Je+CnnPOGz9J940sRSARpxKCJdLF4XFqympgwhDAwM2hYthP34rbvsw7uusS0jFXGebRnnk/AWUshAQp/EvG5tSIAKHZwqAl6/oHUiH8YmCMoDAQTJLlPg7CiQ35uzo1dOPQcFGKDDJfiKq57z1EiehKxp5jLSAIYp97H2YXvmzefti089YE+/tdcm+1n9KXEkhhTQywUkIhvnGRcpIgFrOVHyz0yartJWZbMU49FpDnVaLFwq05tLopN7fXJIAfDeR+VhntbnbilPpZeBjmuvRkBIUv1hiaklTeMRmSe8vF61+26+RSb6dtg6mefTLLGKq1qtoTIFnMwZt/U3IG4Vd1JbCKB6j80/mQKZAudCgQyg50K1nOckCvQOxFMDdm+E50xsEFGA4tQwLm9F4NhstOxLBx6wrz3zdTvw9lu+PKUqVgkBZEfzfSxVYeSvCFmY//T5UsU65Ci8iFZMAg4AiJlA9E+TIwUt9JlAAQ95izgXCZeSFV4Hm3IcJZCvLBoGEL1cnQiP6wLJ/USwRM3UjQ3cpOKDuBoATW0PEWuiocJZE0t6paqODtqN/TX7iRt22e23XieOU8tXBJ812kYFAlOawPxwjQ+N1EWlKlwqNK5IkV2mQKbAOVIgA+g5Ei5nOzcKdGQOx/k5ASFAUcEIgAZ11nc2ZNf2ePdt+4a4zq/t+4a9JQPx0oRxMCqP+/iVddm6aHsAJtdAak1mCBFLt6V1bLJnW9EylbZAsVVXrDRvh0+M2V2rL7NP3HmH3Xb5BgFnEr0Cgn2Y/HNgpjQoVKaYLrPLFMgUmHcKZACdd5Je3AWeNHT3oB08F1ymc2OgRmLGbFIm6V6beMX+5on77flXn7WjDZaoFCAgbq6ipSoYhe8pbnkQW5hW9CQBf3RL5wBPznCtVfqoda1tiWMna+qzvjIwDb9O5gk/uGunfeLW223bhnU2qLwwlw6eXgggS8GJ5UyUmq6X4rPLFMgUmF8KZACdX3petKUVmDAFFDMIEZEKRCuUP3eE6wk80jhh+w6/aA889zV77uDTdqxzTGLbuhiqSKeEAAtApMPBJpWwLH6j+97u4gJ/+aAjGJJHVJvmgSXUlcIU25pePjBgH9x2nX3/7l129eiQ1TW/2YCKKsABFJm2G52nlFQBZeOi7nSVfzMFMgXmkwIZQOeTmhdxWaceqKeHc5ZguBMwNPR3rH3cXjzyon3p4S/a6ydet7G+MYkwBZYqMO2jiWcmYadANIqdEX3qlsxIel4XZ17PVHuL+mi2HxQhT5TUlnYtkJgY70lbo4gtQ0P2f9202z626wbbKrSsyBqTSdu2XhTi1pr4INEHRoBoETVVblFtPmUKZArMMwUygM4zQXNxvRQoo5+G9pYGe/1PVMbsQPeAPfjCN+zBPQ/Z8eZxAae4Lk0MVjv9Ug5K6VyBRojCfCGcGVJKFG8AHoAiOV3L8evpOE9HElU4TxEXZ30G2BynaM9Z5+7JEE2hQP1XVGZL4NmWhm1V4uzR5pjdsWazfd+dd9ut27fZsLJr3xUbbLuNIYFsIfumUe5EL1xcpqv8mymQKbCAFMgAuoDEvaiKDkSZMYAn8ET/lT8cO5M1KuO29/Dzdv+eL9mzbz0rrnPS2lKU6WtrgUpLe312tMaT/S0xmF4AjYtvKSDqwb/MHV2rSmGog5at+iWztjYgK0KXtDr2HTtutPtuu9muWDOilZ0N37+TTbLZtiztTIP+MfR1IW6iRIn2QHy6LAWmVPk3UyBTYJ4okAF0ngiZiykoAMCVxmyAkxWJBOE70H3Dnt67xx7f+7i9evw1m2iPa4/n6UwApsOtECXAM2gbolAHG2XBCMBydakP6oA2v2YvFTYAXy2ThdvWrbWP777N7r1im20c7beq7NwChjWf85SGrrLQ78RvQgCOmd8VaUkO4EocAJtdpkCmwEJQIAPoQlD1Yi+zwEMHQg3+DO8NbXZ96Mhb9sCBL9oz2sPz2PhxgWdT4krBh5gpX88pEHGuU2aIOlOiyZnETHAxHUbpy9EBoCxodZUq7ce2anSV3bppxL7zphvs5i3b7BJM8QkD+zoxJ6oMLj8uc5ZJlDyTBl6woDMD6HJ8LnKblxcFMoAur/u1pFpbHrh7gQ3cxLJOS8LHcW3w/PqBV+3hJx6yxyce1AbYWqIi6OirygCAlIp8q0qlZ81jW2JbDlfPdRZUXtCmYEcDPiAEdXIA1MmnU8kRiotiSJbST59Tipm/rFP1vJE4oqNAXdMklpzQUtpNwVPtKKVLWQlQqd4Qlc3HAVO8WreJzdo1tQG785ab7VPXXGHXjAxIxN0no4UYSFAavixwsi7EkhbyJC0jGseRXKqBkOnK6Ud2mQKZAgtHgQygC0fbZV9yDMVpGOYqQvDJKlAppNo3Lm5JdnEwjKAI2TG3Vn/FDrbfsof2ftUeef7rdrz9tucDPRBDdmU4wA29a6B3jlN5Klq6kgZ+bPMkOEjcKHOiulYaB1GdC9zyM5WWwdWJT8PJ4A5eL5UHfqGsRH4cJ/dHUgIJ8OvU+1QOGYlMLRuZ7GitZp+2VuvT5icJ4MD+quZy6QOpEF4DenXAU33DEGFT6Vudhq0SuW68dK39yDvvtPdu2GKVuiZBVc4QVeCQvpYksL78Z2q5iqdQ6YBm2SHcLRSKysHZnymQKTDvFMgAOu8kXTkFMvwLBnUwIGskl6gxAYgGbY3aaMQmzBHv1R1yTs9nPKuT1uybsBffeNYeevob9qoMwbdkZajdEuzOHO3PmlipvlmyzRkxS9p5CGIu8uCoNIblwczgkGzQttk+DDu0IhP4WxPpBnR0ZXpvXMja1PpN/oYaXdu9aqPdu+MG+8CuXbZpUMpB2rYN83sZ+ubh5uQiMgUWiQIZQBeJ0MuzmhLazQJQKRbBJRyVeqjRv2FH7fDka/b03kfshdeetYPH33Id0ra4sJrWOVJMEnUuT4pMtVqdd8MH+iJANOsfFDrXBKh8JGDbAKazKQWpDh8h6v+w5ntX1wftzh3X2b3bdtrutZvtkkGZNBTdJiXHJn0Sz07Vkj2ZApkCS5gCGUCX8M258E2DH9JMnIMnCKnDZZ2EM9rzm9RVGuKwxhpv2YFjL9gTLzxgLx18zsZlUailLbfarjYq264CFzi3leAAzcEGoujUp644TzRptfrGD985RUx7s9a1YYVvrA3atjXr7f27brS7r9phG2r92lVFFIWsInAF7rwOXbPLFMgUWC4UyAC6XO7UhWhnYheLmjW4yxC87+RcEuti8KDRmbQjzf329Ivfsmf2P26HJl7XnOAJa9eaaecU17SVEXk3HF8GiQJNdZqacjzXflKUA31RQO/1uZY7Rz7aO9Dss4YMH0hRVmJbFKBYbiIg1AcD1dcErhVtcv2O7oB9++532gevvcF2jsokgpauCDFtAvAFeJW2X7QhT3aZApkCy4cCGUCXz71a/JZqRHcdHBhPandTcwrTiN+S8QMtTrGx9lF7+c3npCT0eXvz8EHT7Ke0SLUMBUPo4rz07yJOSqigYVPARCovYR7cHJqpHqbfKb2fWXpMGnAy7d+J8Fh/yovzK0UWoUkkWlyRiXxl52WR1wukZfhR/jm9o19j6PyosVUZeoc51+Yp1iRMGlTD7YpdUltlt1+z2+67/l22ZdWgDeltYwuzPtbtqJZB/5VSkWC3WbyJKiK7TIFMgWVCgQygy+RGXZhmNoUG40KWITFNsg4EkGqEBzwmbNxee3uPPbvvYXtN4tojrdetKWBlFxHxYEoklZiu0AQ0ckTUzKfyLbajylMB4knxJwXM3mLKbOvtaYsoQG4VE3ziLPvFlW4eHLV3yvj7+3feYleOrrNLa9qZUyRRlHadgUsVd+oFCLJFFOkPufLy7DXl0EyBTIGlSoEMoEv1ziyZdgF8Wm5SYwPoio23J+zQsddt/4HHbd8b37K3x162idZhgafSaE0jzBgcIZwZwMlyEQ74O8dR5xZPBWlLpuOnbAigWW9pplNdo0uD6tJlmuPcfelW7dV5le3ctMU2D6+yAcW5UhEkEJsqHFVO/ZKJsEKzGem4L1nxdPJnlymQKbDkKZABdMnfogvZQHGQtkoDvsSyncN2QkpCbx7Zb3v2PWovH3xRHNiEhLgTmscTJ9aVQFIgErjQ6cjKkICiq7m9jkAC8HXgQNa5AhxzoEM6BusDtnpwyLZvutTev/tmu3HjO2xjtW794kzb7UlNbko8q8SIhxHP+lpUaCFCgZ1o4EK34utiBVAmdyFT4OKhQAbQi+deFz1ltMadntVBZNvUXF5Lf68detqe3f81e/nQHjshgwjtep+AQeAgUW23O6LyZBVAQKtQrdhopvlOsWfJvIHEv4CpQ4ijBQ1IzpvDT297eq8jQ5yjHykvgEaOdMVCGZ/R9OvIESWSFlec0kXUTzk6yO9pdErpPFD9EgTqqMmo+4b6kN21c7fdKXHt9Rsu8+3HyNuGYr7fGH1OHxK0xtWFRE8+MnAoJ0tI7prJGJSAglmVCMpklymwPCiQAXR53KczbCVDPQcjdDHyl4NYY6G5S4bprjRDQ/lGAc4AOW/o2ROXeKz7qu2b+Lrt3fe8HXzrVZvQlmOtSkMDvza7VvF9YqGwsNPRDiLJqJ1+Pb/idQaE3HqQ+xwqFCI+VHmIpxauyRLtjitAKoVTD9yaKkzNUkDyeLzagEk9Fw8rh8OmIlDWSeJjUikczVhlQ32nLQSbPgNoKl9xvnWazoNaa9MQuzgpzVrXrmV/UhXTL8tD6+sjdsX6zXbz1TvsQ9t22eqBIXGh4jiRytINOe2Xohq9dQorv2JKARtauMSRutFChcCbZpcpkCmwnChQfruXU7tzW2ejAKjGMOwTahIfMuqzRxa8DXEyJWcmbtFHaq3PdG6I9EAMSQDHMRl513rOg/tlCOFJe3X8BRubOGEtiSMFJ0oDT4lLPBV+39RZdfFH0f6riHQVEElKgM8r1/lkl8pVeJHEwZBSU6E9GbzmBNCArYModdEPHfrhQBMY19FyEcwLEk8rAFwHXZSAlIYtwoAwNGmPDabyANxBZRoSl715ZI3t3LbVbt56jV2xeoNtGllt6wcHxJGqlQVLSRvCn9pOzad2RVdPnSjHZgpkCixJCmQAXZK35XwbFYgDVBTaKcUSFEoGRHDCHYEJANW0Zke7ozTfkoLQi/b6wWftDc1xHh0/amMe72YBHDync6cyFuuXHkWvogMJfILLpWUJQF0vVqDm1oAAUuVFXAqfjAuwBUG9DJEJ8O/oOmgzpH06NwyK2xRYXimze7ulGHT1RolpZRBhpKaPEkjL90jJBXiWgrI3UyBTYAVTIAPoiry5CAdZZYjDn6AmcaYAKuJR7S0pcW6zK+BsHLIjY6/Y/tf32P7X9khh6IjAZkyyRYl6W2m1ou85hli0KGqqTKpYaBeoVtRDEyIotH39Q0CBBSQmXtevU0slhZW4WQDpgMo5yhDAOqcuisjowbAUgLb2DdqVl2yxW7dfZ9dteoddNrBafLtelYLTBDgxmpDnKxf6xufyMwWWNgUygC7t+3N2rRMoTDmfJwRWOABRDm4383NNgecJm2wfslcPfsv2vfaoHTyyT6Lbo1qK0nZJL8tR2vrpq0gpSLkqAgw4NL8IQFb4QjkHyaI/ZcDsrY/9TQBRb5rAMa3KTGfEt8kmLeJcoR7Np8ziADfxMz+6anTELt+61a6/4ir7tg1XazPrNTagPH0ysedfDTRCNG1IFCzhuAP0aoJ0hCuLcCMsnzMFMgVWLgUygK6ge8t6TQZ5GZXzgb1Ysi/QKIZ5xU+2jmoz6/0S0z5pL7/+nNZwHtBSlCPSqD0uFk1gKdDooFlr9aRco7IQbKY5RYhVhgyuQSDOPU5hzAMCWNOiTUIisXxqF0ydg5qyE+MWiRSgbCkl+FX4p3Mn83dIUbtiLTtdVIIK8BQYwl2jQQynXdE6kY44Z2zwYuShqnngulB1tNJvm2Xk4Ir1l9gN23fYFVqGMtI/aIMS3Y5of052RvE5ZKaQSw3sV+ke5DXS4mk33c/psOzLFMgUWLkUyAC6gu5t14EE5GBg1zCvSU7Apdk+JkPvr9uh48/ZwbdfsCPHX7Hxxts2PjkuwJIykYMuYCd4AGzh1oI9C/DwcwBGnIG2c3FFfk6zFTFbOOnUBodOxaM1SzJZ29V6VPkcMBUAIgtPAVtPo8s6oFgZsFGJYjeuWWfv2LDZLpcm7aUj67SV2CrNdY5qpxR9MHi/aRIg7MWkYqlILvh4mHsP6pkDTanyb6ZApsDFQoEMoCvoTle0c0q3AyCOyyLQUbcQNC7jB28ffcnefPtZOzL+ksD0bWt1FS+I6Mi6UKfDkhM4zkJT1+EDQShcHWBSRglgo0CTIpYUJ2nTeNz8/YDl1AKHh5h0SqTqQCYuE1Erf2Iz+8Rh1vSHgYPBYS0x6R+yNWvW2mWrN9r2tVvsko2bbc3QiAPqgCCxKm60jjZVcOmAdHDG1KkDbPb6i+sp4we6zi5TIFPg4qVABtAVdO8RW3a6kzbWetkOHH5Uxt2fcuWgCYltW9oxhaUoFdZTah7PgUjwwDKMlub5OgLePmnqJt6LeUW2fg7ALM4BMmWaOaeqikGYBXYBnjCZACai2WEp/NRkp7eqtteFbMP9w7ZhzQbbIo3ZLRsvtQ1rN9o6zWeukVLVCEDrHLYa6vuqqdEqqy3QZJ0pXQCKte+190dkcq6TLAGivn5U0bQhvzwiRHaZAhcxBfIYsIJu/qQ9LotBD0qT9ik7MfmKNGmPi4/U2k4HNy32r49aU/YMmgIPNoN2YwNK1VdtSeEWEJ1MAMP+XGyv5SLNgjubAZBCjwVGTMflnloATZCrow71yTr7+o0b7LL6RtsytNk2b9hkl6zbZJvXbLRVMnYwIM66H2vvoF9DBakbHVlw93nKQMPig6DKR4X6x1IXorTNZxLX0mcF0BaRx8HWGXLK0mV2mQKZAhc3BbQGHplYdiuBAp3uhLjMY9ZoHbGGNGyZ6zw29qadGH/LxsYPS6w7rrhJm+hMyIKtgFVatmEYAZB15kweN7un645AtIWIV8RJDwnAq3g9MgCIn+FUlbGD+Jh0+nGFIzfaIKQR4qSwFN6SVq+DD8o+eFRH0pAVaCtPFxQjWDu59GvN5YBEsf1S+BmuDdt6GTNYv2q9bRZQbli11gak9NNfGRTnOWD1qgS3HDKxhw1e/opGpzMYqSOVTgVeTfqZCkzBRBHkweV0kaWUPoLyOVMgU+Dio0AG0BV2zx2sxHf2YRxBy1JaHW1s3RmzRvOYNVtautIYt/HWcRtX2OTkhE02dTQmHVgbLRmG7zYFwlrm0mn5gR1cOD627QIwtchlys81+ILSTRsA9QvEwworABSTfH4I0Dh3BHaFoNTFrhVEr1WBZFVgKfHroAyz99f75R/1+cvhwWEbEUe5amDEhgSWQ0rHMVgt5myZv0Seml2mQKZApsAiUyAD6CITfGGrS+ySA5kqcq1cgYv/CWMc8GD7BK4d8aAAJXOj7U5DlojEk7ZkWKE9bmOTCWgB3AkBb7vdEvgKSsWxAqRNFJW09yX+WHCSuNZUF4BKGxABV7UXZn+/ALK/X3tm1sUlrtbRr2sBoSz9DBAnAK0JWPu1fKS/DkcpUNUMo3Kntjs/ifEHyk/cJXOV1IH0NcPnwj5VufRMgUyB2SmQAXR2uizLUOY04cZQlJkCUZeXFiCT8DUxbKAO14E+OoeI0yWrUIB4HZ6NdEhk5RD3okxDHQ6UEuticAGXIDQVCrwSAtilioht6EjhKTWx/AGMNIJS5KgEF9fMfRJdHJRIO2kSy0uyyxTIFMgUWGwKZABdbIovYH0BmtOgA8AlsIJTc8fZkU/w43GFHhnJOAqQ9LT8YAMPF/nlLUJ0TvwnkdVi7tLTRoJSPq9S4b4EhPBIE2fPWPohPA7q5lDb0GtyENVlBlARIbtMgUyBC0aBDKAXjPQLXTHo43yizsFTxln2bdG0DefgqDgZVUhpIx3auOxSKVcC0BSQfqnFo1wjiLBAvcIf6rRc4rSNWjqn0xn/Rv06UwMO+CYY/jW7TIFMgUyBxaZAXsay2BRf0PoAvrJL8DIT/YAfAWMZc+RPvCRx06DrSTC7U7gArrieeS4KdIWeSEneckWqJy7jPFVI5EkBrEEt504zoD67qpiUNp35EDipsKlSsydTIFMgU2ChKJA50IWi7AUpl51WABcABVlsIY8NbCrOMY+oBFNudggiA4B6OqfZS2Srva6nUEpLYt9oUGRIMXHFuS2QT/xlAk1KBzATkE6DejJnMEvd5cKyP1MgUyBTYAEokDnQBSDqhSsSIAm+rQCVwKo40zgHtnF5SAMHlx6DKWZzKq0SSiP2tE7JOlOZZ0tNhV6pg2DyldMBjTNDaVkS0aaYyJ1yFX0rF5H9mQKZApkCi0yBzIEuMsEXpzoQEMgBTINbIywOzWuG0s9M3FI2pXHloihjFrAiquwoYwaAekA5xbS/Ny8xUdV0qpm+GW1MBUQxef5zJqnyVaZApsDiUeAM2IvFa0yuab4oEIjDOfFyCVCBnQJ6IklUOXWt+Cl/RJ7m7OnPNlOpzLPKelaJS5Vkb6ZApkCmwPxSIHOg80vPXFqmQKZApkCmwEVCgVnkcxdJz3M3MwUyBTIFMgUyBc6DAhlAz4N4OWumQKZApkCmwMVLgQygF++9zz3PFMgUyBTIFDgPCmQAPQ/i5ayZApkCmQKZAhcvBTKAXrz3Pvc8UyBTIFMgU+A8KJAB9DyIl7NmCmQKZApkCly8FMgAevHe+9zzTIFMgUyBTIHzoEAG0PMgXs6aKZApkCmQKXDxUiBbIrp4733ueabAxU0BGd3qyHQlf3ASsiqT6MHm7fL5Bu+YvMxsxtzPSVgKFZlipyW3FQYpC3LOsGxGOkVNpYmSPZw7UdA9wpf4OT8aS/wG5eZlCmQKLBwF2hrK2cOoM2U3uqNBPK6K0T6AYOGasXxLhjYFiJa8CuSqfEx3MUI9JC50Du90yqXvyxzo0r9HuYWZApkC80wBBuum8DGN/RWd+6xSbP4OqHLNRn5VbVaUd5w9BfELFgzuc3rjQ+2gBC1L3x/yio6Js4f2ON86GE8RAMcfcQQvB5dt4S6Hu5TbmCmQKTD/FAA9GbFLYsgZlTDqu2x3Rmi+KFEA0IR8kApSck6bE8LJJ5Es8YAnB7FB9nRV7KcUyEngMnKZA11GNys3NVMgU2B+KMB43RQ4amO/GPWn5/CKwbytwbypaNLkuS4IdbIDDDkAEufUAwgBSwfDqYCC02S+WWEFUHb8SiAayU+uYkmHrFgA7UohoG9KRjB9DyI8ztMxur9FnjiX487FTzlzudnaNlfaHJ4psFIoMNs7Mdu70JtutjTnSxPezpYG84rQMc18JhFipRjMEzgUI/35VraC80OhCpgIwdwVNOMEkTkcIRXAmMg1P6J7X6Uj0S+fJxKh+y++5eNWrAiXFzBeQl4+jrjm3Ol0NL8hoUJPeNy6CC+f8Z+JK9cd6SNvtIHrCIs0+ZwpsJIpEM9+u932d+9M+kqeeE/ifCb5zihNRwJIvdJNBvM++CLVNTV8C1gZIxjsq/AZZ/bun1G9KygRItyugLOWvjYSq84HicjFvGiVcBKJPZ1UeH9bs8ttEbUL7XXur1rDodN1np2LBUiXi1uxHCg3gBeOF5AXFn+8gJwBTxzxcVT0KYq/HO4XZ/ET9VF+lFXOHm0gLvzl+OzPFFipFIj3IZ77ZrNptVptzveA9OUP3XmlS0fv+YSOgYq1irGgn1dfA35TQwNwWQcBSDOki+U0qs8roU5dmHOe0I1D5AIkJ3RM6hLs7Jd/UMe4/Byj1YqthbioPpNZjsvk88tl9bNiATQAipcVYMTxMh4/ftxef/1127t3r73yyiu2b98+O3bsmPEy4+KlJQ8g+N3f/d1211132apVqzz+TH4o61d/9VdtbGzMkwPglEt5tKFer9tll11mn/zkJ21wcPBMisxpMgWWPQV4F3n+ebc479+/3/78z//c38dy53hXcIDru9/9brvjjjts9erVcwJtOe+Z+htim/YcPWAPjb1pByriQTXar2lIIqWqT/SLS9KofolmP+/ZfLVtEoKu2IHyTAk2Vzq/V2JCJPeerPbZQ6/ts2eOH7K3JZpt6Lrerthgq88aAst23WzdeNu+/Zob7LL6gD5Q0n1mdMbH2TEVRF0mbsU+F/GVC3i1Wi177rnn7P7777cHHnjAXnjhBXvzzTcd4AC7ALjee8YLvG3bNrvtttt6o055zQDwX/7Lf7FDhw55uhgQuMDf399vO3futO/7vu/LAHpKSubIlUQBnn3ey3gfXnvtNfv0pz9tzz///Kzd5EOTd/fGG2/0D9h4p2dNfJaBkxqyHzv6lv3xi4/Z6xXxS5I5rhuTGBEAHWZA79jW6qhduf4KW9OXAXQu8jJr3BatWvooGhMv+egbL9n9Lz1jb1RaNlGvWE0AOtCqmE6OjhtPtOy6rdtsdX3QVgsoEZyDl0RDe10mllSn5eBWDID2vpxcnzhxwr9uv/a1r9lnPvMZe/DBB+3w4cM2Po4wITnScZTFt7yoXPMCT0xM+Nfymb68pOPr+u2333aQ5jrqiDLgOoknXXaZAhcjBXgXGo2Gv48HDhyYQQLeF+KHh4enpEPx7sxIeB4XkgnZwU7T3mo37GBrQu+oOKiOpE4awI83pFIkjZghzcg1GR/Oo54Vn9VRT70UCjIpdrDbstc7k3ZAtG10RU99mHB0dGhItWa7KTq3BLnQFeic5j6XI6FXBICWgSjA6ujRo/bYY4/Zr/3ar9lf//Vfu+iWF5b42Vy5DMATR1r8Z/vyBhhHW+BwcXC02WUKXKwUiPeK/vNuxHsV70cvXSLNubyDvWX1XjMKtIWWFcluB1riN6VEJAmu1TU3CleELaJOt2mjjZZAVakF6NnNQgHRRZJa0Uicpoa5Rr1m4/11E35KfItmreio4bSjdB3RcUwzVsNSJBpSeDXxnfIl8HU8XWZkXhEjOi8iLyEvGmeOP/qjP7Jf//Vft2effdbFQNx65iARCWWXKZApkCmQKZApcL4UWBEAChHi6xax7W//9m/bb/7mbxpzLIhg4fyCGzxfguX8mQKZApkCmQKZAlBgRQBoiHoOHjxon/3sZ10DFiWhyclJFxMRj4iWc3aZApkCmQKZApkC80GBFQGgiHBZnvLQQw/Zr/zKr9gbb7wxtSwF7hOxLRwqAIoYFzcbmBJGWTE3E+f5IHQuI1MgUyBTIFNgZVFg2QHoXMDHXCdznk8//fQMcIz1nYBhKPEEmHIdgMk5ADRuMctN0MQlvDcu0uRzpkCmQKZApsDFSYFlB6C9QAewMe/5B3/wB/bVr351CugC9ADLUBwiLw5QvPzyy+3uu++2d73rXe5naUmAKWmCa7322mttzZo1BGWXKZApkCmQKZApMEWBZQegACMuABLQe+KJJ+zzn/+8A2mEcw6wBUQR3XJs2bLF7rvvPvuu7/ouu+IKLZIWOA4MDEwpIQVloh64UPIxhxri30iTz5kCmQKZApkCFy8FliWABjBy2+AUf/d3f9deeumlKcMExIcDCAM8d+zYYT/6oz/qFoDgQMORPvIEcJbrIB0gnF2mQKZApkCmQKZAUGBZAmg0Hq4Qu7Z/9md/ZhhOwAGWsTA7QBDwu/TSS+0f/IN/YB/5yEds3bp1DpiAL+kDHINrjfJ7QTXC8zlTIFNgeVOAT+zClvlURwiTwZzpfUF1jT15t5DTq8BPOkUR7a64mArrTR/pdKZMov2TPIyRUVARTtKpcrk4Uxd1zpo5RfI7HZ0q9D7OCC8qjPK4nM6UGu9hWBPCnpAS0g+lCcNElIk/rslOcZj8w1RFnxK4cQWFOQhFXZzJ5Gf5U+l4UhMiXbk9HnthfpYdgAaoAZ4Ya//CF77g5r7K5vkgJQpCIXbF/1M/9VP24Q9/2DZs2DBFaeZCyy7KLofhnyu8N12+zhTIFFgeFGCMrstyDoCJpRz2siSMnVhaOqqKkz10DfjFwA1AlAdvpeGSw4EYY2MKozyuHTjKeRSdEEBpNOpizmWA+LSHhecFSbgEWKdA5UyBAmv4lEclMuxOO3BYWkpglBpFEqJ88zBQTu1uqTK2cZMpfY9LHSvyORIqnfrmjik0PygEk4fa6QoiNPusOVhN25rpEhrKJr9s4eqiyNuSpO/YoFZF9A2IvtJNUb3HFb2+MZ3GGyvj/rJOr0BBsyxEtVKrZHxeQXQAl6KT/wL++n26gPWfc9Vwjazz/PrXv+42NXsLIp4D5SCMUTPvmZWBeqmUrzMFLk4KMBb7IWzgDKjgOAMIfpY/gSFIIDN1uhZcOND0E8dgroTabMQmFO9hpNE1s0jdgsUlGZwa9l9xdY3+AwCTQKA9MI0JCnGs8T1Iy43yXKf+cZwDqFIVji8phyqhYHWKvxm4QzjjJNHFoZNf0IfC6+fALZgJPxQKNtKnfi9HoK3ronrP4/hMH0WHPu3/2a8MtWbXhpttqxfbmQ1AROXvyh4g+4LSljrgCQF1RL2EeyPdo/REey0X9mfZAijiVqwMfetb35pa81kmJfFwoADo93zP99j69etd+7acJvszBTIFLlIKMGjPMgI7eAoFps4iT6OW7OMydpOFQX0CvwLg2hhER32kJyMROuSwpwugpDG/q3QFgDnKwFmlfTPh+5CFqZpUuDKAIdN5FX4KRzqAnWorABxpvQ6ddUHTtEGbX4CxAUqexPugwJIjnFJSDl0ooPgWSKmKCGzZprLVLwExHxieU+n7GH+pW+W7qBYQrWgjdYW12GWbMpRmgMJJ73mhl3x9tQKcPdDpp2JI5vfMz/IvBfBaCm1IVDqHX+YwUR6KtZ7lIrihuNHRUbvnnnt8Z4dyfPZnCmQKXNwUCABl8PaDgbwYzOO6GN8VD/gRmgAI8COXh4AisGNcEQDaaPgpZgcVlPJ6WkZ/0qsiZ7JSLgdiDydeh4OPvGkUk+c0DoAkKwM6+OTtIUAFVAoR6tRHgRri5euMyHiYtnu7U9OAMQeyIthBgjSUR7ooT96aviLK4FpTwXWx5DWlc65bZ9/KjKwCTBjOSeVvqtC6j9EUiMPwfNFf1dWnNMR4GP0p+gJnHM1V6AV3ywZAQ8En5iM5s7sK24IBpL0O7pM5zrVr19oNN9wwZUShN91yvaZ/R44cmVKemq0fQ0NDvhExXPhiOEwpMhdN22Zz3DOUubgvcR9nS3euYfGMzJYfxTI+tBD7c+aZiY0HyIejTSH6Z96cdrKMiWVOXC9VB73pE+8DB/65+obSHH2JftFHwhbC0RbWaGMlrNdB87feesvb2hsXzwZp2OweRcG5nqlyXvo0MjLiH83l8Ln86a4rFo8OBmwfzvFz+IVEsxqxq2KdEiBKhCvkdZBSmqbmGI9rAnVCAX0a3bvazaWlMG3w4ptMazpS3GWfi2wHhTxaMJfwR32D6pLgerk6JbRQPhxiXLi1M3UADcDijjK40Gs41m3YUV001AbaTT8BT8SqLaEZ3PX1HW2AWlRGVoCPeccpoFJ6ABHH9m6HWk3T1qmiAeApzrotYBTLfKRbtQm9V33saKP01IODloBsXRPKVUW8qS3kXug0fE6zpQi4dz2yLvquK9Nwo2LjdcG46DoqJF3HZwFt5z+d8C4Jt3RHBZEnBjZeHgYEXnxeLvw4wnlJ49oDix/yMjjEgF2O6/WTlrIYPOPl7U2z1K5RoPoX/+Jf2H/9r//Vm0a7g17h37Vrl5s2vOuuuxa8+dT99/7e33OlLto2mwOIvvSlLxnLiWLQPl96R5+5fxyUG/2nDRHPPrBPPvmksTfsU0895Zs4MzDzEQKokpcBmD0oN27caFdeeaVdd911dsstt9jtt99uV1111UldomzyRR84h+TjpMTnGED5uOgbwB/10VfCoTd9wpQlB1a5Xn311ZP6tmrVKn8f6NtNN93kRkQ4b9q0aYpO5WZGPacLK8eHH9rs27fPn9EvSNEvyiKcAzpB917lP/IHDYn/n//zf9qf/MmfeBj5eh3lEs6Zd/2f/JN/Yj/wAz/Qm+y01wzIwaEBMtTEmA03JkOg1l/IVJPyjQZ8xb0yfsyePnbQnh17y/ZPHLb9zXE71tSz1GhqWzSzVZV+21QdsncMrLarRtbb9tENdsW6zbZGk4Y1tReAcyAWkja4VAMIHgB5tCepuwGg8dQOBaia5Kc1oTHzsWzL1tZxUNn+v6e+bF96aY+9pf3FugIvUT6Bnp6buoCvX2D/y/f8sF2/erPxmQ0Ysn1bPRR7QAiaoOOIjr86tNc+/c0v2mtVfYQKxpoCYVWprcyq+ngwO6ot4MaH5dF/v/iaAQEjZ7RvG3U9rwLqX7//z2xAHW2q85MCcJS5oDVER+TbqCtO4YOaK7113Rb7W7fdYzfaahdz89GBghfle4BOF9ItaQCFMAwQvCB8yZbXehL2wgsv+IsTL2eZkPESkg7zfjFgl9OU/aTjwNACYt/IX06zlPy0lcGUr3v6H4MpbaTtxMGJxAC8GG0PLohBcbaPGto53+2hHvoLPThTR9xLgOXxxx+3//N//o997nOfc04mOFDaWubUoA9z6jxnhw4dshdffNG+/OUvO6jyPNx88832iU98wt75znfaZZdd5uSE5tRJn8rn+aR1PNvURb/iOaatr2m3IfoGyLz88ssORnxQlu899CEf/YYecH179uzxDx0+aDZv3mz33HOP6wkgqeEDImjIBygu6BltOdP+UTccJPQs56W8KHe254H4uKc8S/T1TBySFvp5Ps6ZNAFNW1wUg31Hg35b4IkG6ZjC3mycsEfefMm+vG+P7W+ob9qMe7IjGiuupXR6EpxTUm4HZLhPwHdA5+FK3VYNj9o1mzbbHVdeZbtWX2pbxLU5yNBo1dfUPGFT9VcFhiEyPuP+AEJyKDMBRiO6rjbk0UH7mLTtCqTxCif9vsIB1gRwPv9KfmSsikuTsspaKhNvU309qvtxyERncYdwm1UdiadRi8Wq9osEOC9KmSgO7rciDpR0R9vaUFuo3yKfwmuqEk6WjwnysNn5uFC1gySlf1L0kS5LIBWNiINKLrCLZl3gZsxdPS8eLxkD2s/+7M+6P15GXqzZXkBK4yVkgGRT7Z/5mZ+Z8QLPXZvZv/pX/8o5jlOlyXFLhwIMtDiAJcACUfKjjz7qnAvmHQEXBnKel3ieogc8J/E8kZ/nieemPBADOmxQAHcHkH7oQx9y0Nm+fbsP9NGGKCfKnq9zAA7lASjPPfec/emf/qmDIFw1a6ADZMppwx/9om+AK+GAKWfAjQ9TNp1/97vf7UC6e/duXytNPAf9iuNs+kRe6gTUQwQeZUY5XM/mCIeutP1UjnS0Lcqdazw4VRnERSvY9BmQ6atWxGV2Jfrs2NFW2/aJXt98/UV74I299tz4W3awow+SjoBAGSuAgwZ+OCnm+fiDiYRpnXQAEUIp3AS21RNj9nzjkD3y1ku2e+1l9p4N2+2mtZfaJfVB50qr6gvcrT59HUAR+56RUx7VkvpBZ3QxoO+fatEQQbK4EVljA330b9KKJQpOtaZJSkCMeUeyoj0sHHfHtYOEyhtSeXCTFWX050HsIus56RvcM5m1qsXB2IOV16vXGZpqp2ZV3SeNZd0v7hntADChjfJVRMwuYmE1RMFQ0QsA4L3NahcKSf7K07Al4JY8gEIjXiIGiW984xv+ohAWA2Z8kRNWdjEQ8pWOqI4bPtvLFS8gLytpGHxJF4NiuczsX3oUKA+egAhgiWGN3/md33HJQ4j4SYfjvsZgG+e499z38r2PtMHp8wwiGuU5BJj/7t/9u4atZObZY3phvikUbQTUqZ8PQjZNeOCBBxzUef5JQ/3xfHONI46246L/vEvRL87QjI8FdAmQ6FDuj//4j9u3fdu32fbt271cyov8XtgZ/pAnDrJEXwij7gDz2Yojbbk/5XIifZTHNeWdr0uDvgZxOFDVD7d1fHLcvt6etK/secyeOLDftMOwjUus2qYPGuhr4iABT7GsPuijmcto70+bbkNXZcCUAhicNeFkkwLko8cn7TVNKzy1/yV799Zr7X1X7bSr6qslqBSYqQRgMz2xlHcaR0IdYB533uUG8tAU3TmJReGoaZPaqk5CN9hjuMC26EYY3J+64uF8AJSdd0mFixmX+JRykjEER0f8qhvQ9WbQX7ITRpt0gK1t1QXIMsfpYcrnHx5qC+DKxwbiZ6Zi+wSiHWk+tdWojtrn1PQyHVJF56SkVG7jhfIvaQCNFyReNojEi0Q4A0GAqD8QPRQkT4STh5cx8pWTUkaUj8iKL/zIV06X/UuXAjwLgMAzzzzjc27Mc8Jx4rjv8czE/S8PxhFGWvzEhR/QirQBVIS98sor9vu///s+n/pzP/dzzrUFiHrmefyhfj4C4ILZMOHXfu3XXHRLWABkPL/Rbq5x0fd4F8rgGf2OOOqJLQGR9tx7771Oy61bt7oYm/gyfbyCU/yQliNAkPy4CIu2EU67yi7qIY72kZaw3nTERXyAcdRTLu9UfocKmqbD/dCOyTw5zRrag3setz+f3G9HGkgv4MZqNiTpZQdxKEO7krrmabffTgxo2kSsG+JIQNWVjcgELeiDyhSW8esg8raQ7nD3qO3d96A9fHS/ffz62+2DG7bZ+nHqVzsAtH7l1WkKROR3wPIwb7Z8ckpOrnJ/eApIC+AA4Ilb1Jk2KIIPBfoNwBGESzAoj+pGfBsCcaZi4SYBv5YyINKuaOx0xSTlIg6jDdAfLtwbIlD1Dw3KV1hN8QMCR+hKAodGeSdFBwU7iFYlWx6SEpGDu9KQ0vuuM754Ump0bgm4JQ2g8XLz4nBj4mualwkXL1Rcl+kZaQmLF7AcH37iOHCUB4hSb3ZLjwJxn2MwjcESRaCvfOUr9gu/8AvGRup8BAF0uMjjLzYvve4tYXEdZRAW950wruHqOPN8UB7+eOYAsP379zvIIFJleoG50XiWSIujzKjDA07xQ9mkp4xoA9fU8x/+w39w0Eb0Glx1tIUzYEoejmgDVeGPtkR8NCE+Cggvvy8oXDG3ihLQL/7iL9ptt93mmsikPxfHO0UbqSc4ZfxlepbLjXYRFm3m3OsirrfM3nRzXQMcOE5ofLYltkVEOKABHMA5orD/fXSvQEQfUiQUaLp2qu5JO7Gaul9FAe2mxJ7M50kioIIBFI6UUc8bYOUiSp8lFZAqzNFAHy5iux49ftAOfv0L1t1+h334yhusb1gf9mrZqJ6741KqGRWL1jehloozGx/oc2AbVfGIjR05NZIPKRqAI6iq6wF5Gjp3BGQ1V0qS+F5cHSJY+gnqDjbaNi6TQW0hPneXvDVMJamslIKPBo2PEvPS10FVMNStS6O2aTUF8AHRZq5Y/RnUHGdLnVJpnhdudVJzuSxrQUuXYpySol1DYlzC+rFgJNoMKE0fLKgStbBEpDIQI9faNXG9Qlins/IoCXRJsnMCL6y78C04g/7Hy8NgEAMCL1/5urcY4uMo55krXW94vl6aFIh7Tut4Lg4cOGD/63/9L/vH//gfO2cIeEaaue47+QLY4tniGhdAxHU8P4SXy4pnD9CBa2Mzg3/0j/6Ri0ADuKNc0p6pIw9lUncADtq1//bf/ltXFAI8o/xoW+85+kE45dEfjginLVzjIk2ZXvjh5qEjCljYj2Z+lOsyyHoBp/ihbsrH4Y9ryscRR5uiLR5Y/JAWUIw85baX04WfMkmPizoj7szOqZ3O72iAZhgHXGnphOYK6Yao6aADKBIHOA3qqEpkqcVDdlyTg80KGtJqi9IgRq1JrNvfEtclJZj+8Za0SmWFh/lG5RemCfwAXAGTCm2oktc64/bbz37dfu/Fh+ygROvDsI+qV5QQcJNBz6gyoiQ0pMPvIo8tHpJOn9KFfhMPl6JTEpVTOHyERb8Jpp9UlfzQQKJsLtQh1m6OSwV2rDNhbdnoa8vfFcp1tFSmrWUpbYm6mecEUAFyHH1DVJu4dN1v3du66FEXXaoC4armkbFSxKQt+s4dALhP0w6+jkcfrAJ2zCvSRzAY56fpbqTAC/SbnroLVHmuNlPgbCgQgy95GFxRgPnsZz/rS3X27t07NSgHZ9ZbNgMx+XAxgJcHccIAiRiEIy3n2cqM9Mybs1Tjl37plxxI3/GOd7jYk7KjrN62zHZN2gAU8tKn3/zN33RlKOYoaQfHXGWW41iSA6iEJi20A3yDk46yZmsHYdCB+VHE4r/8y7/s6yvf+973et3kPRNHH6ifg36V211ua29ZpKO9kT/AsTcd11EOZ7Rw0Syeb8c8IT3uczAQxCCq1HDf1bkiQKsDMwLLPnFWXFc5a4B3sS1aRmobXGBL4AoIUJaLeBUHJ+biVaE1Ckt7K2P22RcftWGtSRm5/FrbNNSv8hOH11ZaRKYo/LjWrMoC0DnmfSAXpqFNS9m0lw4hzm3LIG1NHHBd96gPrpu66ZNAs6a2NQR8LR3QyhWOaC/4CBCr0eqJrdVzOUhGleHtVtl8JFAXYAsnO6a4fvmHRDs+SkBNPmhwCqG4JeHmne5Lole5ESuSAgyoDOwMlgAaZhx/4zd+wzW0CWeQLoNsmQjkIR5gwcAEAy0H9pGZv6RsODxAGW4LMSlnuDH8cznawYAPwP3hH/6hLwv5yZ/8SRfnxuA+V97ecNpA+ymPtvyP//E/nLuGy6bdgB9gUgaiKAOQinWsnFevXu1tYI0n13DKKEChTQww0jfOlEk7Z3OEs6znkUcesX/5L/+l/ef//J998/lTAVq5HAANJSvqxAUoQrMom/lkaFx20T/owbaDrMGlrAjvTUs6Dtbvsgxtvh1KOHBSABfKNsgtAcOKAG1YstIRiTwRsQ7qeRrUMiDaijbv2Ni4lJAm7bgMB4wp/Zi4swlxXBXN8/ULBABOjK4DHHBoMF4NgdNLbYHoMw/Z0EC/fWDb1bZWgFIRSiH+FKb4shNHE3GFcHrg07wP5PRTBdcAeEcrfRjovKHeb9et22yrW+Nqsz7Q1Ie2WPJJ9bcuLaSXmsfsYGNMzQPh1KcC6Gg3SkpdcZ47t1xhoyqnpmcdTnRc/UBb2DVsVc4qvW7HJY+uiFO9bnST6DsLWs7xzKrSRXXzTveFaj0vXO/XJS9UcAy9LxfpOXix4qv+dG2LPKdLl+MvDAW4x9xLBlwG3p//+Z93gwgxIMcAzT3nXoYjD4M+axwxHPAd3/EddvfddxvLNbCRTHoc5QMqLOtAG/Wv/uqv7P7773elHeIDLPHjqIOy49kD9P7Tf/pPds011/hifgbSKDvlOP0vZdIG1qDCfQKehAF0lMXzTj+jf5zpGx8F119/vX384x+3e+65x3bu3GkYToi2cSYvc8QoWTHHSf/gnukXcWVHej4c6APgizj3P/7H/+hzvnx0RP3lPL1+Nqz/N//m33i7KS9oFW1CNIwSFnPYvY6+kp6N77nPsfa2Nx3Xcd+j3NnSnE9YTQDG0+RLMYSgnLFru0Y2W3esu8TuFKd446Z32G0V2cwBDXmcNLJisu41eZ/W/OZjB1+2b+x9xl45csBOCJng0nQbBTB6hnQGnMWra55TomAZWniqc8x+/8WHbcO6Nfa+0cs8DUYLmF2EWyvwyU/p6T2fHp6cty2rCqy+RXyL8Xu47CE9Iu9bc4XdevdWXemDQXHDxWMzrr6OqVm/9eiX7XN7n5DhhvTRCTkQ/Q6qoFUnAMqK/Z1d77Wdq9fZKuXHypMTF8BWWg6CDosrhc9HVD1KgA49EgpL8ZquXhJuSQMoL0QcbEP2nve8Z+ol5KVB0zKMyTMIlB0vHy8/e39iUQY32wvGi8pgwADCma/Y7JYmBbg/3He4PawwsWQlFGq4txHPPQ1ODT/PANaE4AxvvfVWB1KeDbg24sORn4+0bdu2+YDNek+AGkMFv/d7v+easIA36Tiou/xMEcZSk1/91V91Tujee+/1dFH+6c6UxXPMsqt//a//tQMLz2XUEc849UT/6AMGEH7iJ37Ct+sD3ABTwnGkjTNhWOthWz/eJThSQJplPwGk0IMjQDW4Q/r16U9/2j8+yItxCcqmbWUaemVFvbyDHGUX7SFfb1yk4x4TD+cc/sgXacrnKOdUacrpz9Yv5VptvcX6RY0xAr41YqXuWH+FfeSam+3GtZe4ubmaOFEXcapwnih6zVzlFjFPa0c22vXDG+y7rtxtT76gNbx7H7PHTrxh492W9U8yLyjj6aLluEbjtvxos7bE9b40dsT++PEHbNddH7XNAp5+iYYBJC9cFaBzQ11TRhDkny9XVZ9HKJwDBhDkEthT16rimXJuHFm02oHYmieuoTlMrAvJiJB/FKDwAxdKGOb5EPdOMHfqReqXQrigTN5FXVbFeW5QYV1EwbCuOMXji8PDlsDPkgbQoA8vCPNKfAHjeGF5sVC3/+QnPxnJZpx5mcgHx4ESBi/kqV4w4nF86Z4q3YxK8sWiUwANUTgXLAvBqfEccODiHsa9B2S2bdtmP/ZjP+agsX37dp/Li+dntoGfMPIxeMPBAUiXXHKJA85v/dZvOWcKRwZHGIN7EIF6CWc95e/8zu84sJ2KcwfaAXkAADRsSURBVIp8cSY/y1UQBfNhGKLj6F+ko32AIR8BcGis24Sb5iNztj5FvqALnDg2Y+kbpu/4uABI92rOlTrLNI26oTVl83EAZwm3e7p3Kuo92zPlxr2M89mWMZ/pm9KChfcbFpqsrwzYvTtusg9dtsOuq4zaWiwRoIWq4YO1jgg8MVbAHCDAoFUoPpc4KkDEpuv6rVfbJnGVf/HSU/bXLz9lJ6R4hFgT8SVLYwAKOF60WscEsI8ffM2+/PLz9oHLJMpVvHBcA2BS7KE2tzrE4z/zO+X8uy9kgLlkVFSTrKY+pgtVxVhJBDxLMW7Sjn61AY5SzXPn4lvupTxpzlfJlWZYylQjKgDtXv5EGhWqjzaFEQ/Igpt0q4+8Rd/or6L8iLZ4RRfwZ0kDaLw8vPhwETFXBb14sXnZiZvNEc8Lz2CBTVjKmistceW65ko3Wz05bHEpwEcTYlLEfnBJc90ruLCrr77al5cgskWyQFqOeDbmanmAEM8EHCkA+pGPfMS5NwDkL//yL120Olt+ymfekH1qMbbwvd/7vbMlmzWM+lgSA7fLHGWAV29iAJQ5Tvr1z/7ZP/OPPgBxLlr05g86AMB8VGA7lvfk3//7f+8gSt2zOT4OHnzwQT9YH8oHxsXgGuKchsXubauM2Eeuvc0+cPkO2yJbeyOM8ICF7htLLiqADMORhxWUKYAGzg1x5EC1bnesutTWXT1k7aGKffH5Jx0oNVg5pwZDxsE9givFhu1fvfiE7bhEJkarI75JNUYLADdwZYpDK6qbrxNdw0V3WPep/6kwBz3QDFf0EdCjzRzOKSvKwVQgiGibZS0tEWJE0t0hTAzCZUYFyqMR2kXGrD8lmOI5lw+vUvROjpgL64IEF7YVc9QeL/psA8PpBkGKJB9f6nMNROVqSds7D1SOz/4LTwEG9q985Sv2xBNPOHjSovjwKbcOYIDzQ8zLXrAo0nB/QwQKQJJvtucqyol4zkgySMt6SJbLMM8IYIXoMPJwjvYghv1v/+2/uTLQmTx/5EVcytwrHwmnahv9oy2YncQwPCAfdUT9lDeXIw3pIy0fpj/4gz/o62ihGwA9W994P/hw+cxnPuPi3yhnrnpWSnhH2qYbxOt9eNuN9snLb7Jrm4M2opEfke5xLcQEFJxdUpjzoHpWHN0YXSWGdPZLy12qsgFbl3h2SOi0e3Ct/ch1d9vtm7fZaD+7YmpZh+4LmqvOuSkrSkaTQqpHDr1sTx57046z3EPFARsUPTV4LwCOwDEiseaQ4q3XKa8DN8pM4zpkhdve4lD9J8SKsUPLpM5NOHK1m34koxL6wFDfKAVOm/neRC+6o8ygrUTUcHP0CRrCxTPXy5FmoFWel0BjikPXF9pN3YML3ZC56o8XnZeVQSVeevwxEEZYuQyAk3Be+hgAy/HhJ03kJ092S5cCKPd8/vOf97lv7n1wir0tRtz/D//hP3SxLUAX4ML95bkJII373pufa+KCw43njnJQEGIulXlAxLy9jjbxvAGGDz/8sHOiiD/PxGEwAaUlOFgc5cwGZDfeeKP983/+z50zJj7q7K3jVP0r0w4/tOFjg48DuNHZHHTgwJwgHDb0KJczW56VELZB85Tv2bbL7t15i0zthRNwamiXapfs3WpoL8SMcFwM9GAEGrJNBTQFok2hUFvrQjBPNzEgv9Bi99G6/fTO99mOkQ2Os2wxFusehScqR2NcrW5viwP+6vNSzJEhe3cqnJEKwIGDI+18O9rCHKQjmk54EUcPqG7mhFEoYhuydUqwQRrII5oAHtFjvmpCykUyjlBXPJw09KCN4xKDHx7WMSIFIbHik9I2nhDIeo/0/OH0yrlImnL7xaVWVWZFB/OxfKNIsE0qviGctuS50G4BSD9/XeJlLQ8QMaAQzosb4DpbjcFNki4GkhgAymfiow78HMRnd2EpwD3j/sbBNYM22qABgNwn7h1ABhfGGa3aj370oz43CCiU72/cdzisU93nKDeei8jHmbyAKNwtCjkANGHUzZl28uzRRoDzj//4jx3w41nljCMdRzj89A3umjRRBn76Ef2kTkCOOc/oB3HhaGO4sr8cFn0nHwfpqB/O9lOf+pQblY92Rj7OpKFdKHEB9DFHW06zvPzwNnqGdEs4cKxV1BSkaCKaalPPSkUi1+pq+8jl222jxoYG7JgAUBGax+uzNRrWtX+NrnVA+oL8DKwcetKKA8tCcFPSCPdfRQqRLhkdsU+Is93Rpw89VTkmZKzofrjyDWyguNaKjC/sOfa27TlxTOswBT6qixlDPWRixuBd59/5PC6doT90JPrGmceNQ34HNThC0Fxh4+oT4EsknCjnPgEsR7/E4OuPixHCOIXmi1nKM6xMbtVJSVPqVK5/IfCVwFHUlRqSqKiRWhEX3i2NVpwBHXoHg/LgM1f2M0kzV94cfuEpUL7nDNYoD7FOk/sKCHAu32MGfZRb7rvvvimxLb2gnHJZZ9qzcp5yGXBogOgP//APz7n1He2CC/3iF7/oy0DK7ehtM3GEsbwEJSnqAqjK6QA6rtG4/cAHPjClBVtu47n0K/IEqG7bts0+9rGPuc4BAD2bY7kOZv5e00YNK8H5wJ3GfOdv8GIEvi7tFTRC7772ets6ukZbkilcYJE4PoBBQKbE5J8e/blILgABkC7/Eet5lJltzm7YuMWuv3SrzxPqi0Z10wI53W89CmIxu3Z4UtvXHT0s0alw0+NSPN6FAFBn8yi81013qugECdTeAmSdc/XOqV3eeOJTJnC2Xx8lzHbSQ7IA1N7+Ig+pi+SBl6V6PHYqyfTVhfMtGwC9cCTKNV8ICpSBAW6OOUUUbODqIq7MJREGsP3QD/2QL1viOgAo0p9vP8rlwHmyPygKRsEJUn7UiR8QRCOX5SIo4ERcnEmD45p+sTUZ4IQLwAxg4wwnilLStm3bPM1C/KAYxJZtGC+gDb0OGnA/AM+90tot06Q37XK5ZjBHzOg4oNEcrs6Nnyto3cCw7dh+la2qDzkjlHjWlNZRQN5zcdSJwzjB+pFVdvVll9tqbcANJywSTxXNs+FzoY1JO3DkbRuTxq5jzfRPKij/XhAKZAC9IGTPlZ6OAj5w+Be4vlDFWWJSDtEh/uA+KYMBnLQM9sx93nXXXS7GjfJjgCfN+bjIH+UBZnCD73rXu3zdJaBCXLSHumgrik9sf8aa5d4ySEN60rF8Be4arpV00UfiokyUfagPjfSFctTNR8Edd9xxEoASF/1kXSgb1UefFqo9C1kuYsQEVY5GzlGy0B/JKQMj0sNrL3mHQHREnGJV1xL36jGCk3KXsrk3SipiTn8iL8tSBJUYJNi6Zr1tGdJmZgLI5ADO9AyxNylLPA4eP2KHZeUHblaZeXjSuciRT4tPgQygi0/zXOMZUADgwDFAc8DtBAjFQB7xgCdcIODCWkhcL5hxfT4uQKxcNn6WtzDvGvVFHWVg+eY3v+ltJw4AChdp6CtcaigPURbcaxlEAewdO3b4nGvki3Lm4xz0pm6WyGCpCX/ZcU2bOAP0fNQsZwdABRiyBhNgYjsthyX9DOq5unr9Jl//WdMz6Do1Dp4lush71uApooWYFqMJKMhcIpC+fGiNTyW29TzAderB9y3DSNtV+w5PyDRgU5uTK7+/HSThWM43YZm3PQPoMr+BK7X5DNJxABiIb5kHBYA4GPBj0OcaAMUgABZycOQJoAn/+Z7L5UZZ2HoN+6vldtG2uEa7NsC/LBalfzjSwtHRv+gX5Zf7B3DBGSI6xj/fLoCRcllDi/UuwmgvB36O6Dci6diofr7bshjlAToYK8A5CBVAhIIPd8UX+OseXDmyTgbNkwKQJ/ZY+dKtS0Fn+UvWSigdeUFdWy0LRNvWarmVANXVglQ3fDAnjNSz0uO4djs5Jru6AK434DzaQAnZnT8FZtcSOP9ycwmZAudFAQZrXAAJgzWDdoBKFB6ARHoMZqBJulgOAIT7RDOW+svgV24DlosAUBz9CeAsp0HUG4Ab4dHX+JDActBcij2RZz7O1IGYGNpSd287qIO2ovC0vF3iNukDmOR0FmsXgFqVFukmGUxgV5AC59I5Ol0CsJI3Yuc8k9bTu4eapUyk52e9dmBRI4SbjpDOHSdfatMkBulljB72E4s90Rgvi8vsFp0CGUAXneS5wrOhQIAN84MxkJfzEwZ4kY5F/uyfCQBEvnLa+fYDhnCO5XZRL+Flh4IQykG0MwCUPOW0wV2X8+GPvpGWpTrlMnrTzsd1tA8algE0PlSizbQ/Pgrmo97FLyNAKp3h8NCq7UNcKnt5WPvR7bJVip7i9wOp4qxGz7zTZ9YLL4+MKgd+ky2oUSYaZumMIlWzg2SIl/15Epg3FTAuow4AKOYDKSD9nlm9OdX8UyAD6PzTNJc4DxQIEGLAxsGhlYEqqgiAATz//t//+w5KkSfSLOSZNgGOzFkCOgBhryOOAxdti3Ok5bo3jDj6F6DJdQAc/vl0lEs94WhL0Dbqj/bFvYlz5Fl+Z1BMgMmvHrOEaYhLsXyLpSY2xC641PQYehd9/vF8OpuqdQBlRlz62b5PKLuetGT/tiPD9G47VulImuqTIpHuSZOPM2XqQ8MJp8viFUnX+XdRKZABdFHJnSs7FwrMBpxRDnEx8KOlG4N6nCPdQpwD9BBn4gc8Z6sX7g1wJY62lttMu8g7W75ocwBX9DPC5/McIFkuM9pUjiMs2kO/ytflvEvdH5yb4yLgGYf6l/7UA31P1MT1AWI4znFw7XnxyE1/eqTrM/pV2WjX6unx+tmii3lZFIgUkkS4mitlBrZFu0BKPnK8QdO1T/vOqNacaB4pkAF0HomZi5p/CsQAHYN5bw2EA0hlAJsrbW/e+bgOMOFMvSH6BFTDMXfJQXy5veSJfFFO5IlzOT3+udJF+vM5n6rs2eIWuj3n05fT55VVKVn4YbE/eOQcn8S3HV+nkhb4Yz3neE2btBcIFUAV59PXceoUiGq18lPLY8RdynBDQ5wvZgXYZLpPk5xqnkBTWrpt8aAaqat8LOpgfY0rGgGoQn6aPAPNT11tjp1HCmQAnUdi5qLmnwIM0rg499ZwKu60N+1CXwMycQCkiG3h0m655RbbvHnzFPgFGPUC0Gx9JCzC47zQ/aD8aONsdZ0qbrb0SzJMjxVzng6gwiExfm7wPGnmwv3pXupoiC2ctqgzjzjlKIxJPkdJB/C2GoEBB8AcVO+K++TpRzMXHrcqgK/o8HUsnkTpdc7uwlFAdy+7TIFMgfmiQHCeADtrN7Hs8/3f//1TpgUDYOervlzOOVIgMW8OUIBUrwOY/FAk4LoQ7nTFni5+IdqUyzw7CmQAPTt65dSZAqekAAAJeMItYloQ8GT3FNZW4kLcfMpCcuSiUACAEpPpSBlgNQWWCsBP9EK5qPOk8lWpt+ukiByw1CiQRbhL7Y7k9ixrCgCccKFs4I1ZwX/6T/+pW/YJsWecl3UnV1jjAbIyUAZw+nlOlJt/IlAVwKlHKLtlQoEMoMvkRs3VTObagushDRqTHLFub658CxlOe0JDk3q4juNc6yX/bI56Qku0PEcYotTZ8sxHWPSRsqiXa+4FIls2ucbEH9wnG1THvSj3odzW+WhPLuNcKRDPFfeQdbpJeuCl8cxF9LkWP1e+nnITJ6z3RO9uV0pD6N6m56oEqHO8A3NVkcMXngIZQBeexgtaQ3lQBkhwMaAvaMVnWHi5fb1ZThVXTku6+FAoh+OPPiMi3blzp1siWmxwon2AJG1gJ5MPfehDbmh+06ZNS+pe9NLuor52dg8lHB3uL6ihe+lcoC5jScm8g2gBnlHtFC5GOBHhv6hv0tLvfAbQpX+PZm1hcJkM3syrBZCQGO4LEIlj1gIWIDDm/qJo2hRti/YBNGXgPB3YR1rAKfxRPufIjwm/X/qlX7Lt27e7xZ5ymoXyx3wm7QqFIerimqOXHgvVjlzu2VMAfKoKKdF4xc/h7wseuEDmseVtuW1aeRbATQGoynY/VpD8XdawPAWiSboR1cd7FNf/f3tnGmRXVe3x1d339pTO0EmaBDJ1yEAIQwRCeCAPZBJKEVFUSh/vg+M3rVJLy7Ic+KZUWfrFohTLUgtKLV8piPpKhsco45MpyBDIPJB0mkA6Q8/D+//W6dUeb2463U2nO/3Yu/vcfc4+e1h7nX3Wf689rJP8yeVAAtDJ5f+YS0cj4wAsEdbh84KF8EaAl7OMM+ZCj5GQr4lQJkd+2DIABR8gHIkQCGCMIvnKSuQZYeGTLw6zenxJhMU7Iykj0o/Vp575upEPdON4HvEsPCD9nFgcUJOpxuKPoHNortOfXfb82ELCh7O7ewe/45o1seNWB9pSp775qQalfwH4YEm68jbGJe2pUEwi+7g9hDFknFbhjoFpJ0ISwBMwwuflww+Awedlw4g5Ju6OtwM0AIyWlhbf+wioeG9+UAum/ABP6ByJizyIS12am5tdyyuXlvvsuVy/fr2b/OM6D2zH6xw+l+ZN2bgIL0dvCpt8DgBMRbXFSoGVD+HyzPSnB2f9rnUOWK/a9IHDh/z6eFPM+3NQHUDpoP7n5YkW6Mmc9oBqT2p1dfXxJiXlPwoOJAAdBbNOpKgIaD6wDIjiuMYFcAGqGPsG1Hg5CScMfzxclIPPV1K2bdvmGmBoXpQRIEIcgBMtMg9uw9GRTwtQsTCHYdroKOAzbEo8yuR4+umnvc7BC/LP1zfyHC+f/KM+nIcjLA+kEZ78f7bPeC75ZxX8yfOPsPFst1GGuj42u7rOP5IdwCnDQwJTLBQRUmkaT7GNXW3W1S/7xgOyjitgxaQBtmgN08a6wJMBR93XBUYO8q8X53HohEFh7N7K2q2yYKGQOp4qj+NQjzqg+9sUUmntRb2vskBUxce1dY+h5gq173q1+YaCzBCp/Gz2dlB858tUkRPrfBY5s9YkOioxHoLBB51jejAzQgG1WFdSnUR7t95n6qkguQErQn9mKtpZO7H0v7PSEoC+M/5NWmoED9ZtGK7EIWRC0CCcEEJooJs2bRr6YkgIrXdKdL4czjH0/sQTT/hHlvNlhHAkDMBbtGjREVpkxBmOJuqydOlSN4dH/NCwOecg/9BA6TAA6ISxohKXp2m4ckZ7bzjag7bh4oy2vP9P8XkmR+MN4TxjXBjhH+9nWJDmuaB+lkzpMVqBGOePtsLcqOBVINolsf9i2x4fxqWdK0hzokQaPOQNdltBXqFHFkCrc0OO3PS4+smaol8CnuryKa0+0i07geDkGx3ttvWQRov0RZZe/5xZZrYP6IGootryrNoamwmAKj4A7/dUhGeKPxlO4A41VBNXpE6DFwAoBvCzu6qvbhQFlL2+2lnpuE9KOh7OsCEczTKbAr8JQKfAQzoaiQAS320EYHjB8wKJMOY/n3rqKduyZUtZTelo+R4rnHIygMqEIHOf999//xCABh15oEVbXL16tQPpsfLP3w9hygee+fYm+ZAvLmigroDmrl277MEHH8x9p5KXO3NBU1wnf+I5ECAYz4JnSceqnCMu8fjmKKMLkaZc3LGEVWmOc8H0RqsVDQMCP1bcVgoMerSqqFfYXSGBXugZsC27d2lotVN2amXWDzAjbqXs1qI2SXpWCRCqeyutTReHRUjn4KHZTGmbci5hlU5AWSkE5tui+uqnf76sUnWsBFB0veHwm7a5d7/gpMKmd+gj5orbWxBIKmmnvqBd1ElT/QybXlSHmXKz4sGu7JA3WS4jQe+k6KqrqfVn5faDwUavP9UXb0VgQZXtP9xpPXqHO8VL+OXqqj+DBKCT9QzfdeUiUBYuXGjLly/3unMdAooAQAZg2bhxo/3pT38aGsblXj4e16N1pI/5P751uWPHDgdQznGUHcOqIST5luW555474jmcAEnyo250FM444wwfsuY6Og1RHjQBor/73e/smWeeGepQRF3z+ZEmuYnnAM8NxzPhfNq0aWU/gM49DtrQ1q1bcx2i8aMZ/XaulLn502b4pzX7+f6nVLt+fWcTDbBK5RekGmoA1+7d+qq1dnb7cC/q3mEBqGBWOegAaZUZQ8KaUHAztYOYgaLox7+AnEDFh2WFMBV8+U7XG3sO2dP7tlmbkBWQretjcVNmxJ7vknYJrOs1vnzKtJlWD/RCPFqo0np2UaCCJ8WJCDoDhzU+O6uu3grY8BVxPG0HUvl0ThgeV1/DtrTusUN92Wf/IL1Pw9WmYWsqhQY7ldxks34q8eqEohUhxD7DK664wrUyACUcYBHCipWpf/3rX+2FF15wgTQeQELeDK3h79y502699VZfrITAC4dmAU3Qic987fnnnz/iLSZBPz55kN/73/9+H7bmOuoRPvGIA5j/9re/te3btzspwZfIL+hL/uRwIJ4DPnPirJoudTxf7geA8ixjKLc07livEe5Fye01C5ZYY3WtoxHDiTJLot9svrJfdPQKUB/Yu9mea2uxTl1X9w1YrQR9tcCTWAAuQ7sNavrVwtOC/FphQKZlDlJHYbyeAj40Mp8XRLUUKO6vGbAH9rxmr+zb5ZFqhDAM7jJDmvFKZQhE59VOt1NnzBXADGq2okUE8B+jnzqbJEdPQYSgYZ40XSCv1c0EOCepu86KvdK8+6vscF2VPd26zXb3dDiv68QHr4MAl5pXD067kGoquH9K3alAbaJxiAMIGeY/MRc3f/78fxkKAzQ4eAHRChnCve222+zNN990QRSgQx75YyjzMif5eAg28t+3b5/dd9999tBDDw3NO2YvvV4f5U0cfDSN008/3RYvXjw0t1WmiGMGYVP2vPPOG9JiyR9HGTjqxcIp6Ln99tu9vmil0Mu9iOeR08+kcYA2woG5w3nz5llDQ4O3X0Y1ouMVz4s2xvTA7t27/flFePjxTPHjfDQVWzN3oS2snWEFzcMBbihCwiv/lFhPIdOadgx02P07X7OXO/YL/Cqt2MH8JPpntiiI+I4eKKWAiQ6URA60RA+TPzTVh1qmcnqFho+27bQHt7xk+3u7NBysTqDuAchEAXuAIj5ntmz2PFs8bZZraL5D1dv84Lyt4kyWo3ruRA/Vb6qfZo3FGtVjEFWptyrOEHRRlWpXhTZ07LOXD7baQeJQZ8XxfGAQE8JTyCUAnUIPK08qAgRhgxB673vf61ooAigWXyCgAmDQQu+8806744477I033nBAQdiQRwiifN7584iDjyMdgMQCpSeffNJ+9rOfuXBjvhWw4kBbIA5xoQdN46abbnJ6A2DzZZQ7DyHLvTg/5ZRTXOPm25r5+lFWvlwWEv3iF7+w3//+9/bWW285LUEPNEXd8ZObPA6wgpx5cQA0njHU0G655vnQru69914HUTpH8czifmn7jXY6kloBmM3VDbZ61nxrkHBn5Svf4kSgo3l2CkBd6IuOv+/bYXdufN629nXophLqyAYp1T5BDpoSiIlEHZSqgCejk44sALPiDXTrvZN/QMOczw4ctP968Qnb1d4m3MhA2QFXyMk+VDIt6F2a3V+wtUtXWFN1vTRfgTqFZbfdU8TJc9ChZ+X1V09hbs00O1nacp16AQA9t7nPGUA6oA5Iq3j4+K6NtqFTq46JIF5WSrPPeg2DzCPdFHBTi9opwNCJIhEhw4H2+dnPftbnkgLsEC44rgNQWejzwx/+0P7whz/4cGvEHY5ehFUILMqKa/xHHnnEvvvd79rrr78+VEY+L2iINAzdcgQt+XijOWc+lXwuuOACF7DUIeqaz4fwvXv32s0332y/+c1vXFOmbOLm40fd8mnT+cRygBEUOkY8C9oLjufHebQhtkgxovDqq696ZyjaLvdL21T++Q5XE3S3PiHf3MqCnTt3kS0oSAuWpsc2C7RLwLVH2hIaKYYN3u7qtMd3brRfvPykba/XFEZVjTRGRRACEA9VsVdzlR1a3dOh189n+HgNAVDAVfngFwXM3cUK+4fA49a/328vte1V50/lqkDKZAFTFe+dEvYLfeuU7ozpTbZq9sk2XUOjVfrwNjjtIK384Vj2thM48Y6quRPNWt4nftbZsplNNkPDtczfFsSfKvG4W3zpFL/r1HmorCzac29ssbu3vGCbKjXwK/5WVmhQXO9ot1cuMj3x/azFnvh0JgpLOICg4EALPeecc+zqq6/2ecYQIAF2CBu0LwQSmijm7vhCyHPPPTckoI4FJORJHuSFBvvjH//YvvjFL/oCJciKMktI9HBWCn/gAx9wLfRY5ZSmL3fd3NxsX/nKV3xRUX5Fbj4u9EAr9b3lllu8vqxGRptBO+Ye7mh05/NK58eXA9gvvuSSS7wdRzulRNpKPEeumcP/3Oc+51MGYfGK50ka3FiepX+oWoC0qnGe/fuiVTZNqNdfJb1JiOSH8q0E1QRRbDc51Nllj+zcZLc88z/2t/Z91iINtV3Cv01Ap3U/jpOAWSiiHqCLAd3r1KToftlA2CaE/u89m+22JwWee3dbZ69mPNmAqgL5oHaPgIYVwehvDIPOqKq2a1estXlV2rMqDQ7FVKZTIExkCb7Ep8nEHN4kf5tExzTBOZvqzjhpoS94At0rVD80UToZfcVKq+lRx6ir39p175HNr9jtzz9mL/Z32HYtzGoTL6XfH+HGQ24ckek4BahayU1VDgAE9MCZC0UL3bBhg7300ksuVBAugGvEYYgTIfP222/bn//8Z9ccr7nmGl+Yw9wki3wApFJH42W4li0i7PX84x//aM8//7y1trYOLewoJ7ygi5W3H/3oR+3iiy8eoiW0jNJyRnrNsN+KFSu8vj/96U996DYAMfLgmroAltT3nnvuce3l0ksvNerMlhiGlTHMkNzkcoB2d9lll9ndd9/tUwG0UxztjoP2wvMENFlM9M1vftPe97732bXXXmvLli3zERieI3FG07YAuoIEe5+0pCYZVLho8Wn2fOsue+VAawZgYBOR5CqlmVZWalWsymjr6rFnW3baW4fbbe1Ji+yiBc22tK7BuqprfKUsK3EdOLOkPip5QEDX0tdpr2pP6QvbNtqzKmenFtH0CFwKVUXrk4+VIYoDQHt1FDWkOUNzicvmL7HzT2q2mQKXCvEDwCQio8gFB1DmaZVwkNbBYifUcz6J/gLDsKJrycy5dtbSlfa/256xQpcAVDxmXldMdFqpKcYn2rSC+W/bN4iXbfaeJcttzexTrFnbdOiM8CzLyZUJrdgICksAOgImnYhRaFxxAFZr1661G264wRfOAHbcQwDhAyRxTRjzgmz1eO211xxc0ABY5MOqXj7HRX707FmABACxleDRRx8dAk4MJ3A/yscP4cU5LratfPKTn3QhF3HfKS/Jhy0tn//8512LBtTz5gqhgzqGIKY8FqIwf7Z582bfJ8owMIuR+NQY9Q2TiEH7aGgkDQthMGoRPBhN+nd7XEzTnXnmmf4FG1ZPA1LRtuBNPE/O6ci98sor3pl7+OGHvc2TNixcEZdOI3PktOnoIMV7QB7/6rRmQMK8QRrgSi3Qufy0s6xl/WMCtk43mDCg8F7yHGDUAutAPvuoxS+99o/9e2zvof326s6ttmb+Ipt38km2sKLOZmgoUjYCHTA6lKatr8daukS3QHfDmzttb/sB2ycttEuq5AwZTajUXtMKgSgLktA7sWjE7Gqt7i2Z1mgfWvUea9J+UCm7g8CcvV9ZPfLnWQhY6odueRL9sKUky5074q9AjsVQzPkCyKFtk9AB4chss8zL/GZlKKGGpn2VlDJpVGfi/CXL7NGWTdZy6C07KEowalIQLxnGrZB8wbISmun+/i57Zs9W27K/1Z7XKuOVc+fbvFkzraZSfFQ8KlEvWpfVz7RFmlstgtDhcqcRNNF+AtCJ5vg4lhcCGyGOFnrjjTe6ZsgCGoAPYQQY4jjHEZfzrq4uH9IEGFkMxEpZDBUgfAJA29vbPR8ACiEUQIyPIwwHHXGQP9ofgPKNb3zDTj31VL+OuJ7gHfxAO/mzB5b8v/3tb3tnIAAz6hnXURQaOWEvvviidwR+/etf+xYKNCB4h+ANfkaakfjwigVSn/70p50f1D+50XGAeXymBB5//HFfMR5tlOcR7QZQjYMOEQfPEv7THnh+pMNfuXKl3XXXXUNbpsjjyOei96BCz5wRYL0acwpVds2CFfbG/ha7f/PLWuiinZ7M3QkMC3QWFQmBr6k9/QoQhGi7B7qtpXOfPbG51Wp31drJ2uAyq6BRjeqCa4jtMkR/sKfLDnR1WIf2PfYV1TFVOSxQYviYXFmk5G9RtcIFaBUapp0uhGuqnWZXLzvbrqqeK2xSDNqVt63sfR4S3CXNLYPKjEaic51dgUXS6MWLbg1TA6KVosHpkIboNIgPoiybh1WqkqzLPlTAHijERGGFOgUY6SvK7OGK6ml246Kz7Y7Wv1k7nQLlXSW/m0Eu3cfcXxEQV1rZjbBt/e226eA2u+/QVsWTPOuvtV7xEXBv0pzpTSvOsesWrrJGpVGSjLgEoGWfSQocIwcAlc985jOuYbLiFsBA6CCIECD4ATAhmAgDEJkvpIfPdd4RL9KU3svH4x7CjLhodt/5znd8dXB+eO1IIZbPYeTn5EM5LED56le/at/73vfs2Wef9XpAR9Qtn2MIUdIhZAFUhqE5gjfEiSOf9mjnpCMvVkEnNzYOwEPaCLaOb775Zn+ee/bscb5GR42ciVfO8bwYKeF+5JW/judeNi2BIBECWc1eYy/24TPWWbss5Ty5Y4u1VvRYe7VWeOsewAKOCWvcRxPChgIGAjB6YO09tqlGmqsiVHQqjLiMW2p4FkCokUY50M3uToZpdaid9qC1UbS3u14Bl4CtoPenp8Y+sup8u3rBqkzz9FjCHcXDleMFd8gtg1edUyf1c2u0TaSo8V7s+0KrEgu0RLvOoZyrXgFf1+BrTyehQ6ENSj4E0jo/miMXzD6QDkZCA0aaGlictew0DVu3WqcMURwQ8HVLI69Unfs49B462zX0C5CT3PmlDADXAS2s6pX23ifk7dKyaPbgtoupdaJTo+lZOUcjagLDB9k2gSWmoo4rBxBEX/va1+xTn/qUD20xRMYLlweGeAHzwBhxAnQRXhzEyaeNNOUqQfylS5fat771LZ9rRDBGWQB5CIByaUcaBkBCA/kC2Myvshp43bp1rnEMRx9lkD40GeJyTp0BVOiPeyPxiU+doIXjWGWPtI7vtnjwjmH0yy+/3L785S/7qtz8sxqOr8F/4hMv2mqcH42XiHscM649EswYeK+XFF8+UGv/ceaFdumCZdYkYKgWSjIfyWpc4Zs7tmJo5NW1zB6hKvN5DPVq6lLm/zTq0y2gkHH4CgBD4ARu9UjrUuvyY0AAwapbFiahCXZUKw9ZdahVvCV91XbD6rV2JeUPlpeVCvZl7Syu8z7ApcoLWDjk+FHeXRr+7dDinXZpuIdq0A81bC01utAnzV2Fu4EDgWytyqKONTpmqB4BxGQ1rIOROgASBxOu9RymyZ8rIq4561xb17TQZoqH2o3jC6r6BIzwBUCHD5Wip0IrrSoGpJ7KzBIAT54V4g/3izpq1Rmo1wGd6tM4rcPSNUE3vc4TVFYq5jhzgBeMuUc0UUCUId0FCxZ4GJoSwgXQyb+ICJq8sMnfg1yuwyd9OUeeMefJCt+rrrrKh4MjbaQpvY7wkfqRPnzoxpINc5qAKKt92RdLXUtd1Js0kZ44IYAjLPzS9MNdB//Gkna4fN8t9wL0eJbXXXedfeELX/B2S2eHZ3m0UQX4k+c55/kj+Feu3dKqOcAoyWN3lQK2Wu3TXFFssA+deZ5dsvw0W1ioNuGPHMOfAkglYLEMhhdUmoNol5pbu6bsmNiokLCvkLYJBKGPkXefwIKjX2CG5SJKBjzJjwU2zEU2CDRWFKfbf57+b/ahJau16lZAh8o7Yqe4+fiDSR1SBfh9dBx1APRonE6P6GAulOseHY6aygPAH5UjgScaTEhWes+mi0fU6cNr1tn5zStsllYUF9HIxUs01j4WTIm30MBK5IIAvVIA2qNh7h7xioNtPWj1wnuPy9YYZ9xoaRxVhUYe+UhJM/K0kxoz/+KUIyRemrx/rDTl8hlLWJRJeZwjAHBxPZY8R5Im8kfzY6Xq17/+dRdELM5gYVF+Izr5ASp5QAm60ayCZu7j4h7hcY8w5g8RfNipZdgWn3lFHPRwjJcLGiLP8Jm3RQOls/CjH/3IHnjgAR+aZVg6HGkjfvhR98gXn7rFdaQ9mk8+kQfnke/R4pcLp6woj/TB24hbmmfEjfuT7UNPKY1joYm2SF5se2L0hDl0niUWiJiLh8953kS5lB1ttBwdEa8cTbRM3kywxlupg042N7e8YZZ95Ox11thQb/ds22j79F3Qbo1UCBMk8CXQ5RMd3KigzehPsMiL4qgsfBxy0MV9aKkSuLJwyeceBSCAyZzKGltZ32jXny7QnrPYZCZEmapjq+FLHx4eyonsj+Q3dADULDTi3Ise7BnUaOi2hqHcbHGz00scd9ClyIBYl1LCCzRDkjJV6fl4xGP8ENHryDvAuUpQZjWiFUlwxow5VnHmWqvSl2Re3Pa67dG2FX1l1bpVVoU6FAUfZhb3lEyKujoaAlinTZnJh5do+j0aAnA6s2DRSGGT66YcgDK0Fi9K/oWKsDw7S8PKNb58/PE4p4x4ockPGvLH8aYhzxOE0Ze+9CW78MIL3WIQ2zliMQ18DPryPvRFHsG/oJl6cY6wi4UbzHey0pY9eqH9kS6fjxc0Dj9BT7msWATFgqXvf//7brnm5z//uX8flM5ADEtDEy7qQT3zdQu6hysnXzbx8kf+3kjOo2z8oC14n0+fLwPaOcrFy6cZj/NyfCAs6KYM2lE5jX+k5UfdiB/l0RH6+Mc/7p3AH/zgB/5FIebneY7UHVfqkxaeBH0eafCHuLTZUof4DQHoohgEkZEDAKBewnmFdjYuPvUCO6VpsT368gu2oWWH7dOAbZtW0TIvytwlwr+uGzuvfG1Emp3oYLMmQh9bupzzBw1sQ8EoA9oZ+mmVNKyZWm162YKVdl3zmbZmxuwMCYUkLDDir9QFj/LhtOosPqGA8qATq+o4NN7cK81aRFhPtdqOaAA5nX6Ak16BO9LCBLHAf4/9AwCTOnKA5qG2qZt8hg2WnlfbaAtXX2yPz5xvd738lCw6HbL90ia7RDlzvxXSPJmXFZEaRpZNXPEVfqFxkp6FXCy4qgJl3RF38l20n8mnZBQU8ALz4iIc48UpTR4NjbjeeGnYE+iifIrknCMveDifCMfQKpZ7MJnGKsdf/vKXvuAGSz3wL6+FBk28AME3/HghQktAwwWsPvjBD9rHPvYx34+HJoqLeoc/EXWMMqCPbSnQddFFF/nWm1/96le2fv16X01MfXFBG+2CA0cdSc89OhnHcsQL4Ai+HStN6f3gMeG0Z66jYxNx6agQHnGhM+iPOMfLp0wcPII3AZaUzz18wsfbUUfmRNma9ZOf/MT+8pe/uFlGFoqx+ha+U3aejuBf8AmaCIt45WlEcOsOh8QDoCe57ZcIRgcfNZnra062dWfPdiPoD+/aYM/pyyn7Nb+JVlQlDWpAK3b5KPaAtqPQmvoEGp4lWARW6VrkCrjEM1agSrM8SV8tWb1wqV3WvNrW1M62+UwQoiU6fimy66byRuBIohFkVSH7ZJhnQwX0aN6U6rm/TouhNME5IG20jw9yariUuUWM3zMfK8pd46wBwNT0GSX1DJ0WnQ/jgn1ZFDRxIDDLkzoPBlhRc8MLNQ579aLTbNWCRfbQhvX23M7Ntv3gW9oP2itDE1qNW68hW1+JzNoLyW21Lawy8X1W3bZadQSYpxVDVTdlfgKg1wlAQsb6kf7ycsWLHQIsXqR8Hvl4hIcQyMc5Xufl6KGsoJtz6JsIRzkIOYY52bCOEQFMo7F1hb10fE2Fby6ytzOAI+gPQAEwASY0TCzHMMcJIGOAgT2ZLFSK+sDnSI9/vF2UFz50AOYAD0DKPkE24FNX6sxQNttyGBZEo4k6ko48OEYDCvk6BqiMpM7EpcxoE8G/0rK5H3HCH0n+xyMO5cMfaKXeAVp5HoxHufEseYbsTb7++uu9E8h+5Mcee8wPOoBopay4hQ7S4EjDaAQ0BU/L0ye+uqDPt1GgJJP5QIA7BTA0eoqGH6+Y12xr5sy37TLD98IbW+3V1t22q6PN3i52a0iy2zq1J2ZA7xoanmubmu8ryOpOfUXRGjSXOr1QY01zmmzZ4gW2fPZcO60ww5or6n2fY2VoVq66Ih8AopE7X3UrOsFAUeFp/fXTIqhK7Vst+NyjFhRpTyt1Y85RUeWknfrQqFani+4at+yuO9nNERFA1DjgH1cZhKoe3kNREKis8+kqY5nM/TVpW8ol2ja07dDbtn7vDttwsEVDu+12AD4KPOsE8D2D8gP+kxaLTlmHhGFmtPiJkaEq9ahuygEoLzEvBIKGuTaGeo4mWBD8mLmbSBe0sbUBgwXhCA/aecmxooI/EQ5eUTbAwh65pUuXuiEBBBPGBTCowNYBgAWLL2hqCB+019gf2tzc7ODLAiUMB8DbvLCPupHuaM/jeNQ1z1fO88KXDhZAzzdTaQfMp2G7F4tN1JeOQwBpqXY6Elopj/rSKRltnYNuyoGPDLdfeeWVhiH8ci4WacH3iXC0FTpK8CdfN+jGQTPz7HE93jQBivCW/HnP6QDyHFkw9olPfMI7RTxPvjAEiMZzh65on9BE+qPR6AA6JPkBFD1PpclAgMQ6kJBCJ8znNcoWbaMWxSyun26rZJ92T3O7A8DWA2/a/u4O7fnstq4+ARS0K5Nq7beYDnBq8cyc2gZbKNBsmtlojXqvGiX+p5G9z6QI8kQn5bLNA/QDEDl1GuQd0xFXDvrRRhk65WvVFzQulKF8GWpo79XQqDRUaaBATxYTr9+WCMRZNcuiJRb0iO0jLneIRIjX4WToByDPguAq5fCjzrXKq1Fd58iW8EwZXGieNdvOnrfA9nQfspaOA/ZW52Hr7O60GhnFPaTFRHxMvEE0ndVwktvX1cP0hVho2eM/9gGNo3PqKEmyTiHHi8LBy4XQwyBAXpCXVoV4aEi44V6m0nTv5JqXH80ODSfPXmgJ2hGEbCAfjvZ3QkM+LfRQd2jhKFcmcaA3b2UIviG4A+hJSx2iTuUEE/ciPPw8LeN9TnlBT5QddS31o2zC0bapa3QYqD9uLDQj4FlIBW9Gkx56Q/ADVAABz6DUEY9nRmcmOi6jKac0v5Fc824xXErZwVfSxTk+bQPjG+PtyJvnQZ05jzKjznGdp6eUhohDmjgvjaOBVw9CxGdiPgOxvEBE+DMjyS/hQCzaFXOOuOxOpi1260su3eIbQ7ggYJUAtEaduFr5KHbsj/RM+GSX6kUAq0sdrxgCFlBoUiqDt4y0EaFEZEs+UIn26/tsZFj2kPakdGjhEnOKbshdIOarcUU+htvZ/zlfQOuI7Z0FAZR4pqnbkbsgAJ90OgJA/ZJw5lnFE7btUEeML4gr3j9x5VsscYfPQf1lP/igaCT5jC79kofUUYxY9CjjTKrr5iS6KQegk8irVHTiQOJA4kDiQOLAEAfotCSXOJA4kDiQOJA4kDgwSg4kAB0lw1L0xIHEgcSBxIHEATiQADS1g8SBxIHEgcSBxIExcCAB6BiYlpIkDiQOJA4kDiQOJABNbSBxIHEgcSBxIHFgDBxIADoGpqUkiQOJA4kDiQOJAwlAUxtIHEgcSBxIHEgcGAMHEoCOgWkpSeJA4kDiQOJA4kAC0NQGEgcSBxIHEgcSB8bAgQSgY2BaSpI4kDiQOJA4kDiQADS1gcSBxIHEgcSBxIExcCAB6BiYlpIkDiQOJA4kDiQOJABNbSBxIHEgcSBxIHFgDBxIADoGpqUkiQOJA4kDiQOJAwlAUxtIHEgcSBxIHEgcGAMHEoCOgWkpSeJA4kDiQOJA4kAC0NQGEgcSBxIHEgcSB8bAgQSgY2BaSpI4kDiQOJA4kDjwf69vxqrwehmjAAAAAElFTkSuQmCC;" vertex="1" parent="1">
          <mxGeometry x="659" y="379.00000000000006" width="64" height="47.17" as="geometry" />
        </mxCell>
        <mxCell id="Ewb6es_rom8pKHP2NBDd-65" value="AWS Cloud" style="points=[[0,0],[0.25,0],[0.5,0],[0.75,0],[1,0],[1,0.25],[1,0.5],[1,0.75],[1,1],[0.75,1],[0.5,1],[0.25,1],[0,1],[0,0.75],[0,0.5],[0,0.25]];outlineConnect=0;gradientColor=none;html=1;whiteSpace=wrap;fontSize=12;fontStyle=0;container=1;pointerEvents=0;collapsible=0;recursiveResize=0;shape=mxgraph.aws4.group;grIcon=mxgraph.aws4.group_aws_cloud_alt;strokeColor=#232F3E;fillColor=none;verticalAlign=top;align=left;spacingLeft=30;fontColor=#232F3E;dashed=0;rounded=1;labelBorderColor=none;" vertex="1" parent="1">
          <mxGeometry x="340" y="50" width="400" height="430" as="geometry" />
        </mxCell>
        <mxCell id="Ewb6es_rom8pKHP2NBDd-69" value="" style="shape=image;verticalLabelPosition=bottom;verticalAlign=top;imageAspect=0;aspect=fixed;image=data:image/svg+xml,PHN2ZyB4bWxucz0iaHR0cDovL3d3dy53My5vcmcvMjAwMC9zdmciIGlkPSJJY29ucyIgdmlld0JveD0iMCAwIDY0IDY0Ij48ZGVmcz48c3R5bGU+LmNscy0ye2ZpbGw6I2ZmZn08L3N0eWxlPjwvZGVmcz48cGF0aCBkPSJNMCAzMWMwLS4wOS4wNS0uMTguMDYtLjI3LjA1LS45Mi4wNi0xLjg0LjE2LTIuNzVhMTUuNzYgMTUuNzYgMCAwMTIuODUtOC4yOCA4LjMgOC4zIDAgMDE1LjY5LTMuMzIgNy43OCA3Ljc4IDAgMDExLS4wNkgzMWMuNDIgMCAuNDIgMCAuNDItLjQydi0xLjQ3YzAtLjMtLjA5LS4zNy0uMzgtLjM3SDE2LjU2Yy0uMjUgMC0xLjU2LS4wNy0xLjU2LS4zM1Y2LjUxYzAtMS4wOCAxLjc0LTIgMi40NC0yLjc3QTguNzcgOC43NyAwIDAxMjEgMS40NSAyMS44NyAyMS44NyAwIDAxMjYuMTIuMjhhNDMuMDkgNDMuMDkgMCAwMTcuMi0uMjIgMjMuNDYgMjMuNDYgMCAwMTcuNTggMS40MSA5LjMyIDkuMzIgMCAwMTQuMjUgMyA2IDYgMCAwMTEuMjQgNGMtLjA2IDEuMjIgMCAyLjQ2IDAgMy42OHY2LjgyYzAgMS4zNCAwIDIuNjgtLjA2IDRhNy4xMiA3LjEyIDAgMDEtNC42MiA2LjYyIDEwLjU1IDEwLjU1IDAgMDEtNC4xMi43OWgtMTVBOC41OCA4LjU4IDAgMDAxOCAzMS41OWE3LjkyIDcuOTIgMCAwMC0zLjQ3IDQuODUgMTEuMzcgMTEuMzcgMCAwMC0uNDIgMy4xMnY2LjgyYzAgLjQ1IDAgLjQ1LS40Ni40NS0xLjYzIDAtMy4yNy4wNS00LjkgMEE2Ljg0IDYuODQgMCAwMTQuNCA0NWExMC44NyAxMC44NyAwIDAxLTMtNC42NyAxOS44OSAxOS44OSAwIDAxLTEuMTMtNS4wMmMtLjEtMS4xLS4xNC0yLjItLjIxLTMuMyAwLS4xMi0uMDYtLjI0LS4wNi0uMzZ6IiBmaWxsPSIjMzc3MmE0Ii8+PHBhdGggY2xhc3M9ImNscy0yIiBkPSJNMjAgN2EzIDMgMCAwMTYgMCAzIDMgMCAxMS02IDB6Ii8+PHBhdGggZD0iTTYzIDMyYTEuNjEgMS42MSAwIDAwLS4wNi4yN2MtLjA1LjkyLS4wNiAxLjg0LS4xNiAyLjc1YTE1Ljc2IDE1Ljc2IDAgMDEtMi44NSA4LjI1IDguMyA4LjMgMCAwMS01LjY5IDMuMzIgNy43OCA3Ljc4IDAgMDEtMSAuMDZIMzJjLS40MiAwLS40MiAwLS40Mi40MnYxLjQ3YzAgLjMuMDkuMzcuMzguMzdoMTQuNDhjLjI1IDAgLjMzLjA3LjMzLjMzdjcuMjJhNC4yMSA0LjIxIDAgMDEtMS4yMiAyLjc3QTguNzcgOC43NyAwIDAxNDIgNjEuNTVhMjEuODcgMjEuODcgMCAwMS01LjExIDEuMTcgNDMuMDkgNDMuMDkgMCAwMS03LjIuMjIgMjMuNDYgMjMuNDYgMCAwMS03LjU4LTEuNDEgOS4zMiA5LjMyIDAgMDEtNC4yNS0zIDYgNiAwIDAxLTEuMjQtNGMuMDYtMS4yMiAwLTIuNDYgMC0zLjY4di02LjgyYzAtMS4zNCAwLTIuNjguMDYtNGE3LjEyIDcuMTIgMCAwMTQuNjItNi42MiAxMC41NSAxMC41NSAwIDAxNC4xMi0uNzloMTVBOC41OCA4LjU4IDAgMDA0NSAzMS40MWE3LjkyIDcuOTIgMCAwMDMuNDctNC44NSAxMS4zNyAxMS4zNyAwIDAwLjQyLTMuMTJ2LTYuODJjMC0uNDUgMC0uNDUuNDYtLjQ1IDEuNjMgMCAzLjI3LS4wNSA0LjkgMEE2Ljg0IDYuODQgMCAwMTU4LjYgMThhMTAuODcgMTAuODcgMCAwMTMgNC42NyAxOS44OSAxOS44OSAwIDAxMS4xMSA1LjA3Yy4xIDEuMS4xNCAyLjIuMjEgMy4zYTMuMjUgMy4yNSAwIDAwLjA2LjM2cS4wMi4yOS4wMi42eiIgZmlsbD0iI2ZmZGE0YiIvPjxwYXRoIGNsYXNzPSJjbHMtMiIgZD0iTTQzLjUxIDU0LjkyYTMgMyAwIDAxLTYgMCAzIDMgMCAxMTYgMHoiLz48L3N2Zz4=;rounded=1;dashed=1;labelBorderColor=none;fontSize=6;strokeColor=#272829;strokeWidth=6;html=1;" vertex="1" parent="1">
          <mxGeometry x="287" y="210.5" width="28.5" height="28.5" as="geometry" />
        </mxCell>
      </root>
    </mxGraphModel>
  </diagram>
</mxfile>
